{"glyphs":{"0":{"ha":608,"x_min":0,"x_max":521,"o":"m 260 0 l 174 0 l 174 87 l 87 87 l 87 174 l 0 174 l 0 260 l 0 347 l 0 434 l 0 521 l 0 608 l 87 608 l 87 694 l 87 781 l 174 781 l 174 868 l 260 868 l 347 868 l 434 868 l 434 781 l 521 781 l 521 694 l 521 608 l 521 521 l 521 434 l 521 347 l 521 260 l 521 174 l 434 174 l 434 87 l 347 87 l 347 0 l 260 0 m 347 174 l 347 260 l 434 260 l 434 347 l 434 434 l 434 521 l 434 608 l 347 608 l 347 694 l 260 694 l 260 608 l 174 608 l 174 521 l 174 434 l 174 347 l 174 260 l 260 260 l 260 174 l 347 174 z "},"1":{"ha":434,"x_min":0,"x_max":347,"o":"m 260 -87 l 174 -87 l 174 0 l 174 87 l 87 87 l 87 174 l 87 260 l 87 347 l 87 434 l 174 434 l 174 521 l 174 608 l 87 608 l 0 608 l 0 694 l 87 694 l 87 781 l 174 781 l 174 868 l 260 868 l 347 868 l 347 781 l 347 694 l 260 694 l 260 608 l 260 521 l 260 434 l 260 347 l 260 260 l 260 174 l 347 174 l 347 87 l 347 0 l 347 -87 l 260 -87 z "},"2":{"ha":608,"x_min":0,"x_max":521,"o":"m 347 -87 l 260 -87 l 174 -87 l 87 -87 l 87 0 l 0 0 l 0 87 l 0 174 l 87 174 l 87 260 l 174 260 l 174 347 l 260 347 l 260 434 l 347 434 l 347 521 l 434 521 l 434 608 l 434 694 l 347 694 l 260 694 l 260 608 l 260 521 l 174 521 l 174 434 l 87 434 l 0 434 l 0 521 l 0 608 l 0 694 l 87 694 l 87 781 l 174 781 l 260 781 l 260 868 l 347 868 l 434 868 l 434 781 l 521 781 l 521 694 l 521 608 l 521 521 l 521 434 l 434 434 l 434 347 l 347 347 l 347 260 l 260 260 l 260 174 l 174 174 l 174 87 l 260 87 l 347 87 l 347 174 l 434 174 l 521 174 l 521 87 l 521 0 l 434 0 l 434 -87 l 347 -87 z "},"3":{"ha":781,"x_min":0,"x_max":694,"o":"m 260 -87 l 174 -87 l 87 -87 l 87 0 l 87 87 l 174 87 l 260 87 l 260 174 l 347 174 l 434 174 l 434 260 l 521 260 l 521 347 l 521 434 l 434 434 l 347 434 l 347 347 l 260 347 l 174 347 l 174 434 l 174 521 l 260 521 l 260 608 l 347 608 l 347 694 l 260 694 l 174 694 l 87 694 l 0 694 l 0 781 l 0 868 l 87 868 l 174 868 l 174 781 l 260 781 l 260 868 l 347 868 l 434 868 l 521 868 l 521 781 l 521 694 l 434 694 l 434 608 l 521 608 l 608 608 l 608 521 l 694 521 l 694 434 l 694 347 l 608 347 l 608 260 l 608 174 l 521 174 l 521 87 l 434 87 l 434 0 l 347 0 l 347 -87 l 260 -87 z "},"4":{"ha":694,"x_min":0,"x_max":608,"o":"m 434 -87 l 347 -87 l 347 0 l 347 87 l 260 87 l 260 174 l 260 260 l 174 260 l 174 174 l 87 174 l 0 174 l 0 260 l 0 347 l 87 347 l 87 434 l 87 521 l 87 608 l 174 608 l 174 694 l 260 694 l 260 608 l 260 521 l 260 434 l 174 434 l 174 347 l 260 347 l 347 347 l 347 434 l 347 521 l 347 608 l 347 694 l 434 694 l 434 781 l 434 868 l 521 868 l 608 868 l 608 781 l 608 694 l 521 694 l 521 608 l 521 521 l 434 521 l 434 434 l 521 434 l 608 434 l 608 347 l 521 347 l 521 260 l 434 260 l 434 174 l 434 87 l 521 87 l 521 0 l 521 -87 l 434 -87 z "},"5":{"ha":694,"x_min":0,"x_max":608,"o":"m 0 174 l 0 260 l 0 347 l 0 434 l 0 521 l 0 608 l 0 694 l 87 694 l 87 781 l 174 781 l 260 781 l 347 781 l 434 781 l 434 868 l 521 868 l 608 868 l 608 781 l 608 694 l 521 694 l 434 694 l 347 694 l 347 608 l 260 608 l 174 608 l 174 521 l 87 521 l 87 434 l 174 434 l 174 521 l 260 521 l 347 521 l 434 521 l 521 521 l 521 434 l 608 434 l 608 347 l 608 260 l 521 260 l 521 174 l 434 174 l 434 87 l 347 87 l 347 0 l 260 0 l 174 0 l 174 87 l 174 174 l 260 174 l 260 260 l 347 260 l 434 260 l 434 347 l 434 434 l 347 434 l 260 434 l 260 347 l 174 347 l 174 260 l 87 260 l 87 174 l 0 174 z "},"6":{"ha":694,"x_min":0,"x_max":608,"o":"m 347 0 l 260 0 l 174 0 l 87 0 l 87 87 l 0 87 l 0 174 l 0 260 l 0 347 l 0 434 l 87 434 l 87 521 l 87 608 l 174 608 l 174 694 l 260 694 l 260 781 l 347 781 l 347 868 l 434 868 l 521 868 l 521 781 l 521 694 l 434 694 l 347 694 l 347 608 l 260 608 l 260 521 l 347 521 l 434 521 l 521 521 l 521 434 l 608 434 l 608 347 l 608 260 l 608 174 l 521 174 l 521 87 l 434 87 l 434 0 l 347 0 m 260 87 l 347 87 l 347 174 l 434 174 l 434 260 l 434 347 l 347 347 l 347 434 l 260 434 l 260 347 l 174 347 l 174 260 l 87 260 l 87 174 l 174 174 l 174 87 l 260 87 z "},"7":{"ha":694,"x_min":0,"x_max":608,"o":"m 260 -87 l 174 -87 l 174 0 l 174 87 l 174 174 l 260 174 l 260 260 l 260 347 l 347 347 l 347 434 l 347 521 l 434 521 l 434 608 l 434 694 l 347 694 l 347 608 l 260 608 l 260 521 l 174 521 l 87 521 l 87 608 l 0 608 l 0 694 l 0 781 l 87 781 l 174 781 l 174 694 l 260 694 l 260 781 l 347 781 l 434 781 l 434 868 l 521 868 l 608 868 l 608 781 l 608 694 l 608 608 l 521 608 l 521 521 l 521 434 l 434 434 l 434 347 l 434 260 l 347 260 l 347 174 l 434 174 l 434 87 l 434 0 l 347 0 l 347 -87 l 260 -87 z "},"8":{"ha":694,"x_min":0,"x_max":608,"o":"m 347 0 l 260 0 l 174 0 l 87 0 l 87 87 l 0 87 l 0 174 l 0 260 l 0 347 l 87 347 l 87 434 l 174 434 l 174 521 l 87 521 l 87 608 l 87 694 l 87 781 l 174 781 l 174 868 l 260 868 l 347 868 l 434 868 l 434 781 l 521 781 l 521 694 l 521 608 l 434 608 l 434 521 l 434 434 l 521 434 l 521 347 l 608 347 l 608 260 l 608 174 l 521 174 l 521 87 l 434 87 l 434 0 l 347 0 m 260 87 l 347 87 l 347 174 l 434 174 l 434 260 l 434 347 l 347 347 l 347 434 l 260 434 l 260 347 l 174 347 l 174 260 l 174 174 l 174 87 l 260 87 m 260 608 l 347 608 l 347 694 l 347 781 l 260 781 l 260 694 l 174 694 l 174 608 l 260 608 z "},"9":{"ha":608,"x_min":0,"x_max":521,"o":"m 347 -87 l 260 -87 l 260 0 l 174 0 l 174 87 l 174 174 l 174 260 l 260 260 l 260 347 l 260 434 l 174 434 l 87 434 l 87 521 l 0 521 l 0 608 l 0 694 l 87 694 l 87 781 l 174 781 l 174 868 l 260 868 l 347 868 l 434 868 l 434 781 l 347 781 l 260 781 l 260 694 l 174 694 l 174 608 l 174 521 l 260 521 l 260 608 l 347 608 l 347 694 l 434 694 l 434 781 l 521 781 l 521 694 l 521 608 l 521 521 l 434 521 l 434 434 l 434 347 l 347 347 l 347 260 l 347 174 l 347 87 l 434 87 l 434 0 l 434 -87 l 347 -87 z "}," ":{"ha":434,"x_min":0,"x_max":0,"o":""},"!":{"ha":347,"x_min":0,"x_max":260,"o":"m 0 0 l 0 87 l 0 174 l 87 174 l 174 174 l 174 87 l 87 87 l 87 0 l 0 0 m 0 260 l 0 347 l 0 434 l 0 521 l 0 608 l 0 694 l 87 694 l 87 781 l 87 868 l 87 955 l 174 955 l 260 955 l 260 868 l 260 781 l 260 694 l 260 608 l 174 608 l 174 521 l 174 434 l 87 434 l 87 347 l 87 260 l 0 260 z "},"\"":{"ha":521,"x_min":0,"x_max":434,"o":"m 260 521 l 260 608 l 260 694 l 260 781 l 260 868 l 347 868 l 434 868 l 434 781 l 434 694 l 347 694 l 347 608 l 347 521 l 260 521 m 0 521 l 0 608 l 0 694 l 0 781 l 87 781 l 87 868 l 174 868 l 174 781 l 174 694 l 174 608 l 87 608 l 87 521 l 0 521 z "},"#":{"ha":868,"x_min":0,"x_max":781,"o":"m 347 -87 l 347 0 l 347 87 l 347 174 l 260 174 l 260 87 l 260 0 l 174 0 l 174 -87 l 174 -174 l 87 -174 l 0 -174 l 0 -87 l 0 0 l 87 0 l 87 87 l 87 174 l 0 174 l 0 260 l 87 260 l 87 347 l 174 347 l 174 434 l 87 434 l 0 434 l 0 521 l 87 521 l 174 521 l 174 608 l 174 694 l 260 694 l 260 781 l 260 868 l 347 868 l 347 781 l 347 694 l 347 608 l 434 608 l 521 608 l 521 694 l 521 781 l 521 868 l 608 868 l 608 781 l 608 694 l 694 694 l 781 694 l 781 608 l 781 521 l 694 521 l 608 521 l 608 434 l 521 434 l 521 347 l 521 260 l 608 260 l 608 347 l 694 347 l 781 347 l 781 260 l 694 260 l 694 174 l 608 174 l 521 174 l 521 87 l 521 0 l 434 0 l 434 -87 l 347 -87 m 347 260 l 434 260 l 434 347 l 434 434 l 347 434 l 260 434 l 260 347 l 260 260 l 347 260 z "},"$":{"ha":608,"x_min":0,"x_max":521,"o":"m 174 -260 l 174 -174 l 174 -87 l 174 0 l 87 0 l 87 87 l 0 87 l 0 174 l 0 260 l 87 260 l 174 260 l 174 347 l 174 434 l 87 434 l 87 521 l 0 521 l 0 608 l 0 694 l 87 694 l 87 781 l 174 781 l 260 781 l 260 868 l 260 955 l 347 955 l 347 868 l 434 868 l 434 781 l 434 694 l 521 694 l 521 608 l 434 608 l 347 608 l 347 521 l 434 521 l 434 434 l 521 434 l 521 347 l 521 260 l 521 174 l 434 174 l 434 87 l 347 87 l 347 0 l 347 -87 l 347 -174 l 260 -174 l 260 -260 l 174 -260 m 347 260 l 434 260 l 434 347 l 347 347 l 347 434 l 260 434 l 260 347 l 260 260 l 174 260 l 174 174 l 260 174 l 260 260 l 347 260 m 260 521 l 260 608 l 260 694 l 174 694 l 174 608 l 174 521 l 260 521 z "},"%":{"ha":955,"x_min":0,"x_max":868,"o":"m 174 0 l 174 87 l 174 174 l 260 174 l 260 260 l 260 347 l 347 347 l 347 434 l 434 434 l 434 521 l 434 608 l 521 608 l 521 694 l 521 781 l 608 781 l 608 868 l 694 868 l 694 781 l 694 694 l 608 694 l 608 608 l 608 521 l 521 521 l 521 434 l 521 347 l 608 347 l 608 434 l 694 434 l 781 434 l 781 347 l 868 347 l 868 260 l 868 174 l 868 87 l 781 87 l 781 0 l 694 0 l 608 0 l 608 87 l 521 87 l 521 174 l 521 260 l 521 347 l 434 347 l 434 260 l 434 174 l 347 174 l 347 87 l 260 87 l 260 0 l 174 0 m 694 87 l 694 174 l 694 260 l 608 260 l 608 174 l 608 87 l 694 87 m 260 347 l 174 347 l 87 347 l 87 434 l 0 434 l 0 521 l 0 608 l 87 608 l 87 694 l 174 694 l 174 781 l 260 781 l 260 694 l 347 694 l 347 608 l 347 521 l 347 434 l 260 434 l 260 521 l 260 608 l 174 608 l 174 521 l 174 434 l 260 434 l 260 347 z "},"&":{"ha":781,"x_min":0,"x_max":694,"o":"m 608 -87 l 521 -87 l 521 0 l 434 0 l 434 87 l 347 87 l 347 0 l 260 0 l 174 0 l 87 0 l 87 87 l 0 87 l 0 174 l 0 260 l 0 347 l 87 347 l 87 434 l 174 434 l 174 521 l 260 521 l 260 608 l 174 608 l 174 694 l 174 781 l 260 781 l 260 868 l 347 868 l 434 868 l 434 781 l 521 781 l 521 694 l 521 608 l 434 608 l 434 521 l 347 521 l 347 434 l 347 347 l 260 347 l 174 347 l 174 260 l 87 260 l 87 174 l 174 174 l 260 174 l 347 174 l 347 260 l 347 347 l 434 347 l 434 260 l 521 260 l 521 347 l 521 434 l 608 434 l 694 434 l 694 347 l 694 260 l 608 260 l 608 174 l 521 174 l 521 87 l 608 87 l 694 87 l 694 0 l 694 -87 l 608 -87 m 347 608 l 347 694 l 347 781 l 260 781 l 260 694 l 260 608 l 347 608 z "},"'":{"ha":260,"x_min":0,"x_max":174,"o":"m 0 521 l 0 608 l 0 694 l 0 781 l 0 868 l 87 868 l 174 868 l 174 781 l 174 694 l 87 694 l 87 608 l 87 521 l 0 521 z "},"(":{"ha":434,"x_min":0,"x_max":347,"o":"m 174 -260 l 174 -174 l 87 -174 l 87 -87 l 87 0 l 0 0 l 0 87 l 0 174 l 0 260 l 0 347 l 0 434 l 0 521 l 87 521 l 87 434 l 87 347 l 87 260 l 87 174 l 87 87 l 174 87 l 174 0 l 174 -87 l 260 -87 l 260 -174 l 260 -260 l 174 -260 m 87 521 l 87 608 l 87 694 l 174 694 l 174 608 l 174 521 l 87 521 m 174 694 l 174 781 l 260 781 l 260 694 l 174 694 m 260 781 l 260 868 l 347 868 l 347 781 l 260 781 z "},")":{"ha":434,"x_min":0,"x_max":347,"o":"m 87 -260 l 87 -174 l 174 -174 l 174 -260 l 87 -260 m 174 -174 l 174 -87 l 174 0 l 260 0 l 260 -87 l 260 -174 l 174 -174 m 260 0 l 260 87 l 260 174 l 260 260 l 260 347 l 260 434 l 260 521 l 347 521 l 347 434 l 347 347 l 347 260 l 347 174 l 347 87 l 347 0 l 260 0 m 260 521 l 174 521 l 174 608 l 174 694 l 260 694 l 260 608 l 260 521 m 174 694 l 87 694 l 87 781 l 174 781 l 174 694 m 87 781 l 0 781 l 0 868 l 87 868 l 87 781 z "},"*":{"ha":608,"x_min":0,"x_max":521,"o":"m 434 347 l 347 347 l 347 434 l 260 434 l 260 347 l 174 347 l 87 347 l 87 434 l 174 434 l 174 521 l 87 521 l 0 521 l 0 608 l 87 608 l 87 694 l 174 694 l 174 781 l 260 781 l 260 694 l 347 694 l 434 694 l 434 781 l 521 781 l 521 694 l 521 608 l 434 608 l 434 521 l 434 434 l 521 434 l 521 347 l 434 347 z "},"+":{"ha":694,"x_min":0,"x_max":608,"o":"m 174 87 l 174 174 l 174 260 l 87 260 l 0 260 l 0 347 l 87 347 l 87 434 l 174 434 l 260 434 l 260 521 l 260 608 l 347 608 l 347 521 l 347 434 l 434 434 l 521 434 l 608 434 l 608 347 l 521 347 l 434 347 l 434 260 l 347 260 l 347 174 l 260 174 l 260 87 l 174 87 z "},",":{"ha":260,"x_min":0,"x_max":174,"o":"m 0 -174 l 0 -87 l 0 0 l 0 87 l 0 174 l 87 174 l 174 174 l 174 87 l 174 0 l 87 0 l 87 -87 l 87 -174 l 0 -174 z "},"-":{"ha":521,"x_min":0,"x_max":434,"o":"m 87 174 l 0 174 l 0 260 l 0 347 l 87 347 l 174 347 l 260 347 l 260 434 l 347 434 l 434 434 l 434 347 l 434 260 l 347 260 l 260 260 l 174 260 l 174 174 l 87 174 z "},".":{"ha":260,"x_min":0,"x_max":174,"o":"m 87 0 l 0 0 l 0 87 l 0 174 l 87 174 l 174 174 l 174 87 l 174 0 l 87 0 z "},"/":{"ha":521,"x_min":0,"x_max":434,"o":"m 0 -87 l 0 0 l 0 87 l 87 87 l 87 0 l 87 -87 l 0 -87 m 87 87 l 87 174 l 87 260 l 87 347 l 87 434 l 174 434 l 174 521 l 174 608 l 174 694 l 260 694 l 260 781 l 260 868 l 347 868 l 434 868 l 434 781 l 434 694 l 347 694 l 347 608 l 347 521 l 260 521 l 260 434 l 260 347 l 260 260 l 174 260 l 174 174 l 174 87 l 87 87 z "},":":{"ha":260,"x_min":0,"x_max":174,"o":"m 87 0 l 0 0 l 0 87 l 0 174 l 87 174 l 174 174 l 174 87 l 174 0 l 87 0 m 87 347 l 0 347 l 0 434 l 87 434 l 87 521 l 174 521 l 174 434 l 174 347 l 87 347 z "},";":{"ha":260,"x_min":0,"x_max":174,"o":"m 0 -174 l 0 -87 l 87 -87 l 87 -174 l 0 -174 m 0 347 l 0 434 l 0 521 l 87 521 l 87 608 l 174 608 l 174 521 l 174 434 l 87 434 l 87 347 l 0 347 m 87 -87 l 87 0 l 0 0 l 0 87 l 0 174 l 87 174 l 87 260 l 174 260 l 174 174 l 174 87 l 174 0 l 174 -87 l 87 -87 z "},"<":{"ha":694,"x_min":0,"x_max":608,"o":"m 434 174 l 347 174 l 347 260 l 260 260 l 174 260 l 87 260 l 87 347 l 0 347 l 0 434 l 87 434 l 174 434 l 174 521 l 260 521 l 347 521 l 347 608 l 434 608 l 434 694 l 521 694 l 608 694 l 608 608 l 608 521 l 521 521 l 434 521 l 434 434 l 347 434 l 260 434 l 260 347 l 347 347 l 434 347 l 521 347 l 608 347 l 608 260 l 521 260 l 521 174 l 434 174 z "},"=":{"ha":694,"x_min":0,"x_max":608,"o":"m 347 174 l 260 174 l 174 174 l 87 174 l 0 174 l 0 260 l 87 260 l 87 347 l 174 347 l 260 347 l 347 347 l 434 347 l 434 434 l 521 434 l 608 434 l 608 347 l 608 260 l 521 260 l 434 260 l 434 174 l 347 174 m 260 434 l 174 434 l 87 434 l 0 434 l 0 521 l 0 608 l 87 608 l 174 608 l 260 608 l 347 608 l 434 608 l 521 608 l 608 608 l 608 521 l 521 521 l 434 521 l 347 521 l 347 434 l 260 434 z "},">":{"ha":694,"x_min":0,"x_max":608,"o":"m 87 174 l 0 174 l 0 260 l 87 260 l 87 347 l 174 347 l 260 347 l 347 347 l 347 260 l 260 260 l 174 260 l 174 174 l 87 174 m 521 347 l 434 347 l 347 347 l 347 434 l 260 434 l 174 434 l 174 521 l 87 521 l 0 521 l 0 608 l 0 694 l 87 694 l 174 694 l 174 608 l 260 608 l 347 608 l 347 521 l 434 521 l 521 521 l 521 434 l 608 434 l 608 347 l 521 347 z "},"?":{"ha":694,"x_min":0,"x_max":608,"o":"m 174 -87 l 174 0 l 174 87 l 260 87 l 347 87 l 347 0 l 260 0 l 260 -87 l 174 -87 m 260 174 l 174 174 l 174 260 l 87 260 l 87 347 l 87 434 l 174 434 l 174 521 l 260 521 l 347 521 l 347 608 l 434 608 l 434 694 l 434 781 l 347 781 l 260 781 l 260 694 l 174 694 l 174 608 l 87 608 l 0 608 l 0 694 l 0 781 l 87 781 l 174 781 l 174 868 l 260 868 l 347 868 l 434 868 l 521 868 l 521 781 l 608 781 l 608 694 l 608 608 l 521 608 l 521 521 l 434 521 l 434 434 l 347 434 l 260 434 l 260 347 l 347 347 l 347 260 l 347 174 l 260 174 z "},"@":{"ha":1042,"x_min":0,"x_max":955,"o":"m 347 -174 l 260 -174 l 174 -174 l 174 -87 l 87 -87 l 87 0 l 0 0 l 0 87 l 0 174 l 0 260 l 0 347 l 0 434 l 87 434 l 87 347 l 87 260 l 87 174 l 87 87 l 174 87 l 174 0 l 260 0 l 347 0 l 434 0 l 521 0 l 521 -87 l 434 -87 l 434 -174 l 347 -174 m 694 87 l 608 87 l 521 87 l 521 174 l 434 174 l 434 260 l 521 260 l 521 347 l 521 434 l 434 434 l 434 347 l 347 347 l 347 260 l 347 174 l 434 174 l 434 87 l 347 87 l 260 87 l 260 174 l 174 174 l 174 260 l 174 347 l 260 347 l 260 434 l 347 434 l 347 521 l 434 521 l 521 521 l 608 521 l 608 434 l 608 347 l 608 260 l 608 174 l 694 174 l 694 260 l 781 260 l 781 347 l 781 434 l 781 521 l 781 608 l 694 608 l 694 694 l 608 694 l 608 781 l 521 781 l 434 781 l 347 781 l 347 694 l 260 694 l 260 608 l 174 608 l 174 521 l 174 434 l 87 434 l 87 521 l 87 608 l 174 608 l 174 694 l 260 694 l 260 781 l 347 781 l 347 868 l 434 868 l 521 868 l 608 868 l 694 868 l 694 781 l 781 781 l 781 694 l 868 694 l 868 608 l 955 608 l 955 521 l 955 434 l 955 347 l 955 260 l 868 260 l 868 174 l 781 174 l 781 87 l 694 87 z "},"A":{"ha":955,"x_min":0,"x_max":868,"o":"m 694 -87 l 608 -87 l 608 0 l 608 87 l 608 174 l 608 260 l 608 347 l 521 347 l 521 434 l 434 434 l 347 434 l 347 347 l 260 347 l 260 260 l 260 174 l 260 87 l 260 0 l 174 0 l 174 -87 l 87 -87 l 0 -87 l 0 0 l 0 87 l 0 174 l 87 174 l 87 260 l 87 347 l 0 347 l 0 434 l 87 434 l 87 521 l 87 608 l 87 694 l 87 781 l 174 781 l 174 868 l 260 868 l 347 868 l 434 868 l 434 781 l 521 781 l 521 694 l 608 694 l 608 608 l 694 608 l 781 608 l 868 608 l 868 521 l 868 434 l 781 434 l 694 434 l 694 347 l 781 347 l 781 260 l 781 174 l 868 174 l 868 87 l 868 0 l 781 0 l 781 -87 l 694 -87 m 347 521 l 434 521 l 434 608 l 434 694 l 347 694 l 260 694 l 260 608 l 260 521 l 347 521 z "},"B":{"ha":781,"x_min":0,"x_max":694,"o":"m 434 -87 l 347 -87 l 260 -87 l 174 -87 l 87 -87 l 87 0 l 0 0 l 0 87 l 0 174 l 0 260 l 87 260 l 87 347 l 87 434 l 87 521 l 87 608 l 87 694 l 0 694 l 0 781 l 0 868 l 87 868 l 174 868 l 174 781 l 260 781 l 260 868 l 347 868 l 434 868 l 434 781 l 521 781 l 521 694 l 521 608 l 434 608 l 434 521 l 434 434 l 521 434 l 608 434 l 608 347 l 694 347 l 694 260 l 694 174 l 694 87 l 608 87 l 608 0 l 521 0 l 521 -87 l 434 -87 m 347 0 l 434 0 l 434 87 l 521 87 l 521 174 l 521 260 l 434 260 l 434 347 l 347 347 l 260 347 l 174 347 l 174 260 l 174 174 l 174 87 l 260 87 l 260 0 l 347 0 m 260 521 l 347 521 l 347 608 l 347 694 l 260 694 l 260 608 l 174 608 l 174 521 l 260 521 z "},"C":{"ha":781,"x_min":0,"x_max":694,"o":"m 434 -87 l 347 -87 l 260 -87 l 260 0 l 174 0 l 174 87 l 87 87 l 87 174 l 87 260 l 0 260 l 0 347 l 0 434 l 0 521 l 0 608 l 87 608 l 87 694 l 87 781 l 174 781 l 174 868 l 260 868 l 347 868 l 434 868 l 434 781 l 521 781 l 521 694 l 521 608 l 434 608 l 347 608 l 347 694 l 260 694 l 260 608 l 174 608 l 174 521 l 174 434 l 174 347 l 174 260 l 174 174 l 260 174 l 260 87 l 347 87 l 434 87 l 521 87 l 521 174 l 521 260 l 521 347 l 608 347 l 694 347 l 694 260 l 694 174 l 694 87 l 608 87 l 608 0 l 521 0 l 521 -87 l 434 -87 z "},"D":{"ha":694,"x_min":0,"x_max":608,"o":"m 347 0 l 260 0 l 174 0 l 87 0 l 87 87 l 0 87 l 0 174 l 0 260 l 0 347 l 87 347 l 87 434 l 87 521 l 87 608 l 0 608 l 0 694 l 0 781 l 0 868 l 87 868 l 174 868 l 174 781 l 260 781 l 260 868 l 347 868 l 434 868 l 434 781 l 521 781 l 521 694 l 608 694 l 608 608 l 608 521 l 608 434 l 608 347 l 608 260 l 608 174 l 521 174 l 521 87 l 434 87 l 434 0 l 347 0 m 260 174 l 347 174 l 347 260 l 434 260 l 434 347 l 434 434 l 434 521 l 434 608 l 434 694 l 347 694 l 260 694 l 260 608 l 260 521 l 174 521 l 174 434 l 174 347 l 174 260 l 174 174 l 260 174 z "},"E":{"ha":781,"x_min":0,"x_max":694,"o":"m 608 -87 l 521 -87 l 521 0 l 434 0 l 434 87 l 347 87 l 260 87 l 174 87 l 174 0 l 87 0 l 0 0 l 0 87 l 0 174 l 87 174 l 87 260 l 87 347 l 87 434 l 0 434 l 0 521 l 87 521 l 87 608 l 87 694 l 0 694 l 0 781 l 0 868 l 0 955 l 87 955 l 174 955 l 174 868 l 260 868 l 260 781 l 347 781 l 434 781 l 434 868 l 521 868 l 608 868 l 694 868 l 694 781 l 694 694 l 608 694 l 608 608 l 521 608 l 434 608 l 347 608 l 260 608 l 260 521 l 347 521 l 434 521 l 521 521 l 521 434 l 521 347 l 434 347 l 347 347 l 260 347 l 260 260 l 260 174 l 347 174 l 434 174 l 521 174 l 608 174 l 608 87 l 694 87 l 694 0 l 694 -87 l 608 -87 z "},"F":{"ha":781,"x_min":0,"x_max":694,"o":"m 174 -87 l 87 -87 l 87 0 l 87 87 l 174 87 l 174 174 l 174 260 l 174 347 l 87 347 l 0 347 l 0 434 l 87 434 l 87 521 l 87 608 l 0 608 l 0 694 l 0 781 l 0 868 l 87 868 l 174 868 l 174 781 l 260 781 l 260 868 l 347 868 l 434 868 l 521 868 l 521 955 l 608 955 l 694 955 l 694 868 l 694 781 l 608 781 l 608 694 l 521 694 l 434 694 l 347 694 l 260 694 l 260 608 l 260 521 l 347 521 l 434 521 l 521 521 l 608 521 l 608 434 l 608 347 l 521 347 l 434 347 l 434 434 l 347 434 l 260 434 l 260 347 l 260 260 l 347 260 l 347 174 l 347 87 l 347 0 l 260 0 l 260 -87 l 174 -87 z "},"G":{"ha":781,"x_min":0,"x_max":694,"o":"m 521 -347 l 434 -347 l 434 -260 l 347 -260 l 347 -174 l 434 -174 l 434 -87 l 347 -87 l 260 -87 l 174 -87 l 174 0 l 87 0 l 87 87 l 0 87 l 0 174 l 0 260 l 0 347 l 0 434 l 0 521 l 87 521 l 87 608 l 87 694 l 174 694 l 174 781 l 260 781 l 260 868 l 347 868 l 347 955 l 434 955 l 521 955 l 608 955 l 608 868 l 694 868 l 694 781 l 694 694 l 608 694 l 521 694 l 521 781 l 521 868 l 434 868 l 434 781 l 347 781 l 347 694 l 260 694 l 260 608 l 260 521 l 174 521 l 174 434 l 174 347 l 174 260 l 174 174 l 260 174 l 260 87 l 347 87 l 434 87 l 434 174 l 521 174 l 521 260 l 434 260 l 347 260 l 347 347 l 347 434 l 434 434 l 521 434 l 608 434 l 608 347 l 694 347 l 694 260 l 694 174 l 694 87 l 694 0 l 694 -87 l 694 -174 l 694 -260 l 608 -260 l 608 -347 l 521 -347 m 521 -87 l 521 0 l 434 0 l 434 -87 l 521 -87 z "},"H":{"ha":781,"x_min":0,"x_max":694,"o":"m 608 -260 l 521 -260 l 521 -174 l 434 -174 l 434 -87 l 434 0 l 434 87 l 434 174 l 434 260 l 434 347 l 347 347 l 260 347 l 260 260 l 260 174 l 260 87 l 260 0 l 260 -87 l 174 -87 l 174 -174 l 87 -174 l 0 -174 l 0 -87 l 0 0 l 87 0 l 87 87 l 87 174 l 87 260 l 87 347 l 0 347 l 0 434 l 87 434 l 87 521 l 87 608 l 87 694 l 0 694 l 0 781 l 0 868 l 0 955 l 87 955 l 174 955 l 174 868 l 174 781 l 174 694 l 174 608 l 174 521 l 260 521 l 347 521 l 347 608 l 347 694 l 347 781 l 347 868 l 434 868 l 521 868 l 521 781 l 521 694 l 521 608 l 608 608 l 694 608 l 694 521 l 694 434 l 608 434 l 521 434 l 521 347 l 521 260 l 521 174 l 608 174 l 608 87 l 608 0 l 694 0 l 694 -87 l 694 -174 l 694 -260 l 608 -260 z "},"I":{"ha":347,"x_min":0,"x_max":260,"o":"m 174 -87 l 87 -87 l 87 0 l 0 0 l 0 87 l 0 174 l 0 260 l 0 347 l 87 347 l 87 434 l 87 521 l 87 608 l 87 694 l 0 694 l 0 781 l 0 868 l 87 868 l 174 868 l 174 781 l 260 781 l 260 694 l 260 608 l 260 521 l 260 434 l 174 434 l 174 347 l 174 260 l 174 174 l 260 174 l 260 87 l 260 0 l 260 -87 l 174 -87 z "},"J":{"ha":868,"x_min":0,"x_max":781,"o":"m 347 -87 l 260 -87 l 174 -87 l 87 -87 l 87 0 l 0 0 l 0 87 l 0 174 l 87 174 l 87 260 l 174 260 l 260 260 l 260 174 l 260 87 l 347 87 l 434 87 l 434 174 l 521 174 l 521 260 l 521 347 l 434 347 l 434 434 l 347 434 l 347 521 l 260 521 l 260 434 l 174 434 l 87 434 l 0 434 l 0 521 l 0 608 l 87 608 l 174 608 l 174 694 l 260 694 l 260 781 l 347 781 l 347 868 l 434 868 l 521 868 l 608 868 l 694 868 l 694 781 l 781 781 l 781 694 l 781 608 l 694 608 l 608 608 l 521 608 l 521 694 l 434 694 l 434 608 l 434 521 l 521 521 l 521 434 l 608 434 l 608 347 l 608 260 l 608 174 l 608 87 l 521 87 l 521 0 l 434 0 l 434 -87 l 347 -87 z "},"K":{"ha":781,"x_min":0,"x_max":694,"o":"m 87 0 l 87 87 l 87 174 l 87 260 l 87 347 l 87 434 l 87 521 l 87 608 l 87 694 l 0 694 l 0 781 l 0 868 l 0 955 l 87 955 l 174 955 l 174 868 l 260 868 l 260 781 l 260 694 l 260 608 l 347 608 l 347 694 l 434 694 l 434 781 l 434 868 l 521 868 l 608 868 l 608 781 l 608 694 l 521 694 l 521 608 l 521 521 l 434 521 l 347 521 l 347 434 l 347 347 l 434 347 l 434 260 l 521 260 l 608 260 l 694 260 l 694 174 l 694 87 l 608 87 l 608 0 l 521 0 l 434 0 l 434 87 l 347 87 l 347 174 l 347 260 l 260 260 l 260 174 l 260 87 l 174 87 l 174 0 l 87 0 z "},"L":{"ha":781,"x_min":0,"x_max":694,"o":"m 521 -87 l 434 -87 l 347 -87 l 347 0 l 260 0 l 174 0 l 87 0 l 0 0 l 0 87 l 0 174 l 87 174 l 87 260 l 87 347 l 174 347 l 174 434 l 174 521 l 174 608 l 87 608 l 87 694 l 0 694 l 0 781 l 0 868 l 87 868 l 174 868 l 260 868 l 260 781 l 347 781 l 347 694 l 347 608 l 347 521 l 347 434 l 347 347 l 260 347 l 260 260 l 260 174 l 347 174 l 347 87 l 434 87 l 521 87 l 521 174 l 608 174 l 694 174 l 694 87 l 694 0 l 608 0 l 608 -87 l 521 -87 z "},"M":{"ha":781,"x_min":0,"x_max":694,"o":"m 521 -260 l 434 -260 l 434 -174 l 434 -87 l 521 -87 l 521 0 l 521 87 l 521 174 l 521 260 l 521 347 l 521 434 l 521 521 l 434 521 l 434 434 l 434 347 l 434 260 l 434 174 l 347 174 l 260 174 l 260 260 l 260 347 l 260 434 l 174 434 l 174 347 l 174 260 l 174 174 l 174 87 l 260 87 l 260 0 l 260 -87 l 174 -87 l 87 -87 l 87 0 l 0 0 l 0 87 l 0 174 l 0 260 l 0 347 l 0 434 l 87 434 l 87 521 l 87 608 l 87 694 l 0 694 l 0 781 l 0 868 l 87 868 l 174 868 l 174 781 l 260 781 l 260 694 l 260 608 l 260 521 l 347 521 l 347 608 l 347 694 l 347 781 l 434 781 l 434 868 l 434 955 l 521 955 l 608 955 l 608 868 l 608 781 l 608 694 l 608 608 l 608 521 l 608 434 l 608 347 l 694 347 l 694 260 l 694 174 l 694 87 l 694 0 l 694 -87 l 694 -174 l 608 -174 l 608 -260 l 521 -260 z "},"N":{"ha":694,"x_min":0,"x_max":608,"o":"m 87 -87 l 87 0 l 0 0 l 0 87 l 0 174 l 0 260 l 0 347 l 0 434 l 0 521 l 0 608 l 0 694 l 87 694 l 87 781 l 174 781 l 174 694 l 260 694 l 260 608 l 260 521 l 347 521 l 347 434 l 347 347 l 434 347 l 434 434 l 434 521 l 434 608 l 434 694 l 347 694 l 347 781 l 347 868 l 434 868 l 434 955 l 521 955 l 521 868 l 608 868 l 608 781 l 608 694 l 608 608 l 608 521 l 608 434 l 608 347 l 521 347 l 521 260 l 521 174 l 521 87 l 521 0 l 434 0 l 347 0 l 347 87 l 347 174 l 260 174 l 260 260 l 260 347 l 260 434 l 174 434 l 174 347 l 174 260 l 174 174 l 174 87 l 174 0 l 174 -87 l 87 -87 z "},"O":{"ha":781,"x_min":0,"x_max":694,"o":"m 434 -87 l 347 -87 l 260 -87 l 174 -87 l 174 0 l 87 0 l 87 87 l 0 87 l 0 174 l 0 260 l 0 347 l 0 434 l 0 521 l 87 521 l 87 608 l 87 694 l 174 694 l 174 781 l 260 781 l 347 781 l 434 781 l 434 694 l 521 694 l 521 608 l 608 608 l 608 521 l 608 434 l 694 434 l 694 347 l 694 260 l 694 174 l 694 87 l 608 87 l 608 0 l 521 0 l 521 -87 l 434 -87 m 347 87 l 434 87 l 434 174 l 521 174 l 521 260 l 521 347 l 521 434 l 434 434 l 434 521 l 434 608 l 347 608 l 347 694 l 260 694 l 260 608 l 260 521 l 174 521 l 174 434 l 174 347 l 174 260 l 174 174 l 260 174 l 260 87 l 347 87 z "},"P":{"ha":781,"x_min":0,"x_max":694,"o":"m 87 -174 l 0 -174 l 0 -87 l 0 0 l 0 87 l 87 87 l 87 174 l 87 260 l 87 347 l 87 434 l 87 521 l 87 608 l 0 608 l 0 694 l 0 781 l 0 868 l 87 868 l 174 868 l 174 781 l 174 694 l 260 694 l 260 781 l 347 781 l 347 868 l 434 868 l 521 868 l 608 868 l 608 781 l 694 781 l 694 694 l 694 608 l 694 521 l 694 434 l 608 434 l 608 347 l 521 347 l 434 347 l 347 347 l 260 347 l 260 260 l 260 174 l 260 87 l 260 0 l 260 -87 l 174 -87 l 174 -174 l 87 -174 m 347 434 l 434 434 l 434 521 l 521 521 l 521 608 l 521 694 l 434 694 l 347 694 l 347 608 l 260 608 l 260 521 l 260 434 l 347 434 z "},"Q":{"ha":781,"x_min":0,"x_max":694,"o":"m 521 -260 l 521 -174 l 434 -174 l 434 -87 l 434 0 l 347 0 l 260 0 l 174 0 l 174 87 l 87 87 l 87 174 l 0 174 l 0 260 l 0 347 l 0 434 l 0 521 l 0 608 l 87 608 l 87 694 l 174 694 l 174 781 l 260 781 l 260 868 l 347 868 l 434 868 l 521 868 l 521 781 l 608 781 l 608 694 l 694 694 l 694 608 l 694 521 l 694 434 l 694 347 l 608 347 l 608 260 l 608 174 l 521 174 l 521 87 l 521 0 l 608 0 l 694 0 l 694 -87 l 694 -174 l 608 -174 l 608 -260 l 521 -260 m 347 174 l 347 260 l 260 260 l 260 347 l 260 434 l 347 434 l 434 434 l 434 347 l 434 260 l 521 260 l 521 347 l 521 434 l 521 521 l 521 608 l 521 694 l 434 694 l 434 781 l 347 781 l 347 694 l 260 694 l 260 608 l 174 608 l 174 521 l 174 434 l 174 347 l 174 260 l 260 260 l 260 174 l 347 174 z "},"R":{"ha":868,"x_min":0,"x_max":781,"o":"m 87 -87 l 0 -87 l 0 0 l 0 87 l 87 87 l 87 174 l 87 260 l 87 347 l 87 434 l 87 521 l 87 608 l 87 694 l 0 694 l 0 781 l 0 868 l 87 868 l 174 868 l 174 781 l 260 781 l 347 781 l 347 868 l 434 868 l 521 868 l 521 781 l 608 781 l 608 694 l 608 608 l 608 521 l 521 521 l 521 434 l 434 434 l 347 434 l 347 347 l 347 260 l 434 260 l 434 174 l 521 174 l 608 174 l 608 260 l 694 260 l 781 260 l 781 174 l 781 87 l 694 87 l 694 0 l 608 0 l 521 0 l 434 0 l 434 87 l 347 87 l 347 174 l 260 174 l 260 87 l 260 0 l 174 0 l 174 -87 l 87 -87 m 347 521 l 434 521 l 434 608 l 434 694 l 347 694 l 260 694 l 260 608 l 260 521 l 347 521 z "},"S":{"ha":781,"x_min":0,"x_max":694,"o":"m 347 -87 l 260 -87 l 174 -87 l 174 0 l 87 0 l 87 87 l 87 174 l 174 174 l 260 174 l 260 87 l 347 87 l 434 87 l 434 174 l 521 174 l 521 260 l 521 347 l 434 347 l 347 347 l 260 347 l 260 434 l 174 434 l 87 434 l 87 521 l 0 521 l 0 608 l 0 694 l 87 694 l 87 781 l 174 781 l 260 781 l 260 868 l 347 868 l 434 868 l 521 868 l 608 868 l 608 781 l 694 781 l 694 694 l 608 694 l 608 608 l 521 608 l 434 608 l 434 694 l 347 694 l 260 694 l 260 608 l 174 608 l 174 521 l 260 521 l 347 521 l 434 521 l 521 521 l 521 434 l 608 434 l 608 347 l 694 347 l 694 260 l 694 174 l 608 174 l 608 87 l 521 87 l 521 0 l 434 0 l 434 -87 l 347 -87 z "},"T":{"ha":868,"x_min":0,"x_max":781,"o":"m 260 -87 l 174 -87 l 174 0 l 174 87 l 260 87 l 260 174 l 260 260 l 260 347 l 260 434 l 260 521 l 260 608 l 260 694 l 174 694 l 174 608 l 87 608 l 0 608 l 0 694 l 0 781 l 87 781 l 174 781 l 174 868 l 260 868 l 347 868 l 434 868 l 434 955 l 521 955 l 608 955 l 694 955 l 694 868 l 781 868 l 781 781 l 781 694 l 694 694 l 608 694 l 608 781 l 521 781 l 434 781 l 434 694 l 347 694 l 347 608 l 347 521 l 434 521 l 434 434 l 434 347 l 434 260 l 434 174 l 434 87 l 434 0 l 347 0 l 347 -87 l 260 -87 z "},"U":{"ha":694,"x_min":0,"x_max":608,"o":"m 347 0 l 260 0 l 174 0 l 174 87 l 87 87 l 87 174 l 87 260 l 0 260 l 0 347 l 0 434 l 0 521 l 0 608 l 0 694 l 0 781 l 87 781 l 87 868 l 174 868 l 174 781 l 174 694 l 174 608 l 174 521 l 174 434 l 174 347 l 174 260 l 260 260 l 260 174 l 347 174 l 347 260 l 434 260 l 434 347 l 434 434 l 434 521 l 347 521 l 347 608 l 347 694 l 434 694 l 521 694 l 521 608 l 608 608 l 608 521 l 608 434 l 608 347 l 608 260 l 521 260 l 521 174 l 521 87 l 434 87 l 434 0 l 347 0 z "},"V":{"ha":781,"x_min":0,"x_max":694,"o":"m 260 -87 l 260 0 l 260 87 l 260 174 l 260 260 l 174 260 l 174 347 l 174 434 l 174 521 l 87 521 l 87 608 l 87 694 l 0 694 l 0 781 l 0 868 l 87 868 l 174 868 l 174 781 l 260 781 l 260 694 l 260 608 l 260 521 l 347 521 l 434 521 l 434 608 l 434 694 l 521 694 l 521 781 l 608 781 l 694 781 l 694 694 l 694 608 l 608 608 l 608 521 l 521 521 l 521 434 l 521 347 l 434 347 l 434 260 l 434 174 l 434 87 l 434 0 l 347 0 l 347 -87 l 260 -87 z "},"W":{"ha":781,"x_min":0,"x_max":694,"o":"m 434 -87 l 434 0 l 434 87 l 347 87 l 260 87 l 260 0 l 260 -87 l 174 -87 l 87 -87 l 87 0 l 87 87 l 87 174 l 0 174 l 0 260 l 0 347 l 0 434 l 0 521 l 0 608 l 0 694 l 0 781 l 87 781 l 87 868 l 174 868 l 260 868 l 260 781 l 260 694 l 260 608 l 174 608 l 174 521 l 174 434 l 174 347 l 174 260 l 174 174 l 260 174 l 260 260 l 260 347 l 347 347 l 347 434 l 434 434 l 434 347 l 434 260 l 521 260 l 521 347 l 521 434 l 521 521 l 434 521 l 434 608 l 434 694 l 521 694 l 608 694 l 608 608 l 694 608 l 694 521 l 694 434 l 694 347 l 694 260 l 608 260 l 608 174 l 608 87 l 608 0 l 521 0 l 521 -87 l 434 -87 z "},"X":{"ha":694,"x_min":0,"x_max":608,"o":"m 521 -174 l 434 -174 l 434 -87 l 347 -87 l 347 0 l 347 87 l 347 174 l 260 174 l 260 87 l 174 87 l 174 0 l 87 0 l 0 0 l 0 87 l 0 174 l 87 174 l 87 260 l 174 260 l 174 347 l 260 347 l 260 434 l 174 434 l 174 521 l 174 608 l 87 608 l 87 694 l 0 694 l 0 781 l 0 868 l 87 868 l 174 868 l 174 781 l 260 781 l 260 694 l 260 608 l 347 608 l 434 608 l 434 694 l 434 781 l 434 868 l 521 868 l 521 781 l 608 781 l 608 694 l 608 608 l 608 521 l 521 521 l 521 434 l 434 434 l 434 347 l 434 260 l 521 260 l 521 174 l 521 87 l 521 0 l 608 0 l 608 -87 l 608 -174 l 521 -174 z "},"Y":{"ha":781,"x_min":0,"x_max":694,"o":"m 260 -174 l 174 -174 l 174 -87 l 174 0 l 260 0 l 260 87 l 260 174 l 260 260 l 260 347 l 174 347 l 174 434 l 174 521 l 87 521 l 87 608 l 87 694 l 0 694 l 0 781 l 0 868 l 87 868 l 174 868 l 174 781 l 174 694 l 260 694 l 260 608 l 347 608 l 347 694 l 434 694 l 434 781 l 434 868 l 521 868 l 521 955 l 608 955 l 608 868 l 694 868 l 694 781 l 694 694 l 608 694 l 608 608 l 521 608 l 521 521 l 434 521 l 434 434 l 347 434 l 347 347 l 347 260 l 434 260 l 434 174 l 434 87 l 434 0 l 434 -87 l 347 -87 l 347 -174 l 260 -174 z "},"Z":{"ha":868,"x_min":0,"x_max":781,"o":"m 694 -87 l 608 -87 l 521 -87 l 521 0 l 434 0 l 347 0 l 260 0 l 174 0 l 174 -87 l 87 -87 l 0 -87 l 0 0 l 0 87 l 87 87 l 87 174 l 174 174 l 174 260 l 260 260 l 260 347 l 347 347 l 347 434 l 347 521 l 434 521 l 434 608 l 521 608 l 521 694 l 521 781 l 434 781 l 434 694 l 347 694 l 347 608 l 260 608 l 174 608 l 87 608 l 87 694 l 0 694 l 0 781 l 0 868 l 87 868 l 174 868 l 174 781 l 260 781 l 260 868 l 347 868 l 434 868 l 434 955 l 521 955 l 608 955 l 694 955 l 694 868 l 694 781 l 694 694 l 694 608 l 608 608 l 608 521 l 608 434 l 521 434 l 521 347 l 434 347 l 434 260 l 347 260 l 347 174 l 434 174 l 521 174 l 608 174 l 694 174 l 694 87 l 781 87 l 781 0 l 781 -87 l 694 -87 z "},"[":{"ha":434,"x_min":0,"x_max":347,"o":"m 87 -260 l 0 -260 l 0 -174 l 0 -87 l 0 0 l 0 87 l 0 174 l 0 260 l 0 347 l 0 434 l 0 521 l 0 608 l 0 694 l 0 781 l 87 781 l 174 781 l 174 868 l 260 868 l 347 868 l 347 781 l 347 694 l 260 694 l 174 694 l 174 608 l 87 608 l 87 521 l 87 434 l 87 347 l 87 260 l 87 174 l 87 87 l 87 0 l 87 -87 l 174 -87 l 174 0 l 260 0 l 347 0 l 347 -87 l 347 -174 l 260 -174 l 174 -174 l 174 -260 l 87 -260 z "},"\\":{"ha":521,"x_min":0,"x_max":434,"o":"m 347 -174 l 260 -174 l 260 -87 l 260 0 l 174 0 l 174 87 l 174 174 l 174 260 l 87 260 l 87 347 l 87 434 l 87 521 l 87 608 l 0 608 l 0 694 l 0 781 l 0 868 l 87 868 l 174 868 l 174 781 l 174 694 l 174 608 l 174 521 l 174 434 l 174 347 l 260 347 l 260 260 l 260 174 l 260 87 l 347 87 l 347 0 l 434 0 l 434 -87 l 434 -174 l 347 -174 z "},"]":{"ha":521,"x_min":0,"x_max":434,"o":"m 260 -174 l 174 -174 l 174 -87 l 87 -87 l 0 -87 l 0 0 l 0 87 l 87 87 l 174 87 l 174 0 l 260 0 l 260 87 l 260 174 l 260 260 l 260 347 l 260 434 l 347 434 l 347 347 l 347 260 l 347 174 l 347 87 l 347 0 l 347 -87 l 347 -174 l 260 -174 m 347 434 l 347 521 l 347 608 l 347 694 l 260 694 l 260 608 l 174 608 l 87 608 l 87 694 l 87 781 l 174 781 l 260 781 l 260 868 l 347 868 l 434 868 l 434 781 l 434 694 l 434 608 l 434 521 l 434 434 l 347 434 z "},"^":{"ha":608,"x_min":0,"x_max":521,"o":"m 434 521 l 347 521 l 347 608 l 347 694 l 260 694 l 260 608 l 174 608 l 174 521 l 87 521 l 0 521 l 0 608 l 87 608 l 87 694 l 174 694 l 174 781 l 260 781 l 260 868 l 347 868 l 347 781 l 434 781 l 434 694 l 521 694 l 521 608 l 521 521 l 434 521 z "},"_":{"ha":868,"x_min":0,"x_max":781,"o":"m 694 -174 l 608 -174 l 521 -174 l 521 -87 l 434 -87 l 347 -87 l 260 -87 l 174 -87 l 174 -174 l 87 -174 l 0 -174 l 0 -87 l 87 -87 l 87 0 l 174 0 l 260 0 l 347 0 l 434 0 l 521 0 l 608 0 l 694 0 l 694 -87 l 781 -87 l 781 -174 l 694 -174 z "},"`":{"ha":347,"x_min":0,"x_max":260,"o":"m 174 608 l 174 694 l 87 694 l 87 781 l 0 781 l 0 868 l 87 868 l 174 868 l 174 781 l 260 781 l 260 694 l 260 608 l 174 608 z "},"a":{"ha":694,"x_min":0,"x_max":608,"o":"m 521 -87 l 434 -87 l 434 0 l 347 0 l 260 0 l 174 0 l 87 0 l 87 87 l 0 87 l 0 174 l 0 260 l 87 260 l 87 347 l 174 347 l 260 347 l 347 347 l 434 347 l 434 434 l 434 521 l 347 521 l 260 521 l 260 434 l 174 434 l 87 434 l 87 521 l 87 608 l 174 608 l 174 694 l 260 694 l 347 694 l 434 694 l 434 608 l 521 608 l 521 521 l 608 521 l 608 434 l 608 347 l 608 260 l 521 260 l 521 174 l 521 87 l 608 87 l 608 0 l 608 -87 l 521 -87 m 347 87 l 347 174 l 347 260 l 260 260 l 174 260 l 174 174 l 260 174 l 260 87 l 347 87 z "},"b":{"ha":694,"x_min":0,"x_max":608,"o":"m 434 0 l 347 0 l 260 0 l 174 0 l 87 0 l 0 0 l 0 87 l 0 174 l 87 174 l 87 260 l 87 347 l 87 434 l 87 521 l 87 608 l 87 694 l 0 694 l 0 781 l 0 868 l 87 868 l 174 868 l 174 781 l 260 781 l 260 694 l 260 608 l 260 521 l 260 434 l 347 434 l 434 434 l 521 434 l 521 347 l 608 347 l 608 260 l 608 174 l 608 87 l 521 87 l 521 0 l 434 0 m 260 87 l 347 87 l 347 174 l 434 174 l 434 260 l 434 347 l 347 347 l 260 347 l 260 260 l 174 260 l 174 174 l 174 87 l 260 87 z "},"c":{"ha":694,"x_min":0,"x_max":608,"o":"m 434 0 l 347 0 l 260 0 l 174 0 l 174 87 l 87 87 l 87 174 l 0 174 l 0 260 l 0 347 l 0 434 l 87 434 l 87 521 l 174 521 l 174 608 l 260 608 l 347 608 l 434 608 l 434 521 l 521 521 l 521 434 l 521 347 l 434 347 l 347 347 l 347 434 l 260 434 l 174 434 l 174 347 l 174 260 l 174 174 l 260 174 l 260 87 l 347 87 l 347 174 l 434 174 l 434 260 l 521 260 l 608 260 l 608 174 l 608 87 l 521 87 l 521 0 l 434 0 z "},"d":{"ha":694,"x_min":0,"x_max":608,"o":"m 521 0 l 434 0 l 434 87 l 347 87 l 347 0 l 260 0 l 174 0 l 87 0 l 87 87 l 0 87 l 0 174 l 0 260 l 0 347 l 0 434 l 87 434 l 87 521 l 174 521 l 260 521 l 347 521 l 347 608 l 347 694 l 347 781 l 347 868 l 434 868 l 434 955 l 521 955 l 608 955 l 608 868 l 608 781 l 521 781 l 521 694 l 434 694 l 434 608 l 434 521 l 434 434 l 434 347 l 434 260 l 521 260 l 521 174 l 608 174 l 608 87 l 608 0 l 521 0 m 260 174 l 347 174 l 347 260 l 347 347 l 260 347 l 260 434 l 174 434 l 174 347 l 174 260 l 174 174 l 260 174 z "},"e":{"ha":694,"x_min":0,"x_max":608,"o":"m 434 0 l 347 0 l 260 0 l 174 0 l 174 87 l 87 87 l 87 174 l 0 174 l 0 260 l 0 347 l 0 434 l 87 434 l 87 521 l 174 521 l 174 608 l 260 608 l 347 608 l 434 608 l 434 521 l 521 521 l 521 434 l 521 347 l 434 347 l 434 260 l 347 260 l 260 260 l 174 260 l 174 174 l 260 174 l 260 87 l 347 87 l 347 174 l 434 174 l 434 260 l 521 260 l 608 260 l 608 174 l 608 87 l 521 87 l 521 0 l 434 0 m 260 347 l 347 347 l 347 434 l 347 521 l 260 521 l 260 434 l 174 434 l 174 347 l 260 347 z "},"f":{"ha":608,"x_min":-87,"x_max":521,"o":"m 87 -174 l 0 -174 l 0 -87 l 0 0 l 87 0 l 87 87 l 174 87 l 174 174 l 174 260 l 87 260 l 0 260 l -87 260 l -87 347 l 0 347 l 0 434 l 87 434 l 87 521 l 0 521 l 0 608 l 0 694 l 0 781 l 87 781 l 87 868 l 174 868 l 260 868 l 347 868 l 347 781 l 434 781 l 434 694 l 434 608 l 434 521 l 347 521 l 260 521 l 260 608 l 260 694 l 174 694 l 174 608 l 174 521 l 174 434 l 260 434 l 347 434 l 434 434 l 434 347 l 521 347 l 521 260 l 521 174 l 434 174 l 347 174 l 347 260 l 260 260 l 260 174 l 260 87 l 260 0 l 260 -87 l 174 -87 l 174 -174 l 87 -174 z "},"g":{"ha":781,"x_min":0,"x_max":694,"o":"m 434 -347 l 347 -347 l 260 -347 l 260 -260 l 174 -260 l 174 -174 l 87 -174 l 87 -87 l 87 0 l 174 0 l 174 87 l 87 87 l 87 174 l 0 174 l 0 260 l 0 347 l 87 347 l 87 434 l 174 434 l 174 521 l 260 521 l 260 608 l 347 608 l 434 608 l 434 694 l 521 694 l 521 781 l 608 781 l 694 781 l 694 694 l 694 608 l 608 608 l 521 608 l 521 521 l 608 521 l 608 434 l 608 347 l 521 347 l 521 260 l 521 174 l 434 174 l 434 87 l 521 87 l 608 87 l 694 87 l 694 0 l 694 -87 l 694 -174 l 608 -174 l 608 -260 l 521 -260 l 521 -347 l 434 -347 m 434 -174 l 521 -174 l 521 -87 l 521 0 l 434 0 l 347 0 l 347 -87 l 260 -87 l 260 -174 l 347 -174 l 434 -174 m 260 174 l 347 174 l 347 260 l 434 260 l 434 347 l 434 434 l 347 434 l 260 434 l 260 347 l 174 347 l 174 260 l 174 174 l 260 174 z "},"h":{"ha":608,"x_min":0,"x_max":521,"o":"m 0 -87 l 0 0 l 0 87 l 0 174 l 87 174 l 87 260 l 87 347 l 87 434 l 87 521 l 0 521 l 0 608 l 0 694 l 0 781 l 0 868 l 87 868 l 174 868 l 174 781 l 174 694 l 174 608 l 174 521 l 174 434 l 260 434 l 260 521 l 347 521 l 434 521 l 434 434 l 521 434 l 521 347 l 521 260 l 521 174 l 521 87 l 521 0 l 434 0 l 347 0 l 347 87 l 347 174 l 347 260 l 347 347 l 260 347 l 260 260 l 174 260 l 174 174 l 174 87 l 174 0 l 87 0 l 87 -87 l 0 -87 z "},"i":{"ha":347,"x_min":0,"x_max":260,"o":"m 174 -87 l 87 -87 l 87 0 l 0 0 l 0 87 l 0 174 l 0 260 l 0 347 l 0 434 l 0 521 l 87 521 l 87 434 l 174 434 l 174 347 l 174 260 l 174 174 l 174 87 l 260 87 l 260 0 l 260 -87 l 174 -87 m 87 608 l 0 608 l 0 694 l 0 781 l 87 781 l 87 868 l 174 868 l 174 781 l 174 694 l 174 608 l 87 608 z "},"j":{"ha":434,"x_min":0,"x_max":347,"o":"m 87 608 l 87 694 l 87 781 l 174 781 l 174 868 l 260 868 l 260 781 l 260 694 l 174 694 l 174 608 l 87 608 m 87 -260 l 0 -260 l 0 -174 l 0 -87 l 87 -87 l 87 0 l 174 0 l 174 87 l 260 87 l 260 174 l 174 174 l 174 260 l 174 347 l 87 347 l 87 434 l 87 521 l 174 521 l 260 521 l 260 434 l 260 347 l 260 260 l 347 260 l 347 174 l 347 87 l 347 0 l 347 -87 l 260 -87 l 260 -174 l 174 -174 l 174 -260 l 87 -260 z "},"k":{"ha":694,"x_min":0,"x_max":608,"o":"m 521 -87 l 434 -87 l 434 0 l 347 0 l 347 87 l 347 174 l 260 174 l 260 260 l 174 260 l 174 174 l 174 87 l 174 0 l 174 -87 l 87 -87 l 0 -87 l 0 0 l 0 87 l 0 174 l 0 260 l 87 260 l 87 347 l 87 434 l 87 521 l 87 608 l 87 694 l 0 694 l 0 781 l 0 868 l 87 868 l 174 868 l 174 781 l 174 694 l 260 694 l 260 608 l 260 521 l 260 434 l 347 434 l 347 521 l 347 608 l 434 608 l 521 608 l 521 521 l 521 434 l 434 434 l 434 347 l 347 347 l 347 260 l 434 260 l 434 174 l 434 87 l 521 87 l 608 87 l 608 0 l 608 -87 l 521 -87 z "},"l":{"ha":347,"x_min":0,"x_max":260,"o":"m 174 -87 l 87 -87 l 87 0 l 87 87 l 0 87 l 0 174 l 0 260 l 0 347 l 0 434 l 87 434 l 87 521 l 87 608 l 87 694 l 0 694 l 0 781 l 0 868 l 87 868 l 174 868 l 174 781 l 260 781 l 260 694 l 260 608 l 260 521 l 260 434 l 174 434 l 174 347 l 174 260 l 174 174 l 174 87 l 260 87 l 260 0 l 260 -87 l 174 -87 z "},"m":{"ha":868,"x_min":0,"x_max":781,"o":"m 260 -87 l 260 0 l 260 87 l 260 174 l 260 260 l 347 260 l 347 347 l 260 347 l 174 347 l 174 260 l 174 174 l 174 87 l 174 0 l 87 0 l 0 0 l 0 87 l 0 174 l 0 260 l 87 260 l 87 347 l 87 434 l 0 434 l 0 521 l 0 608 l 87 608 l 174 608 l 174 521 l 260 521 l 347 521 l 347 434 l 434 434 l 434 347 l 434 260 l 434 174 l 434 87 l 434 0 l 347 0 l 347 -87 l 260 -87 m 608 0 l 521 0 l 521 87 l 521 174 l 608 174 l 608 260 l 608 347 l 608 434 l 521 434 l 434 434 l 434 521 l 434 608 l 521 608 l 608 608 l 608 521 l 694 521 l 694 434 l 781 434 l 781 347 l 781 260 l 781 174 l 694 174 l 694 87 l 694 0 l 608 0 z "},"n":{"ha":694,"x_min":0,"x_max":608,"o":"m 434 -87 l 347 -87 l 347 0 l 347 87 l 434 87 l 434 174 l 434 260 l 434 347 l 434 434 l 347 434 l 260 434 l 260 347 l 260 260 l 260 174 l 260 87 l 174 87 l 174 0 l 87 0 l 0 0 l 0 87 l 0 174 l 87 174 l 87 260 l 87 347 l 0 347 l 0 434 l 0 521 l 0 608 l 87 608 l 174 608 l 174 521 l 260 521 l 260 608 l 347 608 l 434 608 l 434 521 l 521 521 l 521 434 l 608 434 l 608 347 l 608 260 l 608 174 l 608 87 l 608 0 l 521 0 l 521 -87 l 434 -87 z "},"o":{"ha":608,"x_min":0,"x_max":521,"o":"m 347 0 l 260 0 l 174 0 l 87 0 l 87 87 l 0 87 l 0 174 l 0 260 l 0 347 l 0 434 l 87 434 l 87 521 l 174 521 l 174 608 l 260 608 l 347 608 l 434 608 l 434 521 l 521 521 l 521 434 l 521 347 l 521 260 l 521 174 l 521 87 l 434 87 l 434 0 l 347 0 m 260 174 l 347 174 l 347 260 l 434 260 l 434 347 l 434 434 l 347 434 l 347 521 l 260 521 l 260 434 l 174 434 l 174 347 l 174 260 l 174 174 l 260 174 z "},"p":{"ha":608,"x_min":0,"x_max":521,"o":"m 87 -174 l 0 -174 l 0 -87 l 0 0 l 87 0 l 87 87 l 87 174 l 87 260 l 87 347 l 87 434 l 0 434 l 0 521 l 0 608 l 87 608 l 87 521 l 174 521 l 174 608 l 260 608 l 347 608 l 434 608 l 434 521 l 521 521 l 521 434 l 521 347 l 521 260 l 434 260 l 434 174 l 347 174 l 260 174 l 260 87 l 260 0 l 260 -87 l 174 -87 l 174 -174 l 87 -174 m 260 260 l 347 260 l 347 347 l 347 434 l 347 521 l 260 521 l 260 434 l 174 434 l 174 347 l 174 260 l 260 260 z "},"q":{"ha":608,"x_min":0,"x_max":521,"o":"m 434 -347 l 347 -347 l 347 -260 l 260 -260 l 260 -174 l 260 -87 l 260 0 l 347 0 l 347 87 l 260 87 l 174 87 l 87 87 l 87 174 l 0 174 l 0 260 l 0 347 l 87 347 l 87 434 l 87 521 l 174 521 l 174 608 l 260 608 l 347 608 l 434 608 l 434 521 l 521 521 l 521 434 l 521 347 l 521 260 l 434 260 l 434 174 l 434 87 l 434 0 l 434 -87 l 434 -174 l 521 -174 l 521 -260 l 521 -347 l 434 -347 m 260 260 l 347 260 l 347 347 l 434 347 l 434 434 l 347 434 l 347 521 l 260 521 l 260 434 l 174 434 l 174 347 l 174 260 l 260 260 z "},"r":{"ha":521,"x_min":0,"x_max":434,"o":"m 87 0 l 0 0 l 0 87 l 0 174 l 87 174 l 87 260 l 87 347 l 87 434 l 0 434 l 0 521 l 0 608 l 87 608 l 87 521 l 174 521 l 174 434 l 174 347 l 260 347 l 260 260 l 260 174 l 260 87 l 174 87 l 174 0 l 87 0 m 347 434 l 260 434 l 260 521 l 174 521 l 174 608 l 260 608 l 347 608 l 434 608 l 434 521 l 434 434 l 347 434 z "},"s":{"ha":608,"x_min":0,"x_max":521,"o":"m 347 0 l 260 0 l 174 0 l 87 0 l 87 87 l 0 87 l 0 174 l 0 260 l 87 260 l 174 260 l 174 347 l 87 347 l 87 434 l 0 434 l 0 521 l 87 521 l 87 608 l 174 608 l 174 694 l 260 694 l 347 694 l 434 694 l 434 608 l 521 608 l 521 521 l 521 434 l 434 434 l 347 434 l 347 521 l 260 521 l 174 521 l 174 434 l 260 434 l 260 347 l 347 347 l 434 347 l 434 260 l 521 260 l 521 174 l 521 87 l 434 87 l 434 0 l 347 0 m 260 174 l 347 174 l 347 260 l 260 260 l 174 260 l 174 174 l 260 174 z "},"t":{"ha":521,"x_min":0,"x_max":434,"o":"m 260 -87 l 174 -87 l 174 0 l 87 0 l 87 87 l 87 174 l 87 260 l 87 347 l 87 434 l 87 521 l 0 521 l 0 608 l 87 608 l 174 608 l 174 694 l 174 781 l 260 781 l 260 868 l 347 868 l 434 868 l 434 781 l 434 694 l 347 694 l 347 608 l 347 521 l 434 521 l 434 434 l 347 434 l 260 434 l 260 347 l 260 260 l 260 174 l 260 87 l 347 87 l 347 0 l 347 -87 l 260 -87 z "},"u":{"ha":608,"x_min":0,"x_max":521,"o":"m 347 0 l 260 0 l 174 0 l 87 0 l 87 87 l 0 87 l 0 174 l 0 260 l 0 347 l 0 434 l 0 521 l 87 521 l 174 521 l 174 434 l 174 347 l 174 260 l 174 174 l 260 174 l 260 87 l 347 87 l 347 174 l 347 260 l 347 347 l 347 434 l 260 434 l 260 521 l 260 608 l 347 608 l 434 608 l 434 521 l 521 521 l 521 434 l 521 347 l 521 260 l 521 174 l 521 87 l 434 87 l 434 0 l 347 0 z "},"v":{"ha":608,"x_min":0,"x_max":521,"o":"m 174 -87 l 174 0 l 174 87 l 87 87 l 87 174 l 87 260 l 0 260 l 0 347 l 0 434 l 0 521 l 87 521 l 174 521 l 174 434 l 174 347 l 174 260 l 260 260 l 260 174 l 347 174 l 347 260 l 347 347 l 347 434 l 260 434 l 260 521 l 260 608 l 347 608 l 347 694 l 434 694 l 434 608 l 521 608 l 521 521 l 521 434 l 521 347 l 521 260 l 434 260 l 434 174 l 434 87 l 347 87 l 347 0 l 260 0 l 260 -87 l 174 -87 z "},"w":{"ha":781,"x_min":0,"x_max":694,"o":"m 434 0 l 434 87 l 347 87 l 260 87 l 260 0 l 174 0 l 87 0 l 87 87 l 0 87 l 0 174 l 0 260 l 0 347 l 0 434 l 0 521 l 87 521 l 174 521 l 174 434 l 174 347 l 87 347 l 87 260 l 174 260 l 174 174 l 260 174 l 260 260 l 260 347 l 347 347 l 347 260 l 434 260 l 434 174 l 521 174 l 521 260 l 521 347 l 521 434 l 434 434 l 434 521 l 434 608 l 521 608 l 608 608 l 608 521 l 694 521 l 694 434 l 694 347 l 694 260 l 608 260 l 608 174 l 608 87 l 521 87 l 521 0 l 434 0 z "},"x":{"ha":694,"x_min":0,"x_max":608,"o":"m 434 -87 l 347 -87 l 347 0 l 347 87 l 347 174 l 260 174 l 174 174 l 174 87 l 174 0 l 87 0 l 0 0 l 0 87 l 0 174 l 87 174 l 87 260 l 174 260 l 174 347 l 174 434 l 87 434 l 87 521 l 0 521 l 0 608 l 87 608 l 174 608 l 174 521 l 260 521 l 260 434 l 347 434 l 347 521 l 434 521 l 434 608 l 521 608 l 608 608 l 608 521 l 608 434 l 521 434 l 521 347 l 434 347 l 434 260 l 434 174 l 521 174 l 521 87 l 521 0 l 521 -87 l 434 -87 z "},"y":{"ha":608,"x_min":0,"x_max":521,"o":"m 87 -347 l 0 -347 l 0 -260 l 0 -174 l 87 -174 l 174 -174 l 174 -87 l 260 -87 l 260 0 l 174 0 l 174 87 l 87 87 l 87 174 l 0 174 l 0 260 l 0 347 l 0 434 l 0 521 l 87 521 l 174 521 l 174 434 l 174 347 l 174 260 l 174 174 l 260 174 l 260 87 l 347 87 l 347 174 l 347 260 l 347 347 l 260 347 l 260 434 l 260 521 l 347 521 l 434 521 l 434 434 l 521 434 l 521 347 l 521 260 l 521 174 l 521 87 l 434 87 l 434 0 l 434 -87 l 347 -87 l 347 -174 l 260 -174 l 260 -260 l 174 -260 l 174 -347 l 87 -347 z "},"z":{"ha":781,"x_min":0,"x_max":694,"o":"m 260 -87 l 174 -87 l 87 -87 l 87 0 l 87 87 l 87 174 l 174 174 l 174 260 l 260 260 l 260 347 l 347 347 l 347 434 l 260 434 l 174 434 l 174 347 l 87 347 l 0 347 l 0 434 l 0 521 l 87 521 l 174 521 l 174 608 l 260 608 l 347 608 l 434 608 l 521 608 l 521 521 l 521 434 l 521 347 l 434 347 l 434 260 l 347 260 l 347 174 l 260 174 l 260 87 l 347 87 l 434 87 l 434 174 l 521 174 l 521 260 l 608 260 l 694 260 l 694 174 l 694 87 l 608 87 l 608 0 l 521 0 l 434 0 l 347 0 l 347 -87 l 260 -87 z "},"{":{"ha":608,"x_min":0,"x_max":521,"o":"m 434 -174 l 434 -87 l 521 -87 l 521 -174 l 434 -174 m 434 -87 l 347 -87 l 347 0 l 434 0 l 434 -87 m 347 0 l 260 0 l 260 87 l 260 174 l 174 174 l 174 260 l 87 260 l 0 260 l 0 347 l 87 347 l 174 347 l 174 434 l 260 434 l 260 521 l 174 521 l 174 608 l 174 694 l 174 781 l 260 781 l 260 868 l 347 868 l 434 868 l 521 868 l 521 781 l 434 781 l 347 781 l 347 694 l 347 608 l 347 521 l 347 434 l 347 347 l 260 347 l 260 260 l 347 260 l 347 174 l 347 87 l 347 0 z "},"|":{"ha":260,"x_min":0,"x_max":174,"o":"m 87 -174 l 87 -87 l 0 -87 l 0 0 l 0 87 l 0 174 l 0 260 l 0 347 l 0 434 l 0 521 l 0 608 l 0 694 l 0 781 l 0 868 l 87 868 l 87 781 l 87 694 l 87 608 l 87 521 l 87 434 l 87 347 l 87 260 l 174 260 l 174 174 l 174 87 l 174 0 l 174 -87 l 174 -174 l 87 -174 z "},"}":{"ha":521,"x_min":0,"x_max":434,"o":"m 87 -174 l 0 -174 l 0 -87 l 87 -87 l 87 0 l 174 0 l 174 87 l 174 174 l 174 260 l 260 260 l 260 347 l 174 347 l 174 434 l 174 521 l 174 608 l 174 694 l 174 781 l 260 781 l 260 694 l 260 608 l 260 521 l 260 434 l 347 434 l 347 347 l 434 347 l 434 260 l 347 260 l 347 174 l 260 174 l 260 87 l 260 0 l 260 -87 l 174 -87 l 174 -174 l 87 -174 m 174 781 l 87 781 l 0 781 l 0 868 l 87 868 l 174 868 l 174 781 z "},"~":{"ha":694,"x_min":0,"x_max":608,"o":"m 0 260 l 0 347 l 0 434 l 87 434 l 87 521 l 174 521 l 260 521 l 260 434 l 347 434 l 347 347 l 434 347 l 434 434 l 434 521 l 521 521 l 608 521 l 608 434 l 608 347 l 521 347 l 521 260 l 434 260 l 347 260 l 260 260 l 260 347 l 174 347 l 87 347 l 87 260 l 0 260 z "}," ":{"ha":434,"x_min":0,"x_max":0,"o":""},"¡":{"ha":347,"x_min":0,"x_max":260,"o":"m 87 -347 l 87 -260 l 87 -174 l 0 -174 l 0 -87 l 0 0 l 0 87 l 0 174 l 0 260 l 0 347 l 87 347 l 87 434 l 174 434 l 174 347 l 174 260 l 87 260 l 87 174 l 174 174 l 174 87 l 174 0 l 260 0 l 260 -87 l 260 -174 l 260 -260 l 174 -260 l 174 -347 l 87 -347 m 87 521 l 0 521 l 0 608 l 87 608 l 87 694 l 174 694 l 174 608 l 174 521 l 87 521 z "},"¢":{"ha":608,"x_min":0,"x_max":521,"o":"m 260 -174 l 174 -174 l 174 -87 l 260 -87 l 260 0 l 174 0 l 87 0 l 87 87 l 0 87 l 0 174 l 0 260 l 0 347 l 87 347 l 87 434 l 174 434 l 174 521 l 260 521 l 260 608 l 174 608 l 174 694 l 260 694 l 347 694 l 347 608 l 347 521 l 434 521 l 521 521 l 521 434 l 521 347 l 434 347 l 347 347 l 347 434 l 260 434 l 260 347 l 174 347 l 174 260 l 174 174 l 174 87 l 260 87 l 347 87 l 347 174 l 434 174 l 521 174 l 521 87 l 434 87 l 434 0 l 347 0 l 347 -87 l 347 -174 l 260 -174 z "},"£":{"ha":868,"x_min":0,"x_max":781,"o":"m 608 -87 l 521 -87 l 434 -87 l 347 -87 l 347 0 l 434 0 l 521 0 l 521 87 l 608 87 l 608 174 l 694 174 l 781 174 l 781 87 l 781 0 l 694 0 l 694 -87 l 608 -87 m 174 -87 l 87 -87 l 0 -87 l 0 0 l 0 87 l 87 87 l 87 174 l 174 174 l 174 260 l 87 260 l 0 260 l 0 347 l 87 347 l 87 434 l 0 434 l 0 521 l 0 608 l 0 694 l 87 694 l 87 781 l 174 781 l 174 868 l 260 868 l 347 868 l 347 781 l 434 781 l 434 694 l 521 694 l 521 608 l 521 521 l 434 521 l 347 521 l 347 608 l 260 608 l 260 694 l 174 694 l 174 608 l 174 521 l 174 434 l 260 434 l 347 434 l 347 347 l 434 347 l 434 260 l 347 260 l 260 260 l 260 174 l 260 87 l 347 87 l 347 0 l 260 0 l 260 -87 l 174 -87 z "},"¤":{"ha":694,"x_min":0,"x_max":608,"o":"m 521 87 l 521 174 l 434 174 l 347 174 l 260 174 l 174 174 l 174 87 l 87 87 l 0 87 l 0 174 l 0 260 l 87 260 l 87 347 l 87 434 l 87 521 l 0 521 l 0 608 l 0 694 l 87 694 l 87 608 l 174 608 l 174 521 l 260 521 l 347 521 l 434 521 l 434 608 l 521 608 l 608 608 l 608 521 l 521 521 l 521 434 l 521 347 l 521 260 l 608 260 l 608 174 l 608 87 l 521 87 m 260 260 l 260 347 l 347 347 l 347 434 l 260 434 l 174 434 l 174 347 l 174 260 l 260 260 z "},"¥":{"ha":781,"x_min":0,"x_max":694,"o":"m 434 -87 l 347 -87 l 347 0 l 347 87 l 260 87 l 174 87 l 174 174 l 87 174 l 87 260 l 174 260 l 260 260 l 347 260 l 347 347 l 260 347 l 174 347 l 87 347 l 87 434 l 174 434 l 260 434 l 347 434 l 347 521 l 260 521 l 260 608 l 174 608 l 174 694 l 87 694 l 87 781 l 0 781 l 0 868 l 87 868 l 174 868 l 174 781 l 260 781 l 260 694 l 347 694 l 347 608 l 434 608 l 434 694 l 521 694 l 521 781 l 521 868 l 608 868 l 694 868 l 694 781 l 694 694 l 608 694 l 608 608 l 521 608 l 521 521 l 608 521 l 694 521 l 694 434 l 608 434 l 608 347 l 521 347 l 434 347 l 434 260 l 521 260 l 608 260 l 694 260 l 694 174 l 608 174 l 521 174 l 521 87 l 521 0 l 521 -87 l 434 -87 z "},"¦":{"ha":260,"x_min":0,"x_max":174,"o":"m 87 -260 l 87 -174 l 0 -174 l 0 -87 l 0 0 l 0 87 l 0 174 l 87 174 l 87 260 l 174 260 l 174 174 l 174 87 l 174 0 l 174 -87 l 174 -174 l 174 -260 l 87 -260 m 0 347 l 0 434 l 0 521 l 0 608 l 0 694 l 0 781 l 0 868 l 87 868 l 87 781 l 174 781 l 174 694 l 174 608 l 174 521 l 87 521 l 87 434 l 87 347 l 0 347 z "},"§":{"ha":694,"x_min":0,"x_max":608,"o":"m 347 -260 l 260 -260 l 174 -260 l 174 -174 l 87 -174 l 0 -174 l 0 -87 l 0 0 l 87 0 l 174 0 l 174 -87 l 260 -87 l 347 -87 l 434 -87 l 434 0 l 434 87 l 347 87 l 260 87 l 174 87 l 174 174 l 87 174 l 87 260 l 87 347 l 87 434 l 174 434 l 174 521 l 87 521 l 87 608 l 87 694 l 87 781 l 174 781 l 174 868 l 260 868 l 347 868 l 434 868 l 521 868 l 521 781 l 608 781 l 608 694 l 608 608 l 521 608 l 434 608 l 434 694 l 347 694 l 260 694 l 260 608 l 347 608 l 347 521 l 434 521 l 521 521 l 521 434 l 608 434 l 608 347 l 608 260 l 608 174 l 521 174 l 521 87 l 608 87 l 608 0 l 608 -87 l 521 -87 l 521 -174 l 434 -174 l 434 -260 l 347 -260 m 434 260 l 521 260 l 521 347 l 434 347 l 347 347 l 347 434 l 260 434 l 260 347 l 174 347 l 174 260 l 260 260 l 347 260 l 434 260 z "},"¨":{"ha":608,"x_min":87,"x_max":521,"o":"m 87 694 l 87 781 l 87 868 l 174 868 l 260 868 l 260 781 l 174 781 l 174 694 l 87 694 m 434 694 l 347 694 l 347 781 l 347 868 l 434 868 l 521 868 l 521 781 l 521 694 l 434 694 z "},"©":{"ha":1042,"x_min":0,"x_max":955,"o":"m 521 0 l 608 0 l 608 -87 l 521 -87 l 434 -87 l 347 -87 l 347 0 l 434 0 l 521 0 m 608 0 l 608 87 l 694 87 l 694 174 l 781 174 l 781 260 l 781 347 l 781 434 l 781 521 l 694 521 l 694 608 l 694 694 l 608 694 l 521 694 l 521 781 l 434 781 l 347 781 l 347 694 l 260 694 l 260 608 l 174 608 l 174 521 l 174 434 l 87 434 l 87 347 l 87 260 l 174 260 l 174 174 l 174 87 l 260 87 l 347 87 l 347 0 l 260 0 l 174 0 l 174 87 l 87 87 l 87 174 l 87 260 l 0 260 l 0 347 l 0 434 l 0 521 l 87 521 l 87 608 l 87 694 l 174 694 l 174 781 l 260 781 l 260 868 l 347 868 l 434 868 l 521 868 l 608 868 l 608 781 l 694 781 l 781 781 l 781 694 l 868 694 l 868 608 l 868 521 l 955 521 l 955 434 l 955 347 l 955 260 l 868 260 l 868 174 l 868 87 l 781 87 l 781 0 l 694 0 l 608 0 m 434 174 l 347 174 l 347 260 l 434 260 l 434 347 l 521 347 l 608 347 l 608 260 l 521 260 l 521 174 l 434 174 m 347 260 l 260 260 l 260 347 l 260 434 l 260 521 l 347 521 l 347 608 l 434 608 l 521 608 l 521 521 l 434 521 l 434 434 l 347 434 l 347 347 l 347 260 z "},"ª":{"ha":434,"x_min":0,"x_max":347,"o":"m 260 434 l 260 521 l 174 521 l 174 608 l 87 608 l 87 521 l 174 521 l 174 434 l 87 434 l 0 434 l 0 521 l 0 608 l 87 608 l 87 694 l 174 694 l 174 781 l 87 781 l 0 781 l 0 868 l 87 868 l 174 868 l 260 868 l 260 781 l 347 781 l 347 694 l 347 608 l 347 521 l 347 434 l 260 434 m 260 174 l 174 174 l 174 260 l 87 260 l 0 260 l 0 347 l 87 347 l 174 347 l 260 347 l 260 260 l 347 260 l 347 174 l 260 174 z "},"«":{"ha":781,"x_min":0,"x_max":694,"o":"m 608 87 l 608 174 l 694 174 l 694 87 l 608 87 m 347 87 l 347 174 l 434 174 l 434 87 l 347 87 m 608 174 l 521 174 l 521 260 l 608 260 l 608 174 m 347 174 l 260 174 l 174 174 l 87 174 l 87 260 l 0 260 l 0 347 l 87 347 l 87 434 l 174 434 l 174 521 l 260 521 l 347 521 l 347 434 l 260 434 l 260 347 l 174 347 l 174 260 l 260 260 l 347 260 l 347 174 m 521 260 l 434 260 l 347 260 l 347 347 l 434 347 l 434 434 l 521 434 l 521 521 l 608 521 l 694 521 l 694 434 l 608 434 l 608 347 l 521 347 l 521 260 z "},"¬":{"ha":694,"x_min":0,"x_max":608,"o":"m 434 174 l 434 260 l 434 347 l 521 347 l 521 434 l 434 434 l 347 434 l 260 434 l 174 434 l 87 434 l 0 434 l 0 521 l 87 521 l 174 521 l 174 608 l 260 608 l 347 608 l 434 608 l 521 608 l 608 608 l 608 521 l 608 434 l 608 347 l 608 260 l 521 260 l 521 174 l 434 174 z "},"®":{"ha":1042,"x_min":0,"x_max":955,"o":"m 260 174 l 260 260 l 260 347 l 260 434 l 260 521 l 260 608 l 174 608 l 174 521 l 174 434 l 87 434 l 87 347 l 87 260 l 174 260 l 174 174 l 174 87 l 260 87 l 347 87 l 347 0 l 260 0 l 174 0 l 174 87 l 87 87 l 87 174 l 87 260 l 0 260 l 0 347 l 0 434 l 0 521 l 87 521 l 87 608 l 87 694 l 174 694 l 174 781 l 260 781 l 260 868 l 347 868 l 434 868 l 521 868 l 608 868 l 608 781 l 694 781 l 781 781 l 781 694 l 868 694 l 868 608 l 868 521 l 955 521 l 955 434 l 955 347 l 955 260 l 868 260 l 868 174 l 868 87 l 781 87 l 781 0 l 694 0 l 608 0 l 608 -87 l 521 -87 l 434 -87 l 347 -87 l 347 0 l 434 0 l 521 0 l 608 0 l 608 87 l 694 87 l 694 174 l 608 174 l 521 174 l 521 260 l 434 260 l 347 260 l 347 174 l 260 174 m 781 174 l 781 260 l 781 347 l 781 434 l 781 521 l 694 521 l 694 608 l 694 694 l 608 694 l 521 694 l 521 781 l 434 781 l 347 781 l 347 694 l 260 694 l 260 608 l 347 608 l 347 694 l 434 694 l 521 694 l 521 608 l 608 608 l 608 521 l 608 434 l 521 434 l 521 347 l 608 347 l 608 260 l 694 260 l 694 174 l 781 174 m 434 434 l 434 521 l 347 521 l 347 434 l 434 434 z "},"¯":{"ha":694,"x_min":0,"x_max":608,"o":"m 521 868 l 608 868 l 608 781 l 521 781 l 434 781 l 347 781 l 260 781 l 174 781 l 87 781 l 87 868 l 0 868 l 0 955 l 87 955 l 174 955 l 260 955 l 347 955 l 347 868 l 434 868 l 521 868 z "},"°":{"ha":434,"x_min":0,"x_max":347,"o":"m 174 521 l 87 521 l 87 608 l 174 608 l 174 694 l 260 694 l 260 781 l 347 781 l 347 694 l 347 608 l 260 608 l 260 521 l 174 521 m 87 608 l 0 608 l 0 694 l 0 781 l 87 781 l 87 694 l 87 608 m 260 781 l 174 781 l 87 781 l 87 868 l 174 868 l 260 868 l 260 781 z "},"±":{"ha":694,"x_min":0,"x_max":608,"o":"m 260 174 l 260 260 l 260 347 l 174 347 l 87 347 l 0 347 l 0 434 l 87 434 l 174 434 l 260 434 l 260 521 l 260 608 l 260 694 l 347 694 l 347 608 l 347 521 l 434 521 l 521 521 l 608 521 l 608 434 l 521 434 l 521 347 l 434 347 l 347 347 l 347 260 l 347 174 l 260 174 m 260 -87 l 174 -87 l 87 -87 l 0 -87 l 0 0 l 87 0 l 87 87 l 174 87 l 260 87 l 347 87 l 434 87 l 521 87 l 608 87 l 608 0 l 521 0 l 434 0 l 347 0 l 347 -87 l 260 -87 z "},"²":{"ha":521,"x_min":0,"x_max":434,"o":"m 0 608 l 0 694 l 0 781 l 87 781 l 87 868 l 174 868 l 260 868 l 347 868 l 347 781 l 434 781 l 434 694 l 434 608 l 347 608 l 347 521 l 260 521 l 260 434 l 347 434 l 347 347 l 260 347 l 174 347 l 87 347 l 0 347 l 0 434 l 87 434 l 87 521 l 174 521 l 174 608 l 260 608 l 260 694 l 260 781 l 174 781 l 174 694 l 87 694 l 87 608 l 0 608 z "},"³":{"ha":434,"x_min":0,"x_max":347,"o":"m 174 347 l 87 347 l 87 434 l 0 434 l 0 521 l 87 521 l 174 521 l 174 608 l 87 608 l 87 694 l 174 694 l 174 781 l 87 781 l 0 781 l 0 868 l 87 868 l 174 868 l 260 868 l 260 781 l 347 781 l 347 694 l 260 694 l 260 608 l 347 608 l 347 521 l 347 434 l 260 434 l 260 347 l 174 347 z "},"´":{"ha":347,"x_min":0,"x_max":260,"o":"m 0 608 l 0 694 l 87 694 l 87 608 l 0 608 m 87 694 l 87 781 l 87 868 l 174 868 l 260 868 l 260 781 l 260 694 l 174 694 l 87 694 z "},"µ":{"ha":694,"x_min":0,"x_max":608,"o":"m 174 -260 l 87 -260 l 87 -174 l 0 -174 l 0 -87 l 0 0 l 0 87 l 0 174 l 0 260 l 0 347 l 0 434 l 0 521 l 87 521 l 174 521 l 174 434 l 174 347 l 174 260 l 174 174 l 260 174 l 260 87 l 347 87 l 347 0 l 260 0 l 174 0 l 174 -87 l 260 -87 l 260 -174 l 260 -260 l 174 -260 m 521 0 l 434 0 l 434 87 l 347 87 l 347 174 l 347 260 l 347 347 l 347 434 l 260 434 l 260 521 l 260 608 l 347 608 l 434 608 l 434 521 l 521 521 l 521 434 l 521 347 l 521 260 l 521 174 l 608 174 l 608 87 l 608 0 l 521 0 z "},"¶":{"ha":868,"x_min":0,"x_max":781,"o":"m 434 -260 l 434 -174 l 434 -87 l 434 0 l 521 0 l 521 87 l 521 174 l 434 174 l 434 260 l 434 347 l 347 347 l 260 347 l 174 347 l 87 347 l 87 434 l 0 434 l 0 521 l 0 608 l 0 694 l 87 694 l 87 781 l 174 781 l 260 781 l 260 868 l 347 868 l 434 868 l 521 868 l 608 868 l 608 955 l 694 955 l 781 955 l 781 868 l 781 781 l 694 781 l 694 694 l 694 608 l 694 521 l 694 434 l 781 434 l 781 347 l 781 260 l 781 174 l 781 87 l 781 0 l 781 -87 l 694 -87 l 694 0 l 694 87 l 694 174 l 694 260 l 694 347 l 694 434 l 608 434 l 608 521 l 608 608 l 608 694 l 608 781 l 521 781 l 521 694 l 521 608 l 521 521 l 521 434 l 521 347 l 521 260 l 608 260 l 608 174 l 608 87 l 608 0 l 608 -87 l 608 -174 l 521 -174 l 521 -260 l 434 -260 z "},"·":{"ha":260,"x_min":0,"x_max":174,"o":"m 87 260 l 0 260 l 0 347 l 0 434 l 87 434 l 174 434 l 174 347 l 174 260 l 87 260 z "},"¸":{"ha":434,"x_min":0,"x_max":347,"o":"m 174 -347 l 87 -347 l 87 -260 l 0 -260 l 0 -174 l 87 -174 l 174 -174 l 260 -174 l 260 -87 l 347 -87 l 347 -174 l 347 -260 l 260 -260 l 260 -347 l 174 -347 m 260 -87 l 174 -87 l 174 0 l 260 0 l 260 -87 z "},"¹":{"ha":347,"x_min":0,"x_max":260,"o":"m 87 434 l 87 521 l 87 608 l 87 694 l 0 694 l 0 781 l 87 781 l 87 868 l 174 868 l 260 868 l 260 781 l 260 694 l 174 694 l 174 608 l 174 521 l 174 434 l 87 434 z "},"º":{"ha":434,"x_min":0,"x_max":347,"o":"m 260 174 l 174 174 l 174 260 l 87 260 l 0 260 l 0 347 l 87 347 l 174 347 l 260 347 l 260 260 l 347 260 l 347 174 l 260 174 m 174 434 l 87 434 l 87 521 l 0 521 l 0 608 l 0 694 l 0 781 l 87 781 l 87 868 l 174 868 l 260 868 l 260 781 l 347 781 l 347 694 l 347 608 l 347 521 l 260 521 l 260 434 l 174 434 m 174 608 l 174 694 l 174 781 l 87 781 l 87 694 l 87 608 l 174 608 z "},"»":{"ha":781,"x_min":0,"x_max":694,"o":"m 434 87 l 347 87 l 347 174 l 434 174 l 434 260 l 521 260 l 521 347 l 521 434 l 608 434 l 608 347 l 694 347 l 694 260 l 608 260 l 608 174 l 521 174 l 521 87 l 434 87 m 174 87 l 87 87 l 0 87 l 0 174 l 87 174 l 174 174 l 174 260 l 260 260 l 260 347 l 347 347 l 434 347 l 434 260 l 347 260 l 347 174 l 260 174 l 260 87 l 174 87 m 260 347 l 174 347 l 87 347 l 87 434 l 174 434 l 260 434 l 260 347 m 521 434 l 434 434 l 347 434 l 347 521 l 434 521 l 521 521 l 521 434 m 87 434 l 0 434 l 0 521 l 87 521 l 87 434 z "},"¼":{"ha":955,"x_min":0,"x_max":868,"o":"m 0 -174 l 0 -87 l 87 -87 l 87 -174 l 0 -174 m 694 -87 l 694 0 l 694 87 l 608 87 l 608 0 l 521 0 l 434 0 l 434 87 l 434 174 l 521 174 l 521 260 l 521 347 l 608 347 l 608 260 l 608 174 l 694 174 l 694 260 l 694 347 l 694 434 l 694 521 l 781 521 l 781 434 l 781 347 l 781 260 l 781 174 l 868 174 l 868 87 l 781 87 l 781 0 l 781 -87 l 694 -87 m 87 434 l 87 521 l 87 608 l 87 694 l 0 694 l 0 781 l 87 781 l 87 868 l 174 868 l 260 868 l 260 781 l 260 694 l 174 694 l 174 608 l 174 521 l 174 434 l 87 434 m 87 -87 l 87 0 l 87 87 l 174 87 l 174 174 l 174 260 l 260 260 l 260 347 l 347 347 l 347 434 l 347 521 l 434 521 l 434 434 l 434 347 l 434 260 l 347 260 l 347 174 l 260 174 l 260 87 l 260 0 l 174 0 l 174 -87 l 87 -87 m 434 521 l 434 608 l 434 694 l 434 781 l 434 868 l 521 868 l 608 868 l 608 781 l 608 694 l 521 694 l 521 608 l 521 521 l 434 521 z "},"½":{"ha":955,"x_min":0,"x_max":868,"o":"m 87 -87 l 87 0 l 87 87 l 174 87 l 174 174 l 174 260 l 260 260 l 260 347 l 347 347 l 347 434 l 347 521 l 434 521 l 434 434 l 434 347 l 434 260 l 347 260 l 347 174 l 260 174 l 260 87 l 260 0 l 174 0 l 174 -87 l 87 -87 m 87 434 l 87 521 l 87 608 l 87 694 l 0 694 l 0 781 l 87 781 l 87 868 l 174 868 l 260 868 l 260 781 l 260 694 l 174 694 l 174 608 l 174 521 l 174 434 l 87 434 m 781 87 l 868 87 l 868 0 l 781 0 l 694 0 l 608 0 l 521 0 l 434 0 l 434 87 l 521 87 l 521 174 l 608 174 l 608 260 l 694 260 l 694 347 l 608 347 l 521 347 l 521 434 l 608 434 l 608 521 l 694 521 l 781 521 l 781 434 l 868 434 l 868 347 l 868 260 l 781 260 l 781 174 l 694 174 l 694 87 l 781 87 m 434 521 l 434 608 l 434 694 l 434 781 l 434 868 l 521 868 l 608 868 l 608 781 l 608 694 l 521 694 l 521 608 l 521 521 l 434 521 z "},"¾":{"ha":955,"x_min":0,"x_max":868,"o":"m 0 -174 l 0 -87 l 87 -87 l 87 -174 l 0 -174 m 694 -87 l 694 0 l 694 87 l 608 87 l 608 0 l 521 0 l 434 0 l 434 87 l 434 174 l 521 174 l 521 260 l 521 347 l 608 347 l 608 260 l 608 174 l 694 174 l 694 260 l 694 347 l 694 434 l 694 521 l 781 521 l 781 434 l 781 347 l 781 260 l 781 174 l 868 174 l 868 87 l 781 87 l 781 0 l 781 -87 l 694 -87 m 87 -87 l 87 0 l 87 87 l 174 87 l 174 174 l 174 260 l 260 260 l 260 347 l 347 347 l 347 434 l 347 521 l 434 521 l 434 434 l 434 347 l 434 260 l 347 260 l 347 174 l 260 174 l 260 87 l 260 0 l 174 0 l 174 -87 l 87 -87 m 87 347 l 0 347 l 0 434 l 87 434 l 87 521 l 174 521 l 174 608 l 87 608 l 87 694 l 174 694 l 174 781 l 260 781 l 260 694 l 347 694 l 347 608 l 347 521 l 260 521 l 260 434 l 174 434 l 174 347 l 87 347 m 434 521 l 434 608 l 434 694 l 434 781 l 434 868 l 521 868 l 608 868 l 608 781 l 608 694 l 521 694 l 521 608 l 521 521 l 434 521 m 174 781 l 87 781 l 0 781 l 0 868 l 87 868 l 174 868 l 174 781 z "},"¿":{"ha":694,"x_min":0,"x_max":608,"o":"m 260 608 l 260 694 l 260 781 l 347 781 l 434 781 l 434 694 l 347 694 l 347 608 l 260 608 m 347 -174 l 260 -174 l 174 -174 l 87 -174 l 87 -87 l 0 -87 l 0 0 l 0 87 l 87 87 l 87 174 l 174 174 l 174 260 l 260 260 l 347 260 l 347 347 l 260 347 l 260 434 l 260 521 l 347 521 l 434 521 l 434 434 l 521 434 l 521 347 l 521 260 l 434 260 l 434 174 l 347 174 l 260 174 l 260 87 l 174 87 l 174 0 l 174 -87 l 260 -87 l 347 -87 l 347 0 l 434 0 l 434 87 l 521 87 l 608 87 l 608 0 l 608 -87 l 521 -87 l 434 -87 l 434 -174 l 347 -174 z "},"À":{"ha":955,"x_min":0,"x_max":868,"o":"m 694 -87 l 608 -87 l 608 0 l 608 87 l 608 174 l 608 260 l 521 260 l 521 347 l 434 347 l 347 347 l 347 260 l 260 260 l 260 174 l 260 87 l 260 0 l 174 0 l 174 -87 l 87 -87 l 0 -87 l 0 0 l 0 87 l 87 87 l 87 174 l 87 260 l 0 260 l 0 347 l 87 347 l 87 434 l 87 521 l 87 608 l 87 694 l 174 694 l 174 781 l 260 781 l 347 781 l 434 781 l 434 694 l 521 694 l 521 608 l 608 608 l 608 521 l 694 521 l 781 521 l 868 521 l 868 434 l 868 347 l 781 347 l 694 347 l 694 260 l 781 260 l 781 174 l 868 174 l 868 87 l 868 0 l 781 0 l 781 -87 l 694 -87 m 347 434 l 434 434 l 434 521 l 434 608 l 347 608 l 260 608 l 260 521 l 260 434 l 347 434 m 260 868 l 174 868 l 174 955 l 87 955 l 87 1042 l 174 1042 l 260 1042 l 260 955 l 347 955 l 347 868 l 260 868 z "},"Á":{"ha":955,"x_min":0,"x_max":868,"o":"m 694 -87 l 608 -87 l 608 0 l 608 87 l 608 174 l 608 260 l 521 260 l 521 347 l 434 347 l 347 347 l 347 260 l 260 260 l 260 174 l 260 87 l 260 0 l 174 0 l 174 -87 l 87 -87 l 0 -87 l 0 0 l 0 87 l 87 87 l 87 174 l 87 260 l 0 260 l 0 347 l 87 347 l 87 434 l 87 521 l 87 608 l 87 694 l 174 694 l 174 781 l 260 781 l 347 781 l 434 781 l 434 694 l 521 694 l 521 608 l 608 608 l 608 521 l 694 521 l 781 521 l 868 521 l 868 434 l 868 347 l 781 347 l 694 347 l 694 260 l 781 260 l 781 174 l 868 174 l 868 87 l 868 0 l 781 0 l 781 -87 l 694 -87 m 347 434 l 434 434 l 434 521 l 434 608 l 347 608 l 260 608 l 260 521 l 260 434 l 347 434 m 260 868 l 174 868 l 174 955 l 260 955 l 260 1042 l 347 1042 l 434 1042 l 434 955 l 347 955 l 347 868 l 260 868 z "},"Â":{"ha":955,"x_min":0,"x_max":868,"o":"m 347 781 l 347 868 l 260 868 l 260 781 l 174 781 l 174 868 l 260 868 l 260 955 l 260 1042 l 347 1042 l 347 955 l 434 955 l 434 868 l 434 781 l 347 781 m 694 -87 l 608 -87 l 608 0 l 608 87 l 608 174 l 521 174 l 521 260 l 434 260 l 347 260 l 347 174 l 260 174 l 260 87 l 260 0 l 174 0 l 174 -87 l 87 -87 l 0 -87 l 0 0 l 0 87 l 87 87 l 87 174 l 0 174 l 0 260 l 87 260 l 87 347 l 87 434 l 87 521 l 87 608 l 174 608 l 174 694 l 260 694 l 347 694 l 434 694 l 434 608 l 521 608 l 521 521 l 608 521 l 608 434 l 694 434 l 781 434 l 868 434 l 868 347 l 868 260 l 781 260 l 694 260 l 694 174 l 781 174 l 781 87 l 781 0 l 781 -87 l 694 -87 m 347 347 l 434 347 l 434 434 l 434 521 l 347 521 l 260 521 l 260 434 l 260 347 l 347 347 z "},"Ã":{"ha":955,"x_min":0,"x_max":868,"o":"m 87 868 l 87 955 l 174 955 l 174 868 l 87 868 m 694 -87 l 608 -87 l 608 0 l 608 87 l 608 174 l 608 260 l 521 260 l 521 347 l 434 347 l 347 347 l 347 260 l 260 260 l 260 174 l 260 87 l 260 0 l 174 0 l 174 -87 l 87 -87 l 0 -87 l 0 0 l 0 87 l 87 87 l 87 174 l 87 260 l 0 260 l 0 347 l 87 347 l 87 434 l 87 521 l 87 608 l 87 694 l 174 694 l 174 781 l 260 781 l 347 781 l 434 781 l 434 694 l 521 694 l 521 608 l 608 608 l 608 521 l 694 521 l 781 521 l 868 521 l 868 434 l 868 347 l 781 347 l 694 347 l 694 260 l 781 260 l 781 174 l 868 174 l 868 87 l 868 0 l 781 0 l 781 -87 l 694 -87 m 347 434 l 434 434 l 434 521 l 434 608 l 347 608 l 260 608 l 260 521 l 260 434 l 347 434 m 347 868 l 260 868 l 260 955 l 174 955 l 174 1042 l 260 1042 l 347 1042 l 347 955 l 434 955 l 434 868 l 347 868 m 434 955 l 434 1042 l 521 1042 l 521 955 l 434 955 z "},"Ä":{"ha":955,"x_min":0,"x_max":868,"o":"m 694 -87 l 608 -87 l 608 0 l 608 87 l 608 174 l 608 260 l 521 260 l 521 347 l 434 347 l 347 347 l 347 260 l 260 260 l 260 174 l 260 87 l 260 0 l 174 0 l 174 -87 l 87 -87 l 0 -87 l 0 0 l 0 87 l 87 87 l 87 174 l 87 260 l 0 260 l 0 347 l 87 347 l 87 434 l 87 521 l 87 608 l 87 694 l 174 694 l 174 781 l 260 781 l 347 781 l 434 781 l 434 694 l 521 694 l 521 608 l 608 608 l 608 521 l 694 521 l 781 521 l 868 521 l 868 434 l 868 347 l 781 347 l 694 347 l 694 260 l 781 260 l 781 174 l 868 174 l 868 87 l 868 0 l 781 0 l 781 -87 l 694 -87 m 347 434 l 434 434 l 434 521 l 434 608 l 347 608 l 260 608 l 260 521 l 260 434 l 347 434 m 434 868 l 347 868 l 347 955 l 347 1042 l 434 1042 l 434 955 l 521 955 l 521 868 l 434 868 m 174 868 l 87 868 l 87 955 l 87 1042 l 174 1042 l 260 1042 l 260 955 l 260 868 l 174 868 z "},"Å":{"ha":955,"x_min":0,"x_max":868,"o":"m 694 -87 l 608 -87 l 608 0 l 608 87 l 608 174 l 608 260 l 521 260 l 521 347 l 434 347 l 347 347 l 347 260 l 260 260 l 260 174 l 260 87 l 260 0 l 174 0 l 174 -87 l 87 -87 l 0 -87 l 0 0 l 0 87 l 87 87 l 87 174 l 87 260 l 0 260 l 0 347 l 87 347 l 87 434 l 87 521 l 87 608 l 87 694 l 174 694 l 174 781 l 87 781 l 87 868 l 87 955 l 174 955 l 174 1042 l 260 1042 l 347 1042 l 434 1042 l 434 955 l 521 955 l 521 868 l 521 781 l 434 781 l 434 694 l 521 694 l 521 608 l 608 608 l 608 521 l 694 521 l 781 521 l 868 521 l 868 434 l 868 347 l 781 347 l 694 347 l 694 260 l 781 260 l 781 174 l 868 174 l 868 87 l 868 0 l 781 0 l 781 -87 l 694 -87 m 347 434 l 434 434 l 434 521 l 434 608 l 347 608 l 260 608 l 260 521 l 260 434 l 347 434 m 260 781 l 347 781 l 347 868 l 347 955 l 260 955 l 174 955 l 174 868 l 174 781 l 260 781 z "},"Æ":{"ha":1215,"x_min":0,"x_max":1128,"o":"m 1042 -87 l 955 -87 l 955 0 l 868 0 l 868 87 l 781 87 l 694 87 l 694 0 l 608 0 l 521 0 l 521 87 l 521 174 l 608 174 l 608 260 l 608 347 l 608 434 l 521 434 l 434 434 l 434 347 l 347 347 l 347 260 l 347 174 l 260 174 l 260 87 l 260 0 l 174 0 l 174 -87 l 87 -87 l 0 -87 l 0 0 l 0 87 l 0 174 l 87 174 l 87 260 l 174 260 l 174 347 l 260 347 l 260 434 l 174 434 l 87 434 l 87 521 l 174 521 l 260 521 l 260 608 l 347 608 l 347 694 l 347 781 l 434 781 l 434 868 l 434 955 l 521 955 l 608 955 l 694 955 l 694 868 l 781 868 l 781 781 l 868 781 l 955 781 l 955 868 l 1042 868 l 1128 868 l 1128 781 l 1128 694 l 1042 694 l 1042 608 l 955 608 l 868 608 l 781 608 l 781 521 l 868 521 l 955 521 l 1042 521 l 1042 434 l 1042 347 l 955 347 l 868 347 l 781 347 l 781 260 l 781 174 l 868 174 l 955 174 l 1042 174 l 1042 87 l 1128 87 l 1128 0 l 1128 -87 l 1042 -87 m 521 521 l 608 521 l 608 608 l 608 694 l 521 694 l 521 608 l 434 608 l 434 521 l 521 521 z "},"Ç":{"ha":781,"x_min":0,"x_max":694,"o":"m 347 -347 l 260 -347 l 260 -260 l 174 -260 l 174 -174 l 260 -174 l 347 -174 l 434 -174 l 434 -87 l 521 -87 l 521 -174 l 521 -260 l 434 -260 l 434 -347 l 347 -347 m 434 -87 l 347 -87 l 347 0 l 260 0 l 260 87 l 174 87 l 174 174 l 87 174 l 87 260 l 87 347 l 0 347 l 0 434 l 0 521 l 0 608 l 87 608 l 87 694 l 87 781 l 174 781 l 174 868 l 260 868 l 347 868 l 434 868 l 434 781 l 521 781 l 521 694 l 521 608 l 434 608 l 347 608 l 347 694 l 260 694 l 260 608 l 174 608 l 174 521 l 174 434 l 174 347 l 174 260 l 260 260 l 260 174 l 347 174 l 434 174 l 521 174 l 521 260 l 521 347 l 521 434 l 608 434 l 694 434 l 694 347 l 694 260 l 694 174 l 608 174 l 608 87 l 521 87 l 521 0 l 434 0 l 434 -87 z "},"È":{"ha":781,"x_min":0,"x_max":694,"o":"m 608 -87 l 521 -87 l 521 0 l 434 0 l 434 87 l 347 87 l 260 87 l 174 87 l 174 0 l 87 0 l 0 0 l 0 87 l 0 174 l 87 174 l 87 260 l 87 347 l 0 347 l 0 434 l 87 434 l 87 521 l 87 608 l 0 608 l 0 694 l 0 781 l 0 868 l 87 868 l 174 868 l 174 781 l 260 781 l 260 694 l 347 694 l 434 694 l 434 781 l 521 781 l 608 781 l 694 781 l 694 694 l 694 608 l 608 608 l 608 521 l 521 521 l 434 521 l 347 521 l 260 521 l 260 434 l 347 434 l 434 434 l 521 434 l 521 347 l 521 260 l 434 260 l 347 260 l 260 260 l 260 174 l 347 174 l 434 174 l 521 174 l 608 174 l 608 87 l 694 87 l 694 0 l 694 -87 l 608 -87 m 347 868 l 260 868 l 260 955 l 174 955 l 174 1042 l 260 1042 l 347 1042 l 347 955 l 434 955 l 434 868 l 347 868 z "},"É":{"ha":781,"x_min":0,"x_max":694,"o":"m 608 -87 l 521 -87 l 521 0 l 434 0 l 434 87 l 347 87 l 260 87 l 174 87 l 174 0 l 87 0 l 0 0 l 0 87 l 0 174 l 87 174 l 87 260 l 87 347 l 0 347 l 0 434 l 87 434 l 87 521 l 87 608 l 0 608 l 0 694 l 0 781 l 0 868 l 87 868 l 174 868 l 174 781 l 260 781 l 260 694 l 347 694 l 434 694 l 434 781 l 521 781 l 608 781 l 694 781 l 694 694 l 694 608 l 608 608 l 608 521 l 521 521 l 434 521 l 347 521 l 260 521 l 260 434 l 347 434 l 434 434 l 521 434 l 521 347 l 521 260 l 434 260 l 347 260 l 260 260 l 260 174 l 347 174 l 434 174 l 521 174 l 608 174 l 608 87 l 694 87 l 694 0 l 694 -87 l 608 -87 m 347 868 l 260 868 l 260 955 l 347 955 l 347 1042 l 434 1042 l 521 1042 l 521 955 l 434 955 l 434 868 l 347 868 z "},"Ê":{"ha":781,"x_min":0,"x_max":694,"o":"m 608 -87 l 521 -87 l 521 0 l 434 0 l 434 87 l 347 87 l 260 87 l 174 87 l 174 0 l 87 0 l 0 0 l 0 87 l 0 174 l 87 174 l 87 260 l 87 347 l 0 347 l 0 434 l 87 434 l 87 521 l 87 608 l 0 608 l 0 694 l 0 781 l 0 868 l 87 868 l 174 868 l 174 781 l 260 781 l 260 694 l 347 694 l 434 694 l 521 694 l 521 781 l 608 781 l 694 781 l 694 694 l 694 608 l 608 608 l 608 521 l 521 521 l 434 521 l 347 521 l 260 521 l 260 434 l 347 434 l 434 434 l 521 434 l 521 347 l 521 260 l 434 260 l 347 260 l 260 260 l 260 174 l 347 174 l 434 174 l 521 174 l 608 174 l 608 87 l 694 87 l 694 0 l 694 -87 l 608 -87 m 521 781 l 434 781 l 434 868 l 347 868 l 347 781 l 260 781 l 260 868 l 347 868 l 347 955 l 347 1042 l 434 1042 l 434 955 l 521 955 l 521 868 l 521 781 z "},"Ë":{"ha":781,"x_min":0,"x_max":694,"o":"m 608 -87 l 521 -87 l 521 0 l 434 0 l 434 87 l 347 87 l 260 87 l 174 87 l 174 0 l 87 0 l 0 0 l 0 87 l 0 174 l 87 174 l 87 260 l 87 347 l 0 347 l 0 434 l 87 434 l 87 521 l 87 608 l 0 608 l 0 694 l 0 781 l 0 868 l 87 868 l 174 868 l 174 781 l 260 781 l 260 694 l 347 694 l 434 694 l 434 781 l 521 781 l 608 781 l 694 781 l 694 694 l 694 608 l 608 608 l 608 521 l 521 521 l 434 521 l 347 521 l 260 521 l 260 434 l 347 434 l 434 434 l 521 434 l 521 347 l 521 260 l 434 260 l 347 260 l 260 260 l 260 174 l 347 174 l 434 174 l 521 174 l 608 174 l 608 87 l 694 87 l 694 0 l 694 -87 l 608 -87 m 521 868 l 434 868 l 434 955 l 434 1042 l 521 1042 l 521 955 l 608 955 l 608 868 l 521 868 m 174 868 l 174 955 l 174 1042 l 260 1042 l 347 1042 l 347 955 l 347 868 l 260 868 l 174 868 z "},"Ì":{"ha":347,"x_min":0,"x_max":260,"o":"m 174 -87 l 87 -87 l 87 0 l 0 0 l 0 87 l 0 174 l 0 260 l 0 347 l 87 347 l 87 434 l 87 521 l 87 608 l 0 608 l 0 694 l 0 781 l 87 781 l 174 781 l 174 694 l 260 694 l 260 608 l 260 521 l 260 434 l 260 347 l 174 347 l 174 260 l 174 174 l 260 174 l 260 87 l 260 0 l 260 -87 l 174 -87 m 174 868 l 87 868 l 87 955 l 0 955 l 0 1042 l 87 1042 l 174 1042 l 174 955 l 260 955 l 260 868 l 174 868 z "},"Í":{"ha":347,"x_min":0,"x_max":260,"o":"m 174 -87 l 87 -87 l 87 0 l 0 0 l 0 87 l 0 174 l 0 260 l 0 347 l 87 347 l 87 434 l 87 521 l 87 608 l 0 608 l 0 694 l 0 781 l 87 781 l 174 781 l 174 694 l 260 694 l 260 608 l 260 521 l 260 434 l 260 347 l 174 347 l 174 260 l 174 174 l 260 174 l 260 87 l 260 0 l 260 -87 l 174 -87 m 87 868 l 0 868 l 0 955 l 87 955 l 87 1042 l 174 1042 l 260 1042 l 260 955 l 174 955 l 174 868 l 87 868 z "},"Î":{"ha":347,"x_min":0,"x_max":260,"o":"m 174 781 l 174 868 l 87 868 l 87 781 l 0 781 l 0 868 l 87 868 l 87 955 l 87 1042 l 174 1042 l 174 955 l 260 955 l 260 868 l 260 781 l 174 781 m 174 -87 l 87 -87 l 87 0 l 0 0 l 0 87 l 0 174 l 0 260 l 0 347 l 87 347 l 87 434 l 87 521 l 0 521 l 0 608 l 0 694 l 87 694 l 174 694 l 174 608 l 260 608 l 260 521 l 260 434 l 260 347 l 174 347 l 174 260 l 174 174 l 260 174 l 260 87 l 260 0 l 260 -87 l 174 -87 z "},"Ï":{"ha":434,"x_min":-87,"x_max":347,"o":"m 174 -87 l 87 -87 l 87 0 l 0 0 l 0 87 l 0 174 l 0 260 l 0 347 l 87 347 l 87 434 l 87 521 l 87 608 l 0 608 l 0 694 l 0 781 l 87 781 l 174 781 l 174 694 l 260 694 l 260 608 l 260 521 l 260 434 l 260 347 l 174 347 l 174 260 l 174 174 l 260 174 l 260 87 l 260 0 l 260 -87 l 174 -87 m 260 868 l 174 868 l 174 955 l 174 1042 l 260 1042 l 260 955 l 347 955 l 347 868 l 260 868 m 0 868 l -87 868 l -87 955 l -87 1042 l 0 1042 l 87 1042 l 87 955 l 87 868 l 0 868 z "},"Ð":{"ha":781,"x_min":0,"x_max":694,"o":"m 434 0 l 347 0 l 260 0 l 174 0 l 174 87 l 87 87 l 87 174 l 87 260 l 87 347 l 174 347 l 174 434 l 87 434 l 0 434 l 0 521 l 87 521 l 174 521 l 174 608 l 87 608 l 87 694 l 87 781 l 87 868 l 174 868 l 260 868 l 260 781 l 347 781 l 347 868 l 434 868 l 521 868 l 521 781 l 608 781 l 608 694 l 694 694 l 694 608 l 694 521 l 694 434 l 694 347 l 694 260 l 694 174 l 608 174 l 608 87 l 521 87 l 521 0 l 434 0 m 347 174 l 434 174 l 434 260 l 521 260 l 521 347 l 521 434 l 521 521 l 521 608 l 521 694 l 434 694 l 347 694 l 347 608 l 347 521 l 434 521 l 434 434 l 434 347 l 347 347 l 260 347 l 260 260 l 260 174 l 347 174 z "},"Ñ":{"ha":694,"x_min":0,"x_max":608,"o":"m 87 -87 l 87 0 l 0 0 l 0 87 l 0 174 l 0 260 l 0 347 l 0 434 l 0 521 l 0 608 l 0 694 l 87 694 l 87 781 l 174 781 l 174 694 l 260 694 l 260 608 l 260 521 l 347 521 l 347 434 l 347 347 l 434 347 l 434 434 l 434 521 l 434 608 l 434 694 l 434 781 l 521 781 l 521 868 l 608 868 l 608 781 l 608 694 l 608 608 l 608 521 l 608 434 l 608 347 l 521 347 l 521 260 l 521 174 l 521 87 l 521 0 l 434 0 l 347 0 l 347 87 l 347 174 l 260 174 l 260 260 l 260 347 l 260 434 l 174 434 l 174 347 l 174 260 l 174 174 l 174 87 l 174 0 l 174 -87 l 87 -87 m 87 868 l 87 955 l 174 955 l 174 868 l 87 868 m 347 868 l 260 868 l 260 955 l 174 955 l 174 1042 l 260 1042 l 347 1042 l 347 955 l 434 955 l 434 868 l 347 868 m 434 955 l 434 1042 l 521 1042 l 521 955 l 434 955 z "},"Ò":{"ha":781,"x_min":0,"x_max":694,"o":"m 434 -87 l 347 -87 l 260 -87 l 174 -87 l 174 0 l 87 0 l 87 87 l 0 87 l 0 174 l 0 260 l 0 347 l 0 434 l 0 521 l 87 521 l 87 608 l 87 694 l 174 694 l 174 781 l 260 781 l 347 781 l 434 781 l 434 694 l 521 694 l 521 608 l 608 608 l 608 521 l 608 434 l 694 434 l 694 347 l 694 260 l 694 174 l 694 87 l 608 87 l 608 0 l 521 0 l 521 -87 l 434 -87 m 347 87 l 434 87 l 434 174 l 521 174 l 521 260 l 521 347 l 521 434 l 434 434 l 434 521 l 434 608 l 347 608 l 347 694 l 260 694 l 260 608 l 260 521 l 174 521 l 174 434 l 174 347 l 174 260 l 174 174 l 260 174 l 260 87 l 347 87 m 347 868 l 260 868 l 260 955 l 174 955 l 174 1042 l 260 1042 l 347 1042 l 347 955 l 434 955 l 434 868 l 347 868 z "},"Ó":{"ha":781,"x_min":0,"x_max":694,"o":"m 434 -87 l 347 -87 l 260 -87 l 174 -87 l 174 0 l 87 0 l 87 87 l 0 87 l 0 174 l 0 260 l 0 347 l 0 434 l 0 521 l 87 521 l 87 608 l 87 694 l 174 694 l 174 781 l 260 781 l 347 781 l 434 781 l 434 694 l 521 694 l 521 608 l 608 608 l 608 521 l 608 434 l 694 434 l 694 347 l 694 260 l 694 174 l 694 87 l 608 87 l 608 0 l 521 0 l 521 -87 l 434 -87 m 347 87 l 434 87 l 434 174 l 521 174 l 521 260 l 521 347 l 521 434 l 434 434 l 434 521 l 434 608 l 347 608 l 347 694 l 260 694 l 260 608 l 260 521 l 174 521 l 174 434 l 174 347 l 174 260 l 174 174 l 260 174 l 260 87 l 347 87 m 260 868 l 174 868 l 174 955 l 260 955 l 260 1042 l 347 1042 l 434 1042 l 434 955 l 347 955 l 347 868 l 260 868 z "},"Ô":{"ha":781,"x_min":0,"x_max":694,"o":"m 347 781 l 347 868 l 260 868 l 260 781 l 174 781 l 174 868 l 260 868 l 260 955 l 260 1042 l 347 1042 l 347 955 l 434 955 l 434 868 l 434 781 l 347 781 m 434 -87 l 347 -87 l 260 -87 l 174 -87 l 174 0 l 87 0 l 87 87 l 0 87 l 0 174 l 0 260 l 0 347 l 0 434 l 87 434 l 87 521 l 87 608 l 174 608 l 174 694 l 260 694 l 347 694 l 434 694 l 434 608 l 521 608 l 521 521 l 608 521 l 608 434 l 608 347 l 694 347 l 694 260 l 694 174 l 694 87 l 608 87 l 608 0 l 521 0 l 521 -87 l 434 -87 m 347 87 l 434 87 l 434 174 l 521 174 l 521 260 l 521 347 l 434 347 l 434 434 l 434 521 l 347 521 l 347 608 l 260 608 l 260 521 l 260 434 l 174 434 l 174 347 l 174 260 l 174 174 l 260 174 l 260 87 l 347 87 z "},"Õ":{"ha":781,"x_min":0,"x_max":694,"o":"m 87 868 l 87 955 l 174 955 l 174 868 l 87 868 m 434 -87 l 347 -87 l 260 -87 l 174 -87 l 174 0 l 87 0 l 87 87 l 0 87 l 0 174 l 0 260 l 0 347 l 0 434 l 0 521 l 87 521 l 87 608 l 87 694 l 174 694 l 174 781 l 260 781 l 347 781 l 434 781 l 434 694 l 521 694 l 521 608 l 608 608 l 608 521 l 608 434 l 694 434 l 694 347 l 694 260 l 694 174 l 694 87 l 608 87 l 608 0 l 521 0 l 521 -87 l 434 -87 m 347 87 l 434 87 l 434 174 l 521 174 l 521 260 l 521 347 l 521 434 l 434 434 l 434 521 l 434 608 l 347 608 l 347 694 l 260 694 l 260 608 l 260 521 l 174 521 l 174 434 l 174 347 l 174 260 l 174 174 l 260 174 l 260 87 l 347 87 m 347 868 l 260 868 l 260 955 l 174 955 l 174 1042 l 260 1042 l 347 1042 l 347 955 l 434 955 l 434 868 l 347 868 m 434 955 l 434 1042 l 521 1042 l 521 955 l 434 955 z "},"Ö":{"ha":781,"x_min":0,"x_max":694,"o":"m 434 -87 l 347 -87 l 260 -87 l 174 -87 l 174 0 l 87 0 l 87 87 l 0 87 l 0 174 l 0 260 l 0 347 l 0 434 l 0 521 l 87 521 l 87 608 l 87 694 l 174 694 l 174 781 l 260 781 l 347 781 l 434 781 l 434 694 l 521 694 l 521 608 l 608 608 l 608 521 l 608 434 l 694 434 l 694 347 l 694 260 l 694 174 l 694 87 l 608 87 l 608 0 l 521 0 l 521 -87 l 434 -87 m 347 87 l 434 87 l 434 174 l 521 174 l 521 260 l 521 347 l 521 434 l 434 434 l 434 521 l 434 608 l 347 608 l 347 694 l 260 694 l 260 608 l 260 521 l 174 521 l 174 434 l 174 347 l 174 260 l 174 174 l 260 174 l 260 87 l 347 87 m 434 868 l 347 868 l 347 955 l 347 1042 l 434 1042 l 434 955 l 521 955 l 521 868 l 434 868 m 174 868 l 87 868 l 87 955 l 87 1042 l 174 1042 l 260 1042 l 260 955 l 260 868 l 174 868 z "},"×":{"ha":608,"x_min":0,"x_max":521,"o":"m 0 174 l 0 260 l 87 260 l 87 174 l 0 174 m 434 174 l 347 174 l 347 260 l 260 260 l 174 260 l 87 260 l 87 347 l 174 347 l 174 434 l 174 521 l 260 521 l 347 521 l 347 608 l 434 608 l 521 608 l 521 521 l 521 434 l 434 434 l 347 434 l 347 347 l 434 347 l 434 260 l 521 260 l 521 174 l 434 174 m 174 521 l 87 521 l 87 608 l 174 608 l 174 521 z "},"Ø":{"ha":781,"x_min":0,"x_max":694,"o":"m 0 -174 l 0 -87 l 0 0 l 87 0 l 87 87 l 0 87 l 0 174 l 0 260 l 0 347 l 0 434 l 0 521 l 87 521 l 87 608 l 87 694 l 174 694 l 174 781 l 260 781 l 347 781 l 434 781 l 434 694 l 521 694 l 521 781 l 608 781 l 694 781 l 694 694 l 694 608 l 608 608 l 608 521 l 608 434 l 694 434 l 694 347 l 694 260 l 694 174 l 694 87 l 608 87 l 608 0 l 521 0 l 521 -87 l 434 -87 l 347 -87 l 260 -87 l 174 -87 l 87 -87 l 87 -174 l 0 -174 m 347 87 l 434 87 l 434 174 l 521 174 l 521 260 l 521 347 l 434 347 l 434 260 l 347 260 l 347 174 l 260 174 l 260 87 l 347 87 m 260 260 l 260 347 l 347 347 l 347 434 l 434 434 l 434 521 l 434 608 l 347 608 l 347 694 l 260 694 l 260 608 l 260 521 l 174 521 l 174 434 l 174 347 l 174 260 l 260 260 z "},"Ù":{"ha":694,"x_min":0,"x_max":608,"o":"m 347 0 l 260 0 l 174 0 l 174 87 l 87 87 l 87 174 l 87 260 l 0 260 l 0 347 l 0 434 l 0 521 l 0 608 l 0 694 l 0 781 l 87 781 l 174 781 l 174 694 l 174 608 l 174 521 l 174 434 l 174 347 l 174 260 l 260 260 l 260 174 l 347 174 l 347 260 l 434 260 l 434 347 l 434 434 l 434 521 l 347 521 l 347 608 l 347 694 l 434 694 l 521 694 l 521 608 l 608 608 l 608 521 l 608 434 l 608 347 l 608 260 l 521 260 l 521 174 l 521 87 l 434 87 l 434 0 l 347 0 m 347 781 l 260 781 l 260 868 l 174 868 l 174 955 l 260 955 l 347 955 l 347 868 l 434 868 l 434 781 l 347 781 z "},"Ú":{"ha":694,"x_min":0,"x_max":608,"o":"m 347 0 l 260 0 l 174 0 l 174 87 l 87 87 l 87 174 l 87 260 l 0 260 l 0 347 l 0 434 l 0 521 l 0 608 l 0 694 l 0 781 l 87 781 l 174 781 l 174 694 l 174 608 l 174 521 l 174 434 l 174 347 l 174 260 l 260 260 l 260 174 l 347 174 l 347 260 l 434 260 l 434 347 l 434 434 l 434 521 l 347 521 l 347 608 l 347 694 l 434 694 l 521 694 l 521 608 l 608 608 l 608 521 l 608 434 l 608 347 l 608 260 l 521 260 l 521 174 l 521 87 l 434 87 l 434 0 l 347 0 m 260 868 l 174 868 l 174 955 l 260 955 l 260 1042 l 347 1042 l 434 1042 l 434 955 l 347 955 l 347 868 l 260 868 z "},"Û":{"ha":694,"x_min":0,"x_max":608,"o":"m 347 781 l 347 868 l 260 868 l 260 781 l 174 781 l 174 868 l 260 868 l 260 955 l 260 1042 l 347 1042 l 347 955 l 434 955 l 434 868 l 434 781 l 347 781 m 347 0 l 260 0 l 174 0 l 174 87 l 87 87 l 87 174 l 87 260 l 0 260 l 0 347 l 0 434 l 0 521 l 0 608 l 0 694 l 0 781 l 87 781 l 87 694 l 174 694 l 174 608 l 174 521 l 174 434 l 174 347 l 174 260 l 260 260 l 260 174 l 347 174 l 347 260 l 434 260 l 434 347 l 434 434 l 434 521 l 347 521 l 347 608 l 347 694 l 434 694 l 521 694 l 521 608 l 608 608 l 608 521 l 608 434 l 608 347 l 608 260 l 521 260 l 521 174 l 521 87 l 434 87 l 434 0 l 347 0 z "},"Ü":{"ha":694,"x_min":0,"x_max":608,"o":"m 347 0 l 260 0 l 174 0 l 174 87 l 87 87 l 87 174 l 87 260 l 0 260 l 0 347 l 0 434 l 0 521 l 0 608 l 0 694 l 0 781 l 87 781 l 87 694 l 174 694 l 174 608 l 174 521 l 174 434 l 174 347 l 174 260 l 260 260 l 260 174 l 347 174 l 347 260 l 434 260 l 434 347 l 434 434 l 434 521 l 347 521 l 347 608 l 347 694 l 434 694 l 521 694 l 521 608 l 608 608 l 608 521 l 608 434 l 608 347 l 608 260 l 521 260 l 521 174 l 521 87 l 434 87 l 434 0 l 347 0 m 434 781 l 347 781 l 347 868 l 347 955 l 434 955 l 434 868 l 521 868 l 521 781 l 434 781 m 87 781 l 87 868 l 87 955 l 174 955 l 260 955 l 260 868 l 260 781 l 174 781 l 87 781 z "},"Ý":{"ha":781,"x_min":0,"x_max":694,"o":"m 260 -174 l 174 -174 l 174 -87 l 174 0 l 260 0 l 260 87 l 260 174 l 260 260 l 260 347 l 174 347 l 174 434 l 174 521 l 87 521 l 87 608 l 0 608 l 0 694 l 0 781 l 87 781 l 174 781 l 174 694 l 260 694 l 260 608 l 347 608 l 347 694 l 434 694 l 434 781 l 434 868 l 521 868 l 521 955 l 608 955 l 608 868 l 694 868 l 694 781 l 694 694 l 608 694 l 608 608 l 521 608 l 521 521 l 434 521 l 434 434 l 347 434 l 347 347 l 347 260 l 434 260 l 434 174 l 434 87 l 434 0 l 434 -87 l 347 -87 l 347 -174 l 260 -174 m 260 868 l 174 868 l 174 955 l 260 955 l 260 1042 l 347 1042 l 434 1042 l 434 955 l 347 955 l 347 868 l 260 868 z "},"Þ":{"ha":781,"x_min":0,"x_max":694,"o":"m 87 -87 l 0 -87 l 0 0 l 0 87 l 87 87 l 87 174 l 87 260 l 87 347 l 87 434 l 87 521 l 87 608 l 87 694 l 0 694 l 0 781 l 0 868 l 87 868 l 174 868 l 174 781 l 260 781 l 260 694 l 260 608 l 347 608 l 347 694 l 434 694 l 521 694 l 608 694 l 608 608 l 694 608 l 694 521 l 694 434 l 694 347 l 694 260 l 608 260 l 608 174 l 521 174 l 521 87 l 434 87 l 347 87 l 260 87 l 260 174 l 174 174 l 174 87 l 174 0 l 174 -87 l 87 -87 m 434 260 l 521 260 l 521 347 l 608 347 l 608 434 l 608 521 l 521 521 l 521 608 l 434 608 l 347 608 l 347 521 l 260 521 l 260 434 l 260 347 l 260 260 l 347 260 l 434 260 z "},"ß":{"ha":781,"x_min":0,"x_max":694,"o":"m 87 -87 l 87 0 l 0 0 l 0 87 l 0 174 l 0 260 l 0 347 l 0 434 l 87 434 l 87 521 l 87 608 l 0 608 l 0 694 l 0 781 l 87 781 l 87 868 l 174 868 l 260 868 l 347 868 l 434 868 l 434 781 l 521 781 l 521 694 l 521 608 l 521 521 l 434 521 l 434 434 l 521 434 l 521 347 l 608 347 l 608 260 l 694 260 l 694 174 l 694 87 l 694 0 l 608 0 l 608 -87 l 521 -87 l 521 -174 l 434 -174 l 347 -174 l 347 -87 l 434 -87 l 434 0 l 521 0 l 521 87 l 521 174 l 434 174 l 434 260 l 347 260 l 347 347 l 347 434 l 347 521 l 347 608 l 434 608 l 434 694 l 347 694 l 347 781 l 260 781 l 174 781 l 174 694 l 174 608 l 174 521 l 174 434 l 174 347 l 174 260 l 174 174 l 174 87 l 174 0 l 174 -87 l 87 -87 z "},"à":{"ha":694,"x_min":0,"x_max":608,"o":"m 521 -87 l 434 -87 l 434 0 l 347 0 l 260 0 l 174 0 l 87 0 l 87 87 l 0 87 l 0 174 l 0 260 l 87 260 l 87 347 l 174 347 l 260 347 l 347 347 l 434 347 l 434 434 l 434 521 l 347 521 l 260 521 l 260 434 l 174 434 l 87 434 l 87 521 l 87 608 l 174 608 l 174 694 l 260 694 l 347 694 l 434 694 l 434 608 l 521 608 l 521 521 l 608 521 l 608 434 l 608 347 l 608 260 l 521 260 l 521 174 l 521 87 l 608 87 l 608 0 l 608 -87 l 521 -87 m 347 87 l 347 174 l 347 260 l 260 260 l 174 260 l 174 174 l 260 174 l 260 87 l 347 87 m 347 781 l 260 781 l 260 868 l 174 868 l 174 955 l 260 955 l 347 955 l 347 868 l 434 868 l 434 781 l 347 781 z "},"á":{"ha":694,"x_min":0,"x_max":608,"o":"m 521 -87 l 434 -87 l 434 0 l 347 0 l 260 0 l 174 0 l 87 0 l 87 87 l 0 87 l 0 174 l 0 260 l 87 260 l 87 347 l 174 347 l 260 347 l 347 347 l 434 347 l 434 434 l 434 521 l 347 521 l 260 521 l 260 434 l 174 434 l 87 434 l 87 521 l 87 608 l 174 608 l 174 694 l 260 694 l 347 694 l 434 694 l 434 608 l 521 608 l 521 521 l 608 521 l 608 434 l 608 347 l 608 260 l 521 260 l 521 174 l 521 87 l 608 87 l 608 0 l 608 -87 l 521 -87 m 347 87 l 347 174 l 347 260 l 260 260 l 174 260 l 174 174 l 260 174 l 260 87 l 347 87 m 347 781 l 260 781 l 260 868 l 347 868 l 347 955 l 434 955 l 521 955 l 521 868 l 434 868 l 434 781 l 347 781 z "},"â":{"ha":694,"x_min":0,"x_max":608,"o":"m 347 781 l 347 868 l 260 868 l 260 781 l 174 781 l 174 868 l 260 868 l 260 955 l 260 1042 l 347 1042 l 347 955 l 434 955 l 434 868 l 434 781 l 347 781 m 521 -87 l 434 -87 l 434 0 l 347 0 l 260 0 l 174 0 l 87 0 l 87 87 l 0 87 l 0 174 l 0 260 l 87 260 l 87 347 l 174 347 l 260 347 l 347 347 l 434 347 l 434 434 l 434 521 l 347 521 l 260 521 l 260 434 l 174 434 l 87 434 l 87 521 l 87 608 l 174 608 l 174 694 l 260 694 l 347 694 l 434 694 l 434 608 l 521 608 l 521 521 l 608 521 l 608 434 l 608 347 l 608 260 l 521 260 l 521 174 l 521 87 l 608 87 l 608 0 l 608 -87 l 521 -87 m 347 87 l 347 174 l 347 260 l 260 260 l 174 260 l 174 174 l 260 174 l 260 87 l 347 87 z "},"ã":{"ha":694,"x_min":0,"x_max":608,"o":"m 174 781 l 174 868 l 260 868 l 260 781 l 174 781 m 521 -87 l 434 -87 l 434 0 l 347 0 l 260 0 l 174 0 l 87 0 l 87 87 l 0 87 l 0 174 l 0 260 l 87 260 l 87 347 l 174 347 l 260 347 l 347 347 l 434 347 l 434 434 l 434 521 l 347 521 l 260 521 l 260 434 l 174 434 l 87 434 l 87 521 l 87 608 l 174 608 l 174 694 l 260 694 l 347 694 l 434 694 l 434 608 l 521 608 l 521 521 l 608 521 l 608 434 l 608 347 l 608 260 l 521 260 l 521 174 l 521 87 l 608 87 l 608 0 l 608 -87 l 521 -87 m 347 87 l 347 174 l 347 260 l 260 260 l 174 260 l 174 174 l 260 174 l 260 87 l 347 87 m 434 781 l 347 781 l 347 868 l 260 868 l 260 955 l 347 955 l 434 955 l 434 868 l 521 868 l 521 781 l 434 781 m 521 868 l 521 955 l 608 955 l 608 868 l 521 868 z "},"ä":{"ha":694,"x_min":0,"x_max":608,"o":"m 521 -87 l 434 -87 l 434 0 l 347 0 l 260 0 l 174 0 l 87 0 l 87 87 l 0 87 l 0 174 l 0 260 l 87 260 l 87 347 l 174 347 l 260 347 l 347 347 l 434 347 l 434 434 l 434 521 l 347 521 l 260 521 l 260 434 l 174 434 l 87 434 l 87 521 l 87 608 l 174 608 l 174 694 l 260 694 l 347 694 l 434 694 l 434 608 l 521 608 l 521 521 l 608 521 l 608 434 l 608 347 l 608 260 l 521 260 l 521 174 l 521 87 l 608 87 l 608 0 l 608 -87 l 521 -87 m 347 87 l 347 174 l 347 260 l 260 260 l 174 260 l 174 174 l 260 174 l 260 87 l 347 87 m 434 781 l 347 781 l 347 868 l 347 955 l 434 955 l 434 868 l 521 868 l 521 781 l 434 781 m 174 781 l 87 781 l 87 868 l 87 955 l 174 955 l 260 955 l 260 868 l 260 781 l 174 781 z "},"å":{"ha":694,"x_min":0,"x_max":608,"o":"m 521 -87 l 434 -87 l 434 0 l 347 0 l 260 0 l 174 0 l 87 0 l 87 87 l 0 87 l 0 174 l 0 260 l 87 260 l 87 347 l 174 347 l 260 347 l 347 347 l 434 347 l 434 434 l 434 521 l 347 521 l 260 521 l 260 434 l 174 434 l 87 434 l 87 521 l 87 608 l 174 608 l 174 694 l 260 694 l 260 781 l 174 781 l 174 868 l 174 955 l 260 955 l 260 1042 l 347 1042 l 434 1042 l 521 1042 l 521 955 l 608 955 l 608 868 l 608 781 l 521 781 l 521 694 l 434 694 l 434 608 l 521 608 l 521 521 l 608 521 l 608 434 l 608 347 l 608 260 l 521 260 l 521 174 l 521 87 l 608 87 l 608 0 l 608 -87 l 521 -87 m 347 87 l 347 174 l 347 260 l 260 260 l 174 260 l 174 174 l 260 174 l 260 87 l 347 87 m 347 781 l 434 781 l 434 868 l 434 955 l 347 955 l 260 955 l 260 868 l 260 781 l 347 781 z "},"æ":{"ha":1128,"x_min":0,"x_max":1042,"o":"m 521 -87 l 434 -87 l 434 0 l 347 0 l 260 0 l 174 0 l 87 0 l 87 87 l 0 87 l 0 174 l 0 260 l 87 260 l 87 347 l 174 347 l 260 347 l 347 347 l 434 347 l 434 434 l 434 521 l 347 521 l 260 521 l 260 434 l 174 434 l 87 434 l 87 521 l 87 608 l 174 608 l 174 694 l 260 694 l 347 694 l 434 694 l 434 608 l 521 608 l 521 521 l 608 521 l 608 608 l 694 608 l 781 608 l 868 608 l 868 521 l 955 521 l 955 434 l 955 347 l 868 347 l 868 260 l 781 260 l 694 260 l 608 260 l 608 174 l 694 174 l 694 87 l 781 87 l 781 174 l 868 174 l 868 260 l 955 260 l 1042 260 l 1042 174 l 1042 87 l 955 87 l 955 0 l 868 0 l 781 0 l 694 0 l 608 0 l 608 -87 l 521 -87 m 347 87 l 347 174 l 347 260 l 260 260 l 174 260 l 174 174 l 260 174 l 260 87 l 347 87 m 694 347 l 781 347 l 781 434 l 781 521 l 694 521 l 694 434 l 608 434 l 608 347 l 694 347 z "},"ç":{"ha":694,"x_min":0,"x_max":608,"o":"m 260 -347 l 174 -347 l 174 -260 l 87 -260 l 87 -174 l 174 -174 l 260 -174 l 347 -174 l 347 -87 l 434 -87 l 434 -174 l 434 -260 l 347 -260 l 347 -347 l 260 -347 m 347 -87 l 260 -87 l 260 0 l 174 0 l 174 87 l 87 87 l 87 174 l 0 174 l 0 260 l 0 347 l 0 434 l 87 434 l 87 521 l 174 521 l 174 608 l 260 608 l 347 608 l 434 608 l 434 521 l 521 521 l 521 434 l 521 347 l 434 347 l 347 347 l 347 434 l 260 434 l 174 434 l 174 347 l 174 260 l 174 174 l 260 174 l 260 87 l 347 87 l 347 174 l 434 174 l 434 260 l 521 260 l 608 260 l 608 174 l 608 87 l 521 87 l 521 0 l 434 0 l 347 0 l 347 -87 z "},"è":{"ha":694,"x_min":0,"x_max":608,"o":"m 434 0 l 347 0 l 260 0 l 174 0 l 174 87 l 87 87 l 87 174 l 0 174 l 0 260 l 0 347 l 0 434 l 87 434 l 87 521 l 174 521 l 174 608 l 260 608 l 347 608 l 434 608 l 434 521 l 521 521 l 521 434 l 521 347 l 434 347 l 434 260 l 347 260 l 260 260 l 174 260 l 174 174 l 260 174 l 260 87 l 347 87 l 347 174 l 434 174 l 434 260 l 521 260 l 608 260 l 608 174 l 608 87 l 521 87 l 521 0 l 434 0 m 260 347 l 347 347 l 347 434 l 347 521 l 260 521 l 260 434 l 174 434 l 174 347 l 260 347 m 260 694 l 174 694 l 174 781 l 87 781 l 87 868 l 174 868 l 260 868 l 260 781 l 347 781 l 347 694 l 260 694 z "},"é":{"ha":694,"x_min":0,"x_max":608,"o":"m 434 0 l 347 0 l 260 0 l 174 0 l 174 87 l 87 87 l 87 174 l 0 174 l 0 260 l 0 347 l 0 434 l 87 434 l 87 521 l 174 521 l 174 608 l 260 608 l 347 608 l 434 608 l 434 521 l 521 521 l 521 434 l 521 347 l 434 347 l 434 260 l 347 260 l 260 260 l 174 260 l 174 174 l 260 174 l 260 87 l 347 87 l 347 174 l 434 174 l 434 260 l 521 260 l 608 260 l 608 174 l 608 87 l 521 87 l 521 0 l 434 0 m 260 347 l 347 347 l 347 434 l 347 521 l 260 521 l 260 434 l 174 434 l 174 347 l 260 347 m 260 694 l 174 694 l 174 781 l 260 781 l 260 868 l 347 868 l 434 868 l 434 781 l 347 781 l 347 694 l 260 694 z "},"ê":{"ha":694,"x_min":0,"x_max":608,"o":"m 347 694 l 347 781 l 260 781 l 260 694 l 174 694 l 174 781 l 260 781 l 260 868 l 260 955 l 347 955 l 347 868 l 434 868 l 434 781 l 434 694 l 347 694 m 434 0 l 347 0 l 260 0 l 174 0 l 174 87 l 87 87 l 87 174 l 0 174 l 0 260 l 0 347 l 0 434 l 87 434 l 87 521 l 174 521 l 174 608 l 260 608 l 347 608 l 434 608 l 434 521 l 521 521 l 521 434 l 521 347 l 434 347 l 434 260 l 347 260 l 260 260 l 174 260 l 174 174 l 260 174 l 260 87 l 347 87 l 347 174 l 434 174 l 434 260 l 521 260 l 608 260 l 608 174 l 608 87 l 521 87 l 521 0 l 434 0 m 260 347 l 347 347 l 347 434 l 347 521 l 260 521 l 260 434 l 174 434 l 174 347 l 260 347 z "},"ë":{"ha":694,"x_min":0,"x_max":608,"o":"m 434 0 l 347 0 l 260 0 l 174 0 l 174 87 l 87 87 l 87 174 l 0 174 l 0 260 l 0 347 l 0 434 l 87 434 l 87 521 l 174 521 l 174 608 l 260 608 l 347 608 l 434 608 l 434 521 l 521 521 l 521 434 l 521 347 l 434 347 l 434 260 l 347 260 l 260 260 l 174 260 l 174 174 l 260 174 l 260 87 l 347 87 l 347 174 l 434 174 l 434 260 l 521 260 l 608 260 l 608 174 l 608 87 l 521 87 l 521 0 l 434 0 m 260 347 l 347 347 l 347 434 l 347 521 l 260 521 l 260 434 l 174 434 l 174 347 l 260 347 m 434 694 l 347 694 l 347 781 l 347 868 l 434 868 l 434 781 l 521 781 l 521 694 l 434 694 m 174 694 l 87 694 l 87 781 l 87 868 l 174 868 l 260 868 l 260 781 l 260 694 l 174 694 z "},"ì":{"ha":347,"x_min":-87,"x_max":260,"o":"m 174 -87 l 87 -87 l 87 0 l 0 0 l 0 87 l 0 174 l 0 260 l 0 347 l 0 434 l 0 521 l 87 521 l 87 434 l 174 434 l 174 347 l 174 260 l 174 174 l 174 87 l 260 87 l 260 0 l 260 -87 l 174 -87 m 87 608 l 0 608 l 0 694 l -87 694 l -87 781 l 0 781 l 87 781 l 87 694 l 174 694 l 174 608 l 87 608 z "},"í":{"ha":347,"x_min":0,"x_max":260,"o":"m 174 -87 l 87 -87 l 87 0 l 0 0 l 0 87 l 0 174 l 0 260 l 0 347 l 0 434 l 0 521 l 87 521 l 87 434 l 174 434 l 174 347 l 174 260 l 174 174 l 174 87 l 260 87 l 260 0 l 260 -87 l 174 -87 m 87 608 l 0 608 l 0 694 l 87 694 l 87 781 l 174 781 l 260 781 l 260 694 l 174 694 l 174 608 l 87 608 z "},"î":{"ha":347,"x_min":-87,"x_max":260,"o":"m 87 608 l 87 694 l 0 694 l 0 608 l -87 608 l -87 694 l 0 694 l 0 781 l 0 868 l 87 868 l 87 781 l 174 781 l 174 694 l 174 608 l 87 608 m 174 -87 l 87 -87 l 87 0 l 0 0 l 0 87 l 0 174 l 0 260 l 0 347 l 0 434 l 0 521 l 87 521 l 87 434 l 174 434 l 174 347 l 174 260 l 174 174 l 174 87 l 260 87 l 260 0 l 260 -87 l 174 -87 z "},"ï":{"ha":434,"x_min":-87,"x_max":347,"o":"m 174 -87 l 87 -87 l 87 0 l 0 0 l 0 87 l 0 174 l 0 260 l 0 347 l 0 434 l 0 521 l 87 521 l 87 434 l 174 434 l 174 347 l 174 260 l 174 174 l 174 87 l 260 87 l 260 0 l 260 -87 l 174 -87 m 260 608 l 174 608 l 174 694 l 174 781 l 260 781 l 260 694 l 347 694 l 347 608 l 260 608 m 0 608 l -87 608 l -87 694 l -87 781 l 0 781 l 87 781 l 87 694 l 87 608 l 0 608 z "},"ð":{"ha":781,"x_min":0,"x_max":694,"o":"m 347 -87 l 260 -87 l 174 -87 l 87 -87 l 87 0 l 0 0 l 0 87 l 0 174 l 0 260 l 87 260 l 87 347 l 174 347 l 260 347 l 347 347 l 434 347 l 434 434 l 347 434 l 347 521 l 260 521 l 260 434 l 174 434 l 87 434 l 87 521 l 174 521 l 174 608 l 260 608 l 260 694 l 174 694 l 87 694 l 87 781 l 87 868 l 174 868 l 260 868 l 260 781 l 347 781 l 347 694 l 434 694 l 521 694 l 521 781 l 608 781 l 694 781 l 694 694 l 694 608 l 608 608 l 521 608 l 434 608 l 434 521 l 521 521 l 521 434 l 521 347 l 521 260 l 608 260 l 608 174 l 608 87 l 521 87 l 521 0 l 434 0 l 434 -87 l 347 -87 m 260 0 l 347 0 l 347 87 l 434 87 l 434 174 l 347 174 l 347 260 l 260 260 l 174 260 l 174 174 l 87 174 l 87 87 l 174 87 l 174 0 l 260 0 z "},"ñ":{"ha":694,"x_min":0,"x_max":608,"o":"m 87 694 l 87 781 l 174 781 l 174 694 l 87 694 m 434 -87 l 347 -87 l 347 0 l 347 87 l 434 87 l 434 174 l 434 260 l 434 347 l 434 434 l 347 434 l 260 434 l 260 347 l 260 260 l 260 174 l 260 87 l 174 87 l 174 0 l 87 0 l 0 0 l 0 87 l 0 174 l 87 174 l 87 260 l 87 347 l 0 347 l 0 434 l 0 521 l 0 608 l 87 608 l 174 608 l 174 521 l 260 521 l 260 608 l 347 608 l 434 608 l 434 521 l 521 521 l 521 434 l 608 434 l 608 347 l 608 260 l 608 174 l 608 87 l 608 0 l 521 0 l 521 -87 l 434 -87 m 347 694 l 260 694 l 260 781 l 174 781 l 174 868 l 260 868 l 347 868 l 347 781 l 434 781 l 434 694 l 347 694 m 434 781 l 434 868 l 521 868 l 521 781 l 434 781 z "},"ò":{"ha":608,"x_min":0,"x_max":521,"o":"m 347 0 l 260 0 l 174 0 l 87 0 l 87 87 l 0 87 l 0 174 l 0 260 l 0 347 l 0 434 l 87 434 l 87 521 l 174 521 l 174 608 l 260 608 l 347 608 l 434 608 l 434 521 l 521 521 l 521 434 l 521 347 l 521 260 l 521 174 l 521 87 l 434 87 l 434 0 l 347 0 m 260 174 l 347 174 l 347 260 l 434 260 l 434 347 l 434 434 l 347 434 l 347 521 l 260 521 l 260 434 l 174 434 l 174 347 l 174 260 l 174 174 l 260 174 m 347 694 l 260 694 l 260 781 l 174 781 l 174 868 l 260 868 l 347 868 l 347 781 l 434 781 l 434 694 l 347 694 z "},"ó":{"ha":608,"x_min":0,"x_max":521,"o":"m 347 0 l 260 0 l 174 0 l 87 0 l 87 87 l 0 87 l 0 174 l 0 260 l 0 347 l 0 434 l 87 434 l 87 521 l 174 521 l 174 608 l 260 608 l 347 608 l 434 608 l 434 521 l 521 521 l 521 434 l 521 347 l 521 260 l 521 174 l 521 87 l 434 87 l 434 0 l 347 0 m 260 174 l 347 174 l 347 260 l 434 260 l 434 347 l 434 434 l 347 434 l 347 521 l 260 521 l 260 434 l 174 434 l 174 347 l 174 260 l 174 174 l 260 174 m 260 694 l 174 694 l 174 781 l 260 781 l 260 868 l 347 868 l 434 868 l 434 781 l 347 781 l 347 694 l 260 694 z "},"ô":{"ha":608,"x_min":0,"x_max":521,"o":"m 347 694 l 347 781 l 260 781 l 260 694 l 174 694 l 174 781 l 260 781 l 260 868 l 260 955 l 347 955 l 347 868 l 434 868 l 434 781 l 434 694 l 347 694 m 347 0 l 260 0 l 174 0 l 87 0 l 87 87 l 0 87 l 0 174 l 0 260 l 0 347 l 0 434 l 87 434 l 87 521 l 174 521 l 174 608 l 260 608 l 347 608 l 434 608 l 434 521 l 521 521 l 521 434 l 521 347 l 521 260 l 521 174 l 521 87 l 434 87 l 434 0 l 347 0 m 260 174 l 347 174 l 347 260 l 434 260 l 434 347 l 434 434 l 347 434 l 347 521 l 260 521 l 260 434 l 174 434 l 174 347 l 174 260 l 174 174 l 260 174 z "},"õ":{"ha":608,"x_min":0,"x_max":521,"o":"m 87 694 l 87 781 l 174 781 l 174 694 l 87 694 m 347 0 l 260 0 l 174 0 l 87 0 l 87 87 l 0 87 l 0 174 l 0 260 l 0 347 l 0 434 l 87 434 l 87 521 l 174 521 l 174 608 l 260 608 l 347 608 l 434 608 l 434 521 l 521 521 l 521 434 l 521 347 l 521 260 l 521 174 l 521 87 l 434 87 l 434 0 l 347 0 m 260 174 l 347 174 l 347 260 l 434 260 l 434 347 l 434 434 l 347 434 l 347 521 l 260 521 l 260 434 l 174 434 l 174 347 l 174 260 l 174 174 l 260 174 m 347 694 l 260 694 l 260 781 l 174 781 l 174 868 l 260 868 l 347 868 l 347 781 l 434 781 l 434 694 l 347 694 m 434 781 l 434 868 l 521 868 l 521 781 l 434 781 z "},"ö":{"ha":608,"x_min":0,"x_max":521,"o":"m 347 0 l 260 0 l 174 0 l 87 0 l 87 87 l 0 87 l 0 174 l 0 260 l 0 347 l 0 434 l 87 434 l 87 521 l 174 521 l 174 608 l 260 608 l 347 608 l 434 608 l 434 521 l 521 521 l 521 434 l 521 347 l 521 260 l 521 174 l 521 87 l 434 87 l 434 0 l 347 0 m 260 174 l 347 174 l 347 260 l 434 260 l 434 347 l 434 434 l 347 434 l 347 521 l 260 521 l 260 434 l 174 434 l 174 347 l 174 260 l 174 174 l 260 174 m 434 694 l 347 694 l 347 781 l 347 868 l 434 868 l 434 781 l 521 781 l 521 694 l 434 694 m 174 694 l 87 694 l 87 781 l 87 868 l 174 868 l 260 868 l 260 781 l 260 694 l 174 694 z "},"÷":{"ha":694,"x_min":0,"x_max":608,"o":"m 260 0 l 260 87 l 260 174 l 347 174 l 434 174 l 434 87 l 347 87 l 347 0 l 260 0 m 347 260 l 260 260 l 174 260 l 87 260 l 0 260 l 0 347 l 87 347 l 87 434 l 174 434 l 260 434 l 347 434 l 434 434 l 521 434 l 608 434 l 608 347 l 521 347 l 434 347 l 434 260 l 347 260 m 260 521 l 174 521 l 174 608 l 174 694 l 260 694 l 347 694 l 347 608 l 347 521 l 260 521 z "},"ø":{"ha":694,"x_min":0,"x_max":608,"o":"m 0 -87 l 0 0 l 0 87 l 87 87 l 87 174 l 0 174 l 0 260 l 0 347 l 0 434 l 87 434 l 87 521 l 174 521 l 174 608 l 260 608 l 347 608 l 434 608 l 521 608 l 521 694 l 608 694 l 608 608 l 608 521 l 521 521 l 521 434 l 521 347 l 521 260 l 521 174 l 521 87 l 434 87 l 434 0 l 347 0 l 260 0 l 174 0 l 87 0 l 87 -87 l 0 -87 m 347 174 l 347 260 l 260 260 l 260 347 l 260 434 l 174 434 l 174 347 l 174 260 l 260 260 l 260 174 l 347 174 m 434 260 l 434 347 l 434 434 l 347 434 l 347 521 l 260 521 l 260 434 l 347 434 l 347 347 l 347 260 l 434 260 z "},"ù":{"ha":608,"x_min":0,"x_max":521,"o":"m 347 0 l 260 0 l 174 0 l 87 0 l 87 87 l 0 87 l 0 174 l 0 260 l 0 347 l 0 434 l 0 521 l 87 521 l 174 521 l 174 434 l 174 347 l 174 260 l 174 174 l 260 174 l 260 87 l 347 87 l 347 174 l 347 260 l 347 347 l 347 434 l 260 434 l 260 521 l 260 608 l 347 608 l 434 608 l 434 521 l 521 521 l 521 434 l 521 347 l 521 260 l 521 174 l 521 87 l 434 87 l 434 0 l 347 0 m 260 694 l 174 694 l 174 781 l 87 781 l 87 868 l 174 868 l 260 868 l 260 781 l 347 781 l 347 694 l 260 694 z "},"ú":{"ha":608,"x_min":0,"x_max":521,"o":"m 347 0 l 260 0 l 174 0 l 87 0 l 87 87 l 0 87 l 0 174 l 0 260 l 0 347 l 0 434 l 0 521 l 87 521 l 174 521 l 174 434 l 174 347 l 174 260 l 174 174 l 260 174 l 260 87 l 347 87 l 347 174 l 347 260 l 347 347 l 347 434 l 260 434 l 260 521 l 260 608 l 347 608 l 434 608 l 434 521 l 521 521 l 521 434 l 521 347 l 521 260 l 521 174 l 521 87 l 434 87 l 434 0 l 347 0 m 174 694 l 87 694 l 87 781 l 174 781 l 174 868 l 260 868 l 347 868 l 347 781 l 260 781 l 260 694 l 174 694 z "},"û":{"ha":608,"x_min":0,"x_max":521,"o":"m 260 694 l 260 781 l 174 781 l 174 694 l 87 694 l 87 781 l 174 781 l 174 868 l 174 955 l 260 955 l 260 868 l 347 868 l 347 781 l 347 694 l 260 694 m 347 0 l 260 0 l 174 0 l 87 0 l 87 87 l 0 87 l 0 174 l 0 260 l 0 347 l 0 434 l 0 521 l 87 521 l 174 521 l 174 434 l 174 347 l 174 260 l 174 174 l 260 174 l 260 87 l 347 87 l 347 174 l 347 260 l 347 347 l 347 434 l 260 434 l 260 521 l 260 608 l 347 608 l 434 608 l 434 521 l 521 521 l 521 434 l 521 347 l 521 260 l 521 174 l 521 87 l 434 87 l 434 0 l 347 0 z "},"ü":{"ha":608,"x_min":0,"x_max":521,"o":"m 347 0 l 260 0 l 174 0 l 87 0 l 87 87 l 0 87 l 0 174 l 0 260 l 0 347 l 0 434 l 0 521 l 87 521 l 174 521 l 174 434 l 174 347 l 174 260 l 174 174 l 260 174 l 260 87 l 347 87 l 347 174 l 347 260 l 347 347 l 347 434 l 260 434 l 260 521 l 260 608 l 347 608 l 434 608 l 434 521 l 521 521 l 521 434 l 521 347 l 521 260 l 521 174 l 521 87 l 434 87 l 434 0 l 347 0 m 87 608 l 0 608 l 0 694 l 0 781 l 87 781 l 174 781 l 174 694 l 174 608 l 87 608 m 347 694 l 260 694 l 260 781 l 260 868 l 347 868 l 347 781 l 434 781 l 434 694 l 347 694 z "},"ý":{"ha":608,"x_min":0,"x_max":521,"o":"m 87 -347 l 0 -347 l 0 -260 l 0 -174 l 87 -174 l 174 -174 l 174 -87 l 260 -87 l 260 0 l 174 0 l 174 87 l 87 87 l 87 174 l 0 174 l 0 260 l 0 347 l 0 434 l 0 521 l 87 521 l 174 521 l 174 434 l 174 347 l 174 260 l 174 174 l 260 174 l 260 87 l 347 87 l 347 174 l 347 260 l 347 347 l 260 347 l 260 434 l 260 521 l 347 521 l 434 521 l 434 434 l 521 434 l 521 347 l 521 260 l 521 174 l 521 87 l 434 87 l 434 0 l 434 -87 l 347 -87 l 347 -174 l 260 -174 l 260 -260 l 174 -260 l 174 -347 l 87 -347 m 174 608 l 87 608 l 87 694 l 174 694 l 174 781 l 260 781 l 347 781 l 347 694 l 260 694 l 260 608 l 174 608 z "},"þ":{"ha":781,"x_min":0,"x_max":694,"o":"m 87 -260 l 0 -260 l 0 -174 l 0 -87 l 87 -87 l 87 0 l 87 87 l 87 174 l 87 260 l 87 347 l 87 434 l 0 434 l 0 521 l 0 608 l 0 694 l 0 781 l 0 868 l 87 868 l 87 955 l 174 955 l 260 955 l 260 868 l 260 781 l 260 694 l 174 694 l 174 608 l 174 521 l 260 521 l 347 521 l 347 608 l 434 608 l 521 608 l 608 608 l 608 521 l 694 521 l 694 434 l 694 347 l 694 260 l 694 174 l 608 174 l 608 260 l 608 347 l 521 347 l 521 434 l 434 434 l 347 434 l 260 434 l 260 347 l 260 260 l 260 174 l 347 174 l 434 174 l 521 174 l 608 174 l 608 87 l 521 87 l 521 0 l 434 0 l 347 0 l 260 0 l 260 87 l 174 87 l 174 0 l 174 -87 l 174 -174 l 174 -260 l 87 -260 z "},"ÿ":{"ha":608,"x_min":0,"x_max":521,"o":"m 87 -347 l 0 -347 l 0 -260 l 0 -174 l 87 -174 l 174 -174 l 174 -87 l 260 -87 l 260 0 l 174 0 l 174 87 l 87 87 l 87 174 l 0 174 l 0 260 l 0 347 l 0 434 l 0 521 l 87 521 l 174 521 l 174 434 l 174 347 l 174 260 l 174 174 l 260 174 l 260 87 l 347 87 l 347 174 l 347 260 l 347 347 l 260 347 l 260 434 l 260 521 l 347 521 l 434 521 l 434 434 l 521 434 l 521 347 l 521 260 l 521 174 l 521 87 l 434 87 l 434 0 l 434 -87 l 347 -87 l 347 -174 l 260 -174 l 260 -260 l 174 -260 l 174 -347 l 87 -347 m 347 608 l 260 608 l 260 694 l 260 781 l 347 781 l 347 694 l 434 694 l 434 608 l 347 608 m 87 608 l 0 608 l 0 694 l 0 781 l 87 781 l 174 781 l 174 694 l 174 608 l 87 608 z "},"Ā":{"ha":955,"x_min":0,"x_max":868,"o":"m 694 -87 l 608 -87 l 608 0 l 608 87 l 608 174 l 608 260 l 521 260 l 521 347 l 434 347 l 347 347 l 347 260 l 260 260 l 260 174 l 260 87 l 260 0 l 174 0 l 174 -87 l 87 -87 l 0 -87 l 0 0 l 0 87 l 87 87 l 87 174 l 87 260 l 0 260 l 0 347 l 87 347 l 87 434 l 87 521 l 87 608 l 87 694 l 174 694 l 174 781 l 260 781 l 347 781 l 434 781 l 434 694 l 521 694 l 521 608 l 608 608 l 608 521 l 694 521 l 781 521 l 868 521 l 868 434 l 868 347 l 781 347 l 694 347 l 694 260 l 781 260 l 781 174 l 868 174 l 868 87 l 868 0 l 781 0 l 781 -87 l 694 -87 m 347 434 l 434 434 l 434 521 l 434 608 l 347 608 l 260 608 l 260 521 l 260 434 l 347 434 m 434 955 l 521 955 l 521 868 l 434 868 l 347 868 l 260 868 l 174 868 l 174 955 l 87 955 l 87 1042 l 174 1042 l 260 1042 l 347 1042 l 347 955 l 434 955 z "},"ā":{"ha":694,"x_min":0,"x_max":608,"o":"m 521 -87 l 434 -87 l 434 0 l 347 0 l 260 0 l 174 0 l 87 0 l 87 87 l 0 87 l 0 174 l 0 260 l 87 260 l 87 347 l 174 347 l 260 347 l 347 347 l 434 347 l 434 434 l 434 521 l 347 521 l 260 521 l 260 434 l 174 434 l 87 434 l 87 521 l 87 608 l 174 608 l 174 694 l 260 694 l 347 694 l 434 694 l 434 608 l 521 608 l 521 521 l 608 521 l 608 434 l 608 347 l 608 260 l 521 260 l 521 174 l 521 87 l 608 87 l 608 0 l 608 -87 l 521 -87 m 347 87 l 347 174 l 347 260 l 260 260 l 174 260 l 174 174 l 260 174 l 260 87 l 347 87 m 434 868 l 521 868 l 521 781 l 434 781 l 347 781 l 260 781 l 174 781 l 174 868 l 87 868 l 87 955 l 174 955 l 260 955 l 347 955 l 347 868 l 434 868 z "},"Ă":{"ha":955,"x_min":0,"x_max":868,"o":"m 694 -87 l 608 -87 l 608 0 l 608 87 l 608 174 l 608 260 l 521 260 l 521 347 l 434 347 l 347 347 l 347 260 l 260 260 l 260 174 l 260 87 l 260 0 l 174 0 l 174 -87 l 87 -87 l 0 -87 l 0 0 l 0 87 l 87 87 l 87 174 l 87 260 l 0 260 l 0 347 l 87 347 l 87 434 l 87 521 l 87 608 l 87 694 l 174 694 l 174 781 l 260 781 l 347 781 l 434 781 l 434 694 l 521 694 l 521 608 l 608 608 l 608 521 l 694 521 l 781 521 l 868 521 l 868 434 l 868 347 l 781 347 l 694 347 l 694 260 l 781 260 l 781 174 l 868 174 l 868 87 l 868 0 l 781 0 l 781 -87 l 694 -87 m 347 434 l 434 434 l 434 521 l 434 608 l 347 608 l 260 608 l 260 521 l 260 434 l 347 434 m 347 955 l 434 955 l 434 868 l 347 868 l 260 868 l 174 868 l 174 955 l 87 955 l 87 1042 l 174 1042 l 260 1042 l 260 955 l 347 955 m 434 955 l 434 1042 l 521 1042 l 521 955 l 434 955 z "},"ă":{"ha":694,"x_min":0,"x_max":608,"o":"m 521 -87 l 434 -87 l 434 0 l 347 0 l 260 0 l 174 0 l 87 0 l 87 87 l 0 87 l 0 174 l 0 260 l 87 260 l 87 347 l 174 347 l 260 347 l 347 347 l 434 347 l 434 434 l 434 521 l 347 521 l 260 521 l 260 434 l 174 434 l 87 434 l 87 521 l 87 608 l 174 608 l 174 694 l 260 694 l 347 694 l 434 694 l 434 608 l 521 608 l 521 521 l 608 521 l 608 434 l 608 347 l 608 260 l 521 260 l 521 174 l 521 87 l 608 87 l 608 0 l 608 -87 l 521 -87 m 347 87 l 347 174 l 347 260 l 260 260 l 174 260 l 174 174 l 260 174 l 260 87 l 347 87 m 347 868 l 434 868 l 434 781 l 347 781 l 260 781 l 174 781 l 174 868 l 87 868 l 87 955 l 174 955 l 260 955 l 260 868 l 347 868 m 434 868 l 434 955 l 521 955 l 521 868 l 434 868 z "},"Ą":{"ha":955,"x_min":0,"x_max":868,"o":"m 694 -347 l 608 -347 l 608 -260 l 521 -260 l 521 -174 l 521 -87 l 608 -87 l 608 0 l 608 87 l 608 174 l 608 260 l 608 347 l 521 347 l 521 434 l 434 434 l 347 434 l 347 347 l 260 347 l 260 260 l 260 174 l 260 87 l 260 0 l 174 0 l 174 -87 l 87 -87 l 0 -87 l 0 0 l 0 87 l 0 174 l 87 174 l 87 260 l 87 347 l 0 347 l 0 434 l 87 434 l 87 521 l 87 608 l 87 694 l 87 781 l 174 781 l 174 868 l 260 868 l 347 868 l 434 868 l 434 781 l 521 781 l 521 694 l 608 694 l 608 608 l 694 608 l 781 608 l 868 608 l 868 521 l 868 434 l 781 434 l 694 434 l 694 347 l 781 347 l 781 260 l 781 174 l 868 174 l 868 87 l 868 0 l 781 0 l 781 -87 l 694 -87 l 694 -174 l 694 -260 l 781 -260 l 781 -347 l 694 -347 m 347 521 l 434 521 l 434 608 l 434 694 l 347 694 l 260 694 l 260 608 l 260 521 l 347 521 z "},"ą":{"ha":694,"x_min":0,"x_max":608,"o":"m 521 -347 l 434 -347 l 434 -260 l 347 -260 l 347 -174 l 347 -87 l 434 -87 l 434 0 l 347 0 l 260 0 l 174 0 l 87 0 l 87 87 l 0 87 l 0 174 l 0 260 l 87 260 l 87 347 l 174 347 l 260 347 l 347 347 l 434 347 l 434 434 l 434 521 l 347 521 l 260 521 l 260 434 l 174 434 l 87 434 l 87 521 l 87 608 l 174 608 l 174 694 l 260 694 l 347 694 l 434 694 l 434 608 l 521 608 l 521 521 l 608 521 l 608 434 l 608 347 l 608 260 l 521 260 l 521 174 l 521 87 l 608 87 l 608 0 l 608 -87 l 521 -87 l 521 -174 l 521 -260 l 608 -260 l 608 -347 l 521 -347 m 347 87 l 347 174 l 347 260 l 260 260 l 174 260 l 174 174 l 260 174 l 260 87 l 347 87 z "},"Ć":{"ha":781,"x_min":0,"x_max":694,"o":"m 434 -87 l 347 -87 l 260 -87 l 260 0 l 174 0 l 174 87 l 87 87 l 87 174 l 87 260 l 0 260 l 0 347 l 0 434 l 0 521 l 87 521 l 87 608 l 87 694 l 174 694 l 174 781 l 260 781 l 347 781 l 434 781 l 434 694 l 521 694 l 521 608 l 521 521 l 434 521 l 347 521 l 347 608 l 260 608 l 260 521 l 174 521 l 174 434 l 174 347 l 174 260 l 174 174 l 260 174 l 260 87 l 347 87 l 434 87 l 521 87 l 521 174 l 521 260 l 521 347 l 608 347 l 694 347 l 694 260 l 694 174 l 694 87 l 608 87 l 608 0 l 521 0 l 521 -87 l 434 -87 m 347 868 l 260 868 l 260 955 l 347 955 l 347 1042 l 434 1042 l 521 1042 l 521 955 l 434 955 l 434 868 l 347 868 z "},"ć":{"ha":694,"x_min":0,"x_max":608,"o":"m 434 0 l 347 0 l 260 0 l 174 0 l 174 87 l 87 87 l 87 174 l 0 174 l 0 260 l 0 347 l 0 434 l 87 434 l 87 521 l 174 521 l 174 608 l 260 608 l 347 608 l 434 608 l 434 521 l 521 521 l 521 434 l 521 347 l 434 347 l 347 347 l 347 434 l 260 434 l 174 434 l 174 347 l 174 260 l 174 174 l 260 174 l 260 87 l 347 87 l 347 174 l 434 174 l 434 260 l 521 260 l 608 260 l 608 174 l 608 87 l 521 87 l 521 0 l 434 0 m 260 694 l 174 694 l 174 781 l 260 781 l 260 868 l 347 868 l 434 868 l 434 781 l 347 781 l 347 694 l 260 694 z "},"Ĉ":{"ha":781,"x_min":0,"x_max":694,"o":"m 347 781 l 347 868 l 260 868 l 260 781 l 174 781 l 174 868 l 260 868 l 260 955 l 260 1042 l 347 1042 l 347 955 l 434 955 l 434 868 l 434 781 l 347 781 m 434 -87 l 347 -87 l 260 -87 l 260 0 l 174 0 l 174 87 l 87 87 l 87 174 l 0 174 l 0 260 l 0 347 l 0 434 l 87 434 l 87 521 l 87 608 l 174 608 l 174 694 l 260 694 l 347 694 l 434 694 l 434 608 l 521 608 l 521 521 l 521 434 l 434 434 l 347 434 l 347 521 l 260 521 l 260 434 l 174 434 l 174 347 l 174 260 l 174 174 l 260 174 l 260 87 l 347 87 l 434 87 l 521 87 l 521 174 l 521 260 l 608 260 l 694 260 l 694 174 l 694 87 l 608 87 l 608 0 l 521 0 l 521 -87 l 434 -87 z "},"ĉ":{"ha":694,"x_min":0,"x_max":608,"o":"m 347 694 l 347 781 l 260 781 l 260 694 l 174 694 l 174 781 l 260 781 l 260 868 l 260 955 l 347 955 l 347 868 l 434 868 l 434 781 l 434 694 l 347 694 m 434 0 l 347 0 l 260 0 l 174 0 l 174 87 l 87 87 l 87 174 l 0 174 l 0 260 l 0 347 l 0 434 l 87 434 l 87 521 l 174 521 l 174 608 l 260 608 l 347 608 l 434 608 l 434 521 l 521 521 l 521 434 l 521 347 l 434 347 l 347 347 l 347 434 l 260 434 l 174 434 l 174 347 l 174 260 l 174 174 l 260 174 l 260 87 l 347 87 l 347 174 l 434 174 l 434 260 l 521 260 l 608 260 l 608 174 l 608 87 l 521 87 l 521 0 l 434 0 z "},"Ċ":{"ha":781,"x_min":0,"x_max":694,"o":"m 434 -87 l 347 -87 l 260 -87 l 260 0 l 174 0 l 174 87 l 87 87 l 87 174 l 87 260 l 0 260 l 0 347 l 0 434 l 0 521 l 87 521 l 87 608 l 87 694 l 174 694 l 174 781 l 260 781 l 347 781 l 434 781 l 434 694 l 521 694 l 521 608 l 521 521 l 434 521 l 347 521 l 347 608 l 260 608 l 260 521 l 174 521 l 174 434 l 174 347 l 174 260 l 174 174 l 260 174 l 260 87 l 347 87 l 434 87 l 521 87 l 521 174 l 521 260 l 521 347 l 608 347 l 694 347 l 694 260 l 694 174 l 694 87 l 608 87 l 608 0 l 521 0 l 521 -87 l 434 -87 m 347 868 l 260 868 l 260 955 l 260 1042 l 347 1042 l 434 1042 l 434 955 l 434 868 l 347 868 z "},"ċ":{"ha":694,"x_min":0,"x_max":608,"o":"m 434 0 l 347 0 l 260 0 l 174 0 l 174 87 l 87 87 l 87 174 l 0 174 l 0 260 l 0 347 l 0 434 l 87 434 l 87 521 l 174 521 l 174 608 l 260 608 l 347 608 l 434 608 l 434 521 l 521 521 l 521 434 l 521 347 l 434 347 l 347 347 l 347 434 l 260 434 l 174 434 l 174 347 l 174 260 l 174 174 l 260 174 l 260 87 l 347 87 l 347 174 l 434 174 l 434 260 l 521 260 l 608 260 l 608 174 l 608 87 l 521 87 l 521 0 l 434 0 m 260 694 l 174 694 l 174 781 l 174 868 l 260 868 l 347 868 l 347 781 l 347 694 l 260 694 z "},"Č":{"ha":781,"x_min":0,"x_max":694,"o":"m 260 781 l 260 868 l 260 955 l 347 955 l 347 1042 l 434 1042 l 434 955 l 434 868 l 347 868 l 347 781 l 260 781 m 434 -87 l 347 -87 l 260 -87 l 260 0 l 174 0 l 174 87 l 87 87 l 87 174 l 0 174 l 0 260 l 0 347 l 0 434 l 87 434 l 87 521 l 87 608 l 174 608 l 174 694 l 260 694 l 347 694 l 434 694 l 434 608 l 521 608 l 521 521 l 521 434 l 434 434 l 347 434 l 347 521 l 260 521 l 260 434 l 174 434 l 174 347 l 174 260 l 174 174 l 260 174 l 260 87 l 347 87 l 434 87 l 521 87 l 521 174 l 521 260 l 608 260 l 694 260 l 694 174 l 694 87 l 608 87 l 608 0 l 521 0 l 521 -87 l 434 -87 m 260 955 l 174 955 l 174 1042 l 260 1042 l 260 955 z "},"č":{"ha":694,"x_min":0,"x_max":608,"o":"m 260 694 l 260 781 l 260 868 l 347 868 l 347 955 l 434 955 l 434 868 l 434 781 l 347 781 l 347 694 l 260 694 m 434 0 l 347 0 l 260 0 l 174 0 l 174 87 l 87 87 l 87 174 l 0 174 l 0 260 l 0 347 l 0 434 l 87 434 l 87 521 l 174 521 l 174 608 l 260 608 l 347 608 l 434 608 l 434 521 l 521 521 l 521 434 l 521 347 l 434 347 l 347 347 l 347 434 l 260 434 l 174 434 l 174 347 l 174 260 l 174 174 l 260 174 l 260 87 l 347 87 l 347 174 l 434 174 l 434 260 l 521 260 l 608 260 l 608 174 l 608 87 l 521 87 l 521 0 l 434 0 m 260 868 l 174 868 l 174 955 l 260 955 l 260 868 z "},"Ď":{"ha":694,"x_min":0,"x_max":608,"o":"m 347 -87 l 260 -87 l 174 -87 l 87 -87 l 87 0 l 0 0 l 0 87 l 0 174 l 0 260 l 87 260 l 87 347 l 87 434 l 87 521 l 0 521 l 0 608 l 0 694 l 0 781 l 87 781 l 174 781 l 174 694 l 260 694 l 347 694 l 347 781 l 434 781 l 434 694 l 521 694 l 521 608 l 608 608 l 608 521 l 608 434 l 608 347 l 608 260 l 608 174 l 608 87 l 521 87 l 521 0 l 434 0 l 434 -87 l 347 -87 m 260 87 l 347 87 l 347 174 l 434 174 l 434 260 l 434 347 l 434 434 l 434 521 l 434 608 l 347 608 l 260 608 l 260 521 l 260 434 l 174 434 l 174 347 l 174 260 l 174 174 l 174 87 l 260 87 m 347 781 l 260 781 l 260 868 l 260 955 l 347 955 l 347 1042 l 434 1042 l 434 955 l 434 868 l 347 868 l 347 781 m 260 955 l 174 955 l 174 1042 l 260 1042 l 260 955 z "},"ď":{"ha":781,"x_min":0,"x_max":694,"o":"m 521 694 l 521 781 l 521 868 l 521 955 l 608 955 l 694 955 l 694 868 l 694 781 l 608 781 l 608 694 l 521 694 m 521 0 l 434 0 l 434 87 l 347 87 l 347 0 l 260 0 l 174 0 l 87 0 l 87 87 l 0 87 l 0 174 l 0 260 l 0 347 l 0 434 l 87 434 l 87 521 l 174 521 l 260 521 l 347 521 l 347 608 l 260 608 l 260 694 l 260 781 l 174 781 l 174 868 l 174 955 l 260 955 l 347 955 l 347 868 l 434 868 l 434 781 l 434 694 l 434 608 l 434 521 l 434 434 l 434 347 l 521 347 l 521 260 l 521 174 l 608 174 l 608 87 l 608 0 l 521 0 m 260 174 l 347 174 l 347 260 l 347 347 l 260 347 l 260 434 l 174 434 l 174 347 l 174 260 l 174 174 l 260 174 z "},"Đ":{"ha":781,"x_min":0,"x_max":694,"o":"m 434 0 l 347 0 l 260 0 l 174 0 l 174 87 l 87 87 l 87 174 l 87 260 l 87 347 l 174 347 l 174 434 l 87 434 l 0 434 l 0 521 l 87 521 l 174 521 l 174 608 l 87 608 l 87 694 l 87 781 l 87 868 l 174 868 l 260 868 l 260 781 l 347 781 l 347 868 l 434 868 l 521 868 l 521 781 l 608 781 l 608 694 l 694 694 l 694 608 l 694 521 l 694 434 l 694 347 l 694 260 l 694 174 l 608 174 l 608 87 l 521 87 l 521 0 l 434 0 m 347 174 l 434 174 l 434 260 l 521 260 l 521 347 l 521 434 l 521 521 l 521 608 l 521 694 l 434 694 l 347 694 l 347 608 l 347 521 l 434 521 l 434 434 l 434 347 l 347 347 l 260 347 l 260 260 l 260 174 l 347 174 z "},"đ":{"ha":694,"x_min":0,"x_max":608,"o":"m 521 0 l 434 0 l 434 87 l 347 87 l 347 0 l 260 0 l 174 0 l 87 0 l 87 87 l 0 87 l 0 174 l 0 260 l 0 347 l 0 434 l 87 434 l 87 521 l 174 521 l 260 521 l 347 521 l 347 608 l 260 608 l 174 608 l 174 694 l 87 694 l 87 781 l 174 781 l 260 781 l 347 781 l 347 868 l 434 868 l 434 955 l 521 955 l 608 955 l 608 868 l 608 781 l 521 781 l 521 694 l 608 694 l 608 608 l 521 608 l 434 608 l 434 521 l 434 434 l 434 347 l 434 260 l 521 260 l 521 174 l 608 174 l 608 87 l 608 0 l 521 0 m 260 174 l 347 174 l 347 260 l 347 347 l 260 347 l 260 434 l 174 434 l 174 347 l 174 260 l 174 174 l 260 174 z "},"Ē":{"ha":781,"x_min":0,"x_max":694,"o":"m 608 -87 l 521 -87 l 521 0 l 434 0 l 434 87 l 347 87 l 260 87 l 174 87 l 174 0 l 87 0 l 0 0 l 0 87 l 0 174 l 87 174 l 87 260 l 87 347 l 0 347 l 0 434 l 87 434 l 87 521 l 87 608 l 0 608 l 0 694 l 0 781 l 0 868 l 87 868 l 174 868 l 174 781 l 260 781 l 260 694 l 347 694 l 434 694 l 434 781 l 521 781 l 608 781 l 694 781 l 694 694 l 694 608 l 608 608 l 608 521 l 521 521 l 434 521 l 347 521 l 260 521 l 260 434 l 347 434 l 434 434 l 521 434 l 521 347 l 521 260 l 434 260 l 347 260 l 260 260 l 260 174 l 347 174 l 434 174 l 521 174 l 608 174 l 608 87 l 694 87 l 694 0 l 694 -87 l 608 -87 m 521 955 l 608 955 l 608 868 l 521 868 l 434 868 l 347 868 l 260 868 l 260 955 l 174 955 l 174 1042 l 260 1042 l 347 1042 l 434 1042 l 434 955 l 521 955 z "},"ē":{"ha":694,"x_min":0,"x_max":608,"o":"m 434 0 l 347 0 l 260 0 l 174 0 l 174 87 l 87 87 l 87 174 l 0 174 l 0 260 l 0 347 l 0 434 l 87 434 l 87 521 l 174 521 l 174 608 l 260 608 l 347 608 l 434 608 l 434 521 l 521 521 l 521 434 l 521 347 l 434 347 l 434 260 l 347 260 l 260 260 l 174 260 l 174 174 l 260 174 l 260 87 l 347 87 l 347 174 l 434 174 l 434 260 l 521 260 l 608 260 l 608 174 l 608 87 l 521 87 l 521 0 l 434 0 m 260 347 l 347 347 l 347 434 l 347 521 l 260 521 l 260 434 l 174 434 l 174 347 l 260 347 m 434 781 l 521 781 l 521 694 l 434 694 l 347 694 l 260 694 l 174 694 l 174 781 l 87 781 l 87 868 l 174 868 l 260 868 l 347 868 l 347 781 l 434 781 z "},"Ĕ":{"ha":781,"x_min":0,"x_max":694,"o":"m 608 -87 l 521 -87 l 521 0 l 434 0 l 434 87 l 347 87 l 260 87 l 174 87 l 174 0 l 87 0 l 0 0 l 0 87 l 0 174 l 87 174 l 87 260 l 87 347 l 0 347 l 0 434 l 87 434 l 87 521 l 87 608 l 0 608 l 0 694 l 0 781 l 0 868 l 87 868 l 174 868 l 174 781 l 260 781 l 260 694 l 347 694 l 434 694 l 434 781 l 521 781 l 608 781 l 694 781 l 694 694 l 694 608 l 608 608 l 608 521 l 521 521 l 434 521 l 347 521 l 260 521 l 260 434 l 347 434 l 434 434 l 521 434 l 521 347 l 521 260 l 434 260 l 347 260 l 260 260 l 260 174 l 347 174 l 434 174 l 521 174 l 608 174 l 608 87 l 694 87 l 694 0 l 694 -87 l 608 -87 m 434 955 l 521 955 l 521 868 l 434 868 l 347 868 l 260 868 l 260 955 l 174 955 l 174 1042 l 260 1042 l 347 1042 l 347 955 l 434 955 m 521 955 l 521 1042 l 608 1042 l 608 955 l 521 955 z "},"ĕ":{"ha":694,"x_min":0,"x_max":608,"o":"m 434 0 l 347 0 l 260 0 l 174 0 l 174 87 l 87 87 l 87 174 l 0 174 l 0 260 l 0 347 l 0 434 l 87 434 l 87 521 l 174 521 l 174 608 l 260 608 l 347 608 l 434 608 l 434 521 l 521 521 l 521 434 l 521 347 l 434 347 l 434 260 l 347 260 l 260 260 l 174 260 l 174 174 l 260 174 l 260 87 l 347 87 l 347 174 l 434 174 l 434 260 l 521 260 l 608 260 l 608 174 l 608 87 l 521 87 l 521 0 l 434 0 m 260 347 l 347 347 l 347 434 l 347 521 l 260 521 l 260 434 l 174 434 l 174 347 l 260 347 m 347 781 l 434 781 l 434 694 l 347 694 l 260 694 l 174 694 l 174 781 l 87 781 l 87 868 l 174 868 l 260 868 l 260 781 l 347 781 m 434 781 l 434 868 l 521 868 l 521 781 l 434 781 z "},"Ė":{"ha":781,"x_min":0,"x_max":694,"o":"m 608 -87 l 521 -87 l 521 0 l 434 0 l 434 87 l 347 87 l 260 87 l 174 87 l 174 0 l 87 0 l 0 0 l 0 87 l 0 174 l 87 174 l 87 260 l 87 347 l 0 347 l 0 434 l 87 434 l 87 521 l 87 608 l 0 608 l 0 694 l 0 781 l 0 868 l 87 868 l 174 868 l 174 781 l 260 781 l 260 694 l 347 694 l 434 694 l 434 781 l 521 781 l 608 781 l 694 781 l 694 694 l 694 608 l 608 608 l 608 521 l 521 521 l 434 521 l 347 521 l 260 521 l 260 434 l 347 434 l 434 434 l 521 434 l 521 347 l 521 260 l 434 260 l 347 260 l 260 260 l 260 174 l 347 174 l 434 174 l 521 174 l 608 174 l 608 87 l 694 87 l 694 0 l 694 -87 l 608 -87 m 347 868 l 260 868 l 260 955 l 260 1042 l 347 1042 l 434 1042 l 434 955 l 434 868 l 347 868 z "},"ė":{"ha":694,"x_min":0,"x_max":608,"o":"m 434 0 l 347 0 l 260 0 l 174 0 l 174 87 l 87 87 l 87 174 l 0 174 l 0 260 l 0 347 l 0 434 l 87 434 l 87 521 l 174 521 l 174 608 l 260 608 l 347 608 l 434 608 l 434 521 l 521 521 l 521 434 l 521 347 l 434 347 l 434 260 l 347 260 l 260 260 l 174 260 l 174 174 l 260 174 l 260 87 l 347 87 l 347 174 l 434 174 l 434 260 l 521 260 l 608 260 l 608 174 l 608 87 l 521 87 l 521 0 l 434 0 m 260 347 l 347 347 l 347 434 l 347 521 l 260 521 l 260 434 l 174 434 l 174 347 l 260 347 m 260 694 l 174 694 l 174 781 l 174 868 l 260 868 l 347 868 l 347 781 l 347 694 l 260 694 z "},"Ę":{"ha":781,"x_min":0,"x_max":694,"o":"m 608 -347 l 521 -347 l 521 -260 l 434 -260 l 434 -174 l 434 -87 l 521 -87 l 521 0 l 434 0 l 434 87 l 347 87 l 260 87 l 174 87 l 174 0 l 87 0 l 0 0 l 0 87 l 0 174 l 87 174 l 87 260 l 87 347 l 87 434 l 0 434 l 0 521 l 87 521 l 87 608 l 87 694 l 0 694 l 0 781 l 0 868 l 0 955 l 87 955 l 174 955 l 174 868 l 260 868 l 260 781 l 347 781 l 434 781 l 434 868 l 521 868 l 608 868 l 694 868 l 694 781 l 694 694 l 608 694 l 608 608 l 521 608 l 434 608 l 347 608 l 260 608 l 260 521 l 347 521 l 434 521 l 521 521 l 521 434 l 521 347 l 434 347 l 347 347 l 260 347 l 260 260 l 260 174 l 347 174 l 434 174 l 521 174 l 608 174 l 608 87 l 694 87 l 694 0 l 694 -87 l 608 -87 l 608 -174 l 608 -260 l 694 -260 l 694 -347 l 608 -347 z "},"ę":{"ha":694,"x_min":0,"x_max":608,"o":"m 347 -260 l 260 -260 l 260 -174 l 174 -174 l 174 -87 l 174 0 l 174 87 l 87 87 l 87 174 l 0 174 l 0 260 l 0 347 l 0 434 l 87 434 l 87 521 l 174 521 l 174 608 l 260 608 l 347 608 l 434 608 l 434 521 l 521 521 l 521 434 l 521 347 l 434 347 l 434 260 l 347 260 l 260 260 l 174 260 l 174 174 l 260 174 l 260 87 l 347 87 l 347 174 l 434 174 l 434 260 l 521 260 l 608 260 l 608 174 l 608 87 l 521 87 l 521 0 l 434 0 l 347 0 l 347 -87 l 347 -174 l 434 -174 l 434 -260 l 347 -260 m 260 347 l 347 347 l 347 434 l 347 521 l 260 521 l 260 434 l 174 434 l 174 347 l 260 347 z "},"Ě":{"ha":781,"x_min":0,"x_max":694,"o":"m 608 -87 l 521 -87 l 521 0 l 434 0 l 434 87 l 347 87 l 260 87 l 174 87 l 174 0 l 87 0 l 0 0 l 0 87 l 0 174 l 87 174 l 87 260 l 87 347 l 0 347 l 0 434 l 87 434 l 87 521 l 87 608 l 0 608 l 0 694 l 0 781 l 0 868 l 87 868 l 174 868 l 174 781 l 260 781 l 260 694 l 347 694 l 434 694 l 434 781 l 521 781 l 608 781 l 694 781 l 694 694 l 694 608 l 608 608 l 608 521 l 521 521 l 434 521 l 347 521 l 260 521 l 260 434 l 347 434 l 434 434 l 521 434 l 521 347 l 521 260 l 434 260 l 347 260 l 260 260 l 260 174 l 347 174 l 434 174 l 521 174 l 608 174 l 608 87 l 694 87 l 694 0 l 694 -87 l 608 -87 m 260 781 l 260 868 l 260 955 l 347 955 l 347 1042 l 434 1042 l 434 955 l 434 868 l 347 868 l 347 781 l 260 781 m 260 955 l 174 955 l 174 1042 l 260 1042 l 260 955 z "},"ě":{"ha":694,"x_min":0,"x_max":608,"o":"m 260 694 l 260 781 l 260 868 l 347 868 l 347 955 l 434 955 l 434 868 l 434 781 l 347 781 l 347 694 l 260 694 m 434 0 l 347 0 l 260 0 l 174 0 l 174 87 l 87 87 l 87 174 l 0 174 l 0 260 l 0 347 l 0 434 l 87 434 l 87 521 l 174 521 l 174 608 l 260 608 l 347 608 l 434 608 l 434 521 l 521 521 l 521 434 l 521 347 l 434 347 l 434 260 l 347 260 l 260 260 l 174 260 l 174 174 l 260 174 l 260 87 l 347 87 l 347 174 l 434 174 l 434 260 l 521 260 l 608 260 l 608 174 l 608 87 l 521 87 l 521 0 l 434 0 m 260 347 l 347 347 l 347 434 l 347 521 l 260 521 l 260 434 l 174 434 l 174 347 l 260 347 m 260 868 l 174 868 l 174 955 l 260 955 l 260 868 z "},"Ĝ":{"ha":781,"x_min":0,"x_max":694,"o":"m 521 781 l 521 868 l 434 868 l 434 781 l 347 781 l 347 868 l 434 868 l 434 955 l 434 1042 l 521 1042 l 521 955 l 608 955 l 608 868 l 608 781 l 521 781 m 521 -347 l 434 -347 l 434 -260 l 347 -260 l 347 -174 l 434 -174 l 434 -87 l 347 -87 l 260 -87 l 174 -87 l 174 0 l 87 0 l 87 87 l 0 87 l 0 174 l 0 260 l 0 347 l 87 347 l 87 434 l 87 521 l 174 521 l 174 608 l 260 608 l 260 694 l 347 694 l 434 694 l 521 694 l 608 694 l 694 694 l 694 608 l 694 521 l 608 521 l 521 521 l 521 608 l 434 608 l 347 608 l 347 521 l 260 521 l 260 434 l 260 347 l 174 347 l 174 260 l 174 174 l 260 174 l 260 87 l 347 87 l 434 87 l 434 174 l 521 174 l 521 260 l 434 260 l 347 260 l 347 347 l 347 434 l 434 434 l 521 434 l 608 434 l 608 347 l 694 347 l 694 260 l 694 174 l 694 87 l 694 0 l 694 -87 l 694 -174 l 694 -260 l 608 -260 l 608 -347 l 521 -347 m 521 -87 l 521 0 l 434 0 l 434 -87 l 521 -87 z "},"ĝ":{"ha":781,"x_min":0,"x_max":694,"o":"m 174 694 l 174 781 l 260 781 l 260 694 l 174 694 m 434 -347 l 347 -347 l 260 -347 l 260 -260 l 174 -260 l 174 -174 l 87 -174 l 87 -87 l 87 0 l 174 0 l 174 87 l 87 87 l 87 174 l 0 174 l 0 260 l 0 347 l 87 347 l 87 434 l 174 434 l 174 521 l 260 521 l 260 608 l 347 608 l 434 608 l 434 694 l 521 694 l 521 781 l 608 781 l 694 781 l 694 694 l 694 608 l 608 608 l 521 608 l 521 521 l 608 521 l 608 434 l 608 347 l 521 347 l 521 260 l 521 174 l 434 174 l 434 87 l 521 87 l 608 87 l 694 87 l 694 0 l 694 -87 l 694 -174 l 608 -174 l 608 -260 l 521 -260 l 521 -347 l 434 -347 m 434 -174 l 521 -174 l 521 -87 l 521 0 l 434 0 l 347 0 l 347 -87 l 260 -87 l 260 -174 l 347 -174 l 434 -174 m 260 174 l 347 174 l 347 260 l 434 260 l 434 347 l 434 434 l 347 434 l 260 434 l 260 347 l 174 347 l 174 260 l 174 174 l 260 174 m 434 694 l 347 694 l 347 781 l 260 781 l 260 868 l 260 955 l 347 955 l 347 868 l 434 868 l 434 781 l 434 694 z "},"Ğ":{"ha":781,"x_min":0,"x_max":694,"o":"m 521 -347 l 434 -347 l 434 -260 l 347 -260 l 347 -174 l 434 -174 l 434 -87 l 347 -87 l 260 -87 l 174 -87 l 174 0 l 87 0 l 87 87 l 0 87 l 0 174 l 0 260 l 0 347 l 87 347 l 87 434 l 87 521 l 174 521 l 174 608 l 260 608 l 260 694 l 347 694 l 347 781 l 434 781 l 521 781 l 608 781 l 608 694 l 694 694 l 694 608 l 694 521 l 608 521 l 521 521 l 521 608 l 434 608 l 347 608 l 347 521 l 260 521 l 260 434 l 260 347 l 174 347 l 174 260 l 174 174 l 260 174 l 260 87 l 347 87 l 434 87 l 434 174 l 521 174 l 521 260 l 434 260 l 347 260 l 347 347 l 347 434 l 434 434 l 521 434 l 608 434 l 608 347 l 694 347 l 694 260 l 694 174 l 694 87 l 694 0 l 694 -87 l 694 -174 l 694 -260 l 608 -260 l 608 -347 l 521 -347 m 521 -87 l 521 0 l 434 0 l 434 -87 l 521 -87 m 521 955 l 608 955 l 608 868 l 521 868 l 434 868 l 347 868 l 347 955 l 260 955 l 260 1042 l 347 1042 l 434 1042 l 434 955 l 521 955 m 608 955 l 608 1042 l 694 1042 l 694 955 l 608 955 z "},"ğ":{"ha":781,"x_min":0,"x_max":694,"o":"m 434 -347 l 347 -347 l 260 -347 l 260 -260 l 174 -260 l 174 -174 l 87 -174 l 87 -87 l 87 0 l 174 0 l 174 87 l 87 87 l 87 174 l 0 174 l 0 260 l 0 347 l 87 347 l 87 434 l 174 434 l 174 521 l 260 521 l 260 608 l 347 608 l 434 608 l 434 694 l 521 694 l 521 781 l 608 781 l 694 781 l 694 694 l 694 608 l 608 608 l 521 608 l 521 521 l 608 521 l 608 434 l 608 347 l 521 347 l 521 260 l 521 174 l 434 174 l 434 87 l 521 87 l 608 87 l 694 87 l 694 0 l 694 -87 l 694 -174 l 608 -174 l 608 -260 l 521 -260 l 521 -347 l 434 -347 m 434 -174 l 521 -174 l 521 -87 l 521 0 l 434 0 l 347 0 l 347 -87 l 260 -87 l 260 -174 l 347 -174 l 434 -174 m 260 174 l 347 174 l 347 260 l 434 260 l 434 347 l 434 434 l 347 434 l 260 434 l 260 347 l 174 347 l 174 260 l 174 174 l 260 174 m 347 868 l 434 868 l 434 781 l 347 781 l 260 781 l 174 781 l 174 868 l 87 868 l 87 955 l 174 955 l 260 955 l 260 868 l 347 868 m 434 868 l 434 955 l 521 955 l 521 868 l 434 868 z "},"Ġ":{"ha":781,"x_min":0,"x_max":694,"o":"m 521 -347 l 434 -347 l 434 -260 l 347 -260 l 347 -174 l 434 -174 l 434 -87 l 347 -87 l 260 -87 l 174 -87 l 174 0 l 87 0 l 87 87 l 0 87 l 0 174 l 0 260 l 0 347 l 87 347 l 87 434 l 87 521 l 174 521 l 174 608 l 260 608 l 260 694 l 347 694 l 347 781 l 434 781 l 521 781 l 608 781 l 608 694 l 694 694 l 694 608 l 694 521 l 608 521 l 521 521 l 521 608 l 434 608 l 347 608 l 347 521 l 260 521 l 260 434 l 260 347 l 174 347 l 174 260 l 174 174 l 260 174 l 260 87 l 347 87 l 434 87 l 434 174 l 521 174 l 521 260 l 434 260 l 347 260 l 347 347 l 347 434 l 434 434 l 521 434 l 608 434 l 608 347 l 694 347 l 694 260 l 694 174 l 694 87 l 694 0 l 694 -87 l 694 -174 l 694 -260 l 608 -260 l 608 -347 l 521 -347 m 521 -87 l 521 0 l 434 0 l 434 -87 l 521 -87 m 434 868 l 347 868 l 347 955 l 347 1042 l 434 1042 l 521 1042 l 521 955 l 521 868 l 434 868 z "},"ġ":{"ha":781,"x_min":0,"x_max":694,"o":"m 434 -347 l 347 -347 l 260 -347 l 260 -260 l 174 -260 l 174 -174 l 87 -174 l 87 -87 l 87 0 l 174 0 l 174 87 l 87 87 l 87 174 l 0 174 l 0 260 l 0 347 l 87 347 l 87 434 l 174 434 l 174 521 l 260 521 l 260 608 l 347 608 l 434 608 l 434 694 l 521 694 l 521 781 l 608 781 l 694 781 l 694 694 l 694 608 l 608 608 l 521 608 l 521 521 l 608 521 l 608 434 l 608 347 l 521 347 l 521 260 l 521 174 l 434 174 l 434 87 l 521 87 l 608 87 l 694 87 l 694 0 l 694 -87 l 694 -174 l 608 -174 l 608 -260 l 521 -260 l 521 -347 l 434 -347 m 434 -174 l 521 -174 l 521 -87 l 521 0 l 434 0 l 347 0 l 347 -87 l 260 -87 l 260 -174 l 347 -174 l 434 -174 m 260 174 l 347 174 l 347 260 l 434 260 l 434 347 l 434 434 l 347 434 l 260 434 l 260 347 l 174 347 l 174 260 l 174 174 l 260 174 m 260 694 l 174 694 l 174 781 l 174 868 l 260 868 l 347 868 l 347 781 l 347 694 l 260 694 z "},"Ģ":{"ha":781,"x_min":0,"x_max":694,"o":"m 347 -347 l 260 -347 l 260 -260 l 347 -260 l 347 -174 l 347 -87 l 260 -87 l 174 -87 l 174 0 l 87 0 l 87 87 l 0 87 l 0 174 l 0 260 l 0 347 l 0 434 l 0 521 l 87 521 l 87 608 l 87 694 l 174 694 l 174 781 l 260 781 l 260 868 l 347 868 l 347 955 l 434 955 l 521 955 l 608 955 l 608 868 l 694 868 l 694 781 l 694 694 l 608 694 l 521 694 l 521 781 l 521 868 l 434 868 l 434 781 l 347 781 l 347 694 l 260 694 l 260 608 l 260 521 l 174 521 l 174 434 l 174 347 l 174 260 l 174 174 l 260 174 l 260 87 l 347 87 l 434 87 l 434 174 l 521 174 l 521 260 l 434 260 l 347 260 l 347 347 l 347 434 l 434 434 l 521 434 l 608 434 l 608 347 l 694 347 l 694 260 l 694 174 l 694 87 l 608 87 l 608 0 l 521 0 l 434 0 l 434 -87 l 521 -87 l 521 -174 l 521 -260 l 434 -260 l 434 -347 l 347 -347 z "},"ģ":{"ha":781,"x_min":0,"x_max":694,"o":"m 174 694 l 174 781 l 174 868 l 260 868 l 260 955 l 347 955 l 434 955 l 434 868 l 347 868 l 347 781 l 260 781 l 260 694 l 174 694 m 434 -347 l 347 -347 l 260 -347 l 260 -260 l 174 -260 l 174 -174 l 87 -174 l 87 -87 l 87 0 l 174 0 l 174 87 l 87 87 l 87 174 l 0 174 l 0 260 l 0 347 l 87 347 l 87 434 l 174 434 l 174 521 l 260 521 l 260 608 l 347 608 l 434 608 l 434 694 l 521 694 l 521 781 l 608 781 l 694 781 l 694 694 l 694 608 l 608 608 l 521 608 l 521 521 l 608 521 l 608 434 l 608 347 l 521 347 l 521 260 l 521 174 l 434 174 l 434 87 l 521 87 l 608 87 l 694 87 l 694 0 l 694 -87 l 694 -174 l 608 -174 l 608 -260 l 521 -260 l 521 -347 l 434 -347 m 434 -174 l 521 -174 l 521 -87 l 521 0 l 434 0 l 347 0 l 347 -87 l 260 -87 l 260 -174 l 347 -174 l 434 -174 m 260 174 l 347 174 l 347 260 l 434 260 l 434 347 l 434 434 l 347 434 l 260 434 l 260 347 l 174 347 l 174 260 l 174 174 l 260 174 z "},"Ĥ":{"ha":781,"x_min":0,"x_max":694,"o":"m 174 781 l 174 868 l 260 868 l 260 781 l 174 781 m 608 -260 l 521 -260 l 521 -174 l 434 -174 l 434 -87 l 434 0 l 434 87 l 434 174 l 434 260 l 347 260 l 260 260 l 260 174 l 260 87 l 260 0 l 260 -87 l 174 -87 l 174 -174 l 87 -174 l 0 -174 l 0 -87 l 0 0 l 87 0 l 87 87 l 87 174 l 87 260 l 0 260 l 0 347 l 87 347 l 87 434 l 87 521 l 0 521 l 0 608 l 0 694 l 0 781 l 87 781 l 87 694 l 174 694 l 174 608 l 174 521 l 174 434 l 260 434 l 347 434 l 347 521 l 347 608 l 347 694 l 434 694 l 434 781 l 521 781 l 521 694 l 521 608 l 521 521 l 608 521 l 694 521 l 694 434 l 694 347 l 608 347 l 521 347 l 521 260 l 521 174 l 608 174 l 608 87 l 608 0 l 694 0 l 694 -87 l 694 -174 l 694 -260 l 608 -260 m 434 781 l 347 781 l 347 868 l 260 868 l 260 955 l 260 1042 l 347 1042 l 347 955 l 434 955 l 434 868 l 434 781 z "},"ĥ":{"ha":608,"x_min":0,"x_max":521,"o":"m 0 -87 l 0 0 l 0 87 l 0 174 l 87 174 l 87 260 l 87 347 l 87 434 l 87 521 l 0 521 l 0 608 l 0 694 l 0 781 l 0 868 l 87 868 l 174 868 l 174 781 l 174 694 l 174 608 l 174 521 l 174 434 l 260 434 l 260 521 l 347 521 l 434 521 l 434 434 l 521 434 l 521 347 l 521 260 l 521 174 l 521 87 l 521 0 l 434 0 l 347 0 l 347 87 l 347 174 l 347 260 l 347 347 l 260 347 l 260 260 l 174 260 l 174 174 l 174 87 l 174 0 l 87 0 l 87 -87 l 0 -87 m 434 694 l 434 781 l 347 781 l 347 694 l 260 694 l 260 781 l 347 781 l 347 868 l 347 955 l 434 955 l 434 868 l 521 868 l 521 781 l 521 694 l 434 694 z "},"Ħ":{"ha":781,"x_min":0,"x_max":694,"o":"m 608 -260 l 521 -260 l 521 -174 l 434 -174 l 434 -87 l 434 0 l 434 87 l 434 174 l 434 260 l 434 347 l 347 347 l 260 347 l 260 260 l 260 174 l 260 87 l 260 0 l 260 -87 l 174 -87 l 174 -174 l 87 -174 l 0 -174 l 0 -87 l 0 0 l 87 0 l 87 87 l 87 174 l 87 260 l 87 347 l 0 347 l 0 434 l 87 434 l 87 521 l 87 608 l 0 608 l 0 694 l 0 781 l 0 868 l 0 955 l 87 955 l 174 955 l 174 868 l 174 781 l 260 781 l 347 781 l 347 868 l 434 868 l 521 868 l 521 781 l 608 781 l 608 694 l 521 694 l 521 608 l 521 521 l 608 521 l 608 434 l 694 434 l 694 347 l 608 347 l 521 347 l 521 260 l 521 174 l 608 174 l 608 87 l 608 0 l 694 0 l 694 -87 l 694 -174 l 694 -260 l 608 -260 m 260 521 l 347 521 l 347 608 l 347 694 l 260 694 l 260 608 l 174 608 l 174 521 l 260 521 z "},"ħ":{"ha":608,"x_min":-87,"x_max":521,"o":"m 0 -87 l 0 0 l 0 87 l 0 174 l 87 174 l 87 260 l 87 347 l 87 434 l 87 521 l 0 521 l 0 608 l -87 608 l -87 694 l 0 694 l 0 781 l 0 868 l 87 868 l 174 868 l 174 781 l 174 694 l 260 694 l 260 781 l 347 781 l 434 781 l 434 694 l 347 694 l 347 608 l 260 608 l 174 608 l 174 521 l 174 434 l 260 434 l 260 521 l 347 521 l 434 521 l 434 434 l 521 434 l 521 347 l 521 260 l 521 174 l 521 87 l 521 0 l 434 0 l 347 0 l 347 87 l 347 174 l 347 260 l 347 347 l 260 347 l 260 260 l 174 260 l 174 174 l 174 87 l 174 0 l 87 0 l 87 -87 l 0 -87 z "},"Ĩ":{"ha":434,"x_min":-87,"x_max":347,"o":"m -87 868 l -87 955 l 0 955 l 0 868 l -87 868 m 174 -87 l 87 -87 l 87 0 l 0 0 l 0 87 l 0 174 l 0 260 l 0 347 l 87 347 l 87 434 l 87 521 l 87 608 l 0 608 l 0 694 l 0 781 l 87 781 l 174 781 l 174 694 l 260 694 l 260 608 l 260 521 l 260 434 l 260 347 l 174 347 l 174 260 l 174 174 l 260 174 l 260 87 l 260 0 l 260 -87 l 174 -87 m 174 868 l 87 868 l 87 955 l 0 955 l 0 1042 l 87 1042 l 174 1042 l 174 955 l 260 955 l 260 868 l 174 868 m 260 955 l 260 1042 l 347 1042 l 347 955 l 260 955 z "},"ĩ":{"ha":434,"x_min":-87,"x_max":347,"o":"m -87 608 l -87 694 l 0 694 l 0 608 l -87 608 m 174 -87 l 87 -87 l 87 0 l 0 0 l 0 87 l 0 174 l 0 260 l 0 347 l 0 434 l 0 521 l 87 521 l 87 434 l 174 434 l 174 347 l 174 260 l 174 174 l 174 87 l 260 87 l 260 0 l 260 -87 l 174 -87 m 174 608 l 87 608 l 87 694 l 0 694 l 0 781 l 87 781 l 174 781 l 174 694 l 260 694 l 260 608 l 174 608 m 260 694 l 260 781 l 347 781 l 347 694 l 260 694 z "},"Ī":{"ha":434,"x_min":-87,"x_max":347,"o":"m 174 -87 l 87 -87 l 87 0 l 0 0 l 0 87 l 0 174 l 0 260 l 0 347 l 87 347 l 87 434 l 87 521 l 87 608 l 0 608 l 0 694 l 0 781 l 87 781 l 174 781 l 174 694 l 260 694 l 260 608 l 260 521 l 260 434 l 260 347 l 174 347 l 174 260 l 174 174 l 260 174 l 260 87 l 260 0 l 260 -87 l 174 -87 m 260 955 l 347 955 l 347 868 l 260 868 l 174 868 l 87 868 l 0 868 l 0 955 l -87 955 l -87 1042 l 0 1042 l 87 1042 l 174 1042 l 174 955 l 260 955 z "},"ī":{"ha":434,"x_min":-87,"x_max":347,"o":"m 174 -87 l 87 -87 l 87 0 l 0 0 l 0 87 l 0 174 l 0 260 l 0 347 l 0 434 l 0 521 l 87 521 l 87 434 l 174 434 l 174 347 l 174 260 l 174 174 l 174 87 l 260 87 l 260 0 l 260 -87 l 174 -87 m 260 694 l 347 694 l 347 608 l 260 608 l 174 608 l 87 608 l 0 608 l 0 694 l -87 694 l -87 781 l 0 781 l 87 781 l 174 781 l 174 694 l 260 694 z "},"Ĭ":{"ha":434,"x_min":-87,"x_max":347,"o":"m 174 -87 l 87 -87 l 87 0 l 0 0 l 0 87 l 0 174 l 0 260 l 0 347 l 87 347 l 87 434 l 87 521 l 87 608 l 0 608 l 0 694 l 0 781 l 87 781 l 174 781 l 174 694 l 260 694 l 260 608 l 260 521 l 260 434 l 260 347 l 174 347 l 174 260 l 174 174 l 260 174 l 260 87 l 260 0 l 260 -87 l 174 -87 m 174 955 l 260 955 l 260 868 l 174 868 l 87 868 l 0 868 l 0 955 l -87 955 l -87 1042 l 0 1042 l 87 1042 l 87 955 l 174 955 m 260 955 l 260 1042 l 347 1042 l 347 955 l 260 955 z "},"ĭ":{"ha":434,"x_min":-87,"x_max":347,"o":"m 174 -87 l 87 -87 l 87 0 l 0 0 l 0 87 l 0 174 l 0 260 l 0 347 l 0 434 l 0 521 l 87 521 l 87 434 l 174 434 l 174 347 l 174 260 l 174 174 l 174 87 l 260 87 l 260 0 l 260 -87 l 174 -87 m 174 694 l 260 694 l 260 608 l 174 608 l 87 608 l 0 608 l 0 694 l -87 694 l -87 781 l 0 781 l 87 781 l 87 694 l 174 694 m 260 694 l 260 781 l 347 781 l 347 694 l 260 694 z "},"Į":{"ha":347,"x_min":0,"x_max":260,"o":"m 174 -347 l 87 -347 l 87 -260 l 0 -260 l 0 -174 l 0 -87 l 87 -87 l 87 0 l 0 0 l 0 87 l 0 174 l 0 260 l 0 347 l 87 347 l 87 434 l 87 521 l 87 608 l 87 694 l 0 694 l 0 781 l 0 868 l 87 868 l 174 868 l 174 781 l 260 781 l 260 694 l 260 608 l 260 521 l 260 434 l 174 434 l 174 347 l 174 260 l 174 174 l 260 174 l 260 87 l 260 0 l 260 -87 l 174 -87 l 174 -174 l 174 -260 l 260 -260 l 260 -347 l 174 -347 z "},"į":{"ha":347,"x_min":0,"x_max":260,"o":"m 174 -347 l 87 -347 l 87 -260 l 0 -260 l 0 -174 l 0 -87 l 87 -87 l 87 0 l 0 0 l 0 87 l 0 174 l 0 260 l 0 347 l 0 434 l 0 521 l 87 521 l 87 434 l 174 434 l 174 347 l 174 260 l 174 174 l 174 87 l 260 87 l 260 0 l 260 -87 l 174 -87 l 174 -174 l 174 -260 l 260 -260 l 260 -347 l 174 -347 m 87 608 l 0 608 l 0 694 l 0 781 l 87 781 l 87 868 l 174 868 l 174 781 l 174 694 l 174 608 l 87 608 z "},"İ":{"ha":347,"x_min":0,"x_max":260,"o":"m 174 -87 l 87 -87 l 87 0 l 0 0 l 0 87 l 0 174 l 0 260 l 0 347 l 87 347 l 87 434 l 87 521 l 87 608 l 0 608 l 0 694 l 0 781 l 87 781 l 174 781 l 174 694 l 260 694 l 260 608 l 260 521 l 260 434 l 260 347 l 174 347 l 174 260 l 174 174 l 260 174 l 260 87 l 260 0 l 260 -87 l 174 -87 m 87 868 l 0 868 l 0 955 l 0 1042 l 87 1042 l 174 1042 l 174 955 l 174 868 l 87 868 z "},"ı":{"ha":347,"x_min":0,"x_max":260,"o":"m 174 -87 l 87 -87 l 87 0 l 0 0 l 0 87 l 0 174 l 0 260 l 0 347 l 0 434 l 0 521 l 87 521 l 87 434 l 174 434 l 174 347 l 174 260 l 174 174 l 174 87 l 260 87 l 260 0 l 260 -87 l 174 -87 z "},"Ĳ":{"ha":955,"x_min":0,"x_max":868,"o":"m 434 -87 l 347 -87 l 260 -87 l 174 -87 l 174 0 l 87 0 l 87 87 l 0 87 l 0 174 l 87 174 l 87 260 l 174 260 l 174 174 l 260 174 l 260 87 l 347 87 l 434 87 l 434 174 l 521 174 l 521 260 l 521 347 l 521 434 l 434 434 l 434 521 l 434 608 l 434 694 l 347 694 l 260 694 l 260 781 l 260 868 l 347 868 l 434 868 l 521 868 l 521 781 l 608 781 l 694 781 l 694 868 l 781 868 l 868 868 l 868 781 l 868 694 l 781 694 l 781 608 l 694 608 l 608 608 l 608 521 l 608 434 l 608 347 l 694 347 l 694 260 l 694 174 l 694 87 l 608 87 l 608 0 l 521 0 l 521 -87 l 434 -87 m 87 347 l 0 347 l 0 434 l 0 521 l 0 608 l 0 694 l 0 781 l 87 781 l 87 868 l 174 868 l 174 781 l 174 694 l 174 608 l 174 521 l 174 434 l 174 347 l 87 347 z "},"ĳ":{"ha":608,"x_min":0,"x_max":521,"o":"m 347 608 l 347 694 l 260 694 l 260 781 l 260 868 l 347 868 l 347 781 l 434 781 l 434 694 l 434 608 l 347 608 m 260 -260 l 174 -260 l 174 -174 l 174 -87 l 260 -87 l 260 0 l 174 0 l 87 0 l 87 87 l 0 87 l 0 174 l 0 260 l 0 347 l 0 434 l 0 521 l 87 521 l 174 521 l 174 434 l 174 347 l 174 260 l 87 260 l 87 174 l 174 174 l 174 87 l 260 87 l 260 174 l 347 174 l 347 260 l 347 347 l 260 347 l 260 434 l 260 521 l 347 521 l 434 521 l 434 434 l 434 347 l 434 260 l 521 260 l 521 174 l 521 87 l 521 0 l 521 -87 l 434 -87 l 434 -174 l 347 -174 l 347 -260 l 260 -260 m 347 0 l 347 87 l 260 87 l 260 0 l 347 0 m 87 608 l 0 608 l 0 694 l 0 781 l 87 781 l 174 781 l 174 694 l 174 608 l 87 608 z "},"Ĵ":{"ha":868,"x_min":0,"x_max":781,"o":"m 87 781 l 87 868 l 174 868 l 174 781 l 87 781 m 347 -87 l 260 -87 l 174 -87 l 87 -87 l 87 0 l 0 0 l 0 87 l 0 174 l 87 174 l 87 260 l 174 260 l 260 260 l 260 174 l 260 87 l 347 87 l 434 87 l 434 174 l 521 174 l 521 260 l 521 347 l 434 347 l 434 434 l 347 434 l 347 521 l 260 521 l 260 434 l 174 434 l 87 434 l 0 434 l 0 521 l 0 608 l 87 608 l 174 608 l 260 608 l 260 694 l 347 694 l 347 781 l 434 781 l 434 868 l 521 868 l 608 868 l 694 868 l 694 781 l 781 781 l 781 694 l 781 608 l 694 608 l 608 608 l 521 608 l 434 608 l 434 521 l 521 521 l 521 434 l 608 434 l 608 347 l 608 260 l 608 174 l 608 87 l 521 87 l 521 0 l 434 0 l 434 -87 l 347 -87 m 347 781 l 260 781 l 260 868 l 174 868 l 174 955 l 174 1042 l 260 1042 l 260 955 l 347 955 l 347 868 l 347 781 z "},"ĵ":{"ha":434,"x_min":0,"x_max":347,"o":"m 174 608 l 174 694 l 87 694 l 87 608 l 0 608 l 0 694 l 87 694 l 87 781 l 87 868 l 174 868 l 174 781 l 260 781 l 260 694 l 260 608 l 174 608 m 87 -260 l 0 -260 l 0 -174 l 0 -87 l 87 -87 l 87 0 l 174 0 l 174 87 l 260 87 l 260 174 l 174 174 l 174 260 l 174 347 l 87 347 l 87 434 l 87 521 l 174 521 l 260 521 l 260 434 l 260 347 l 260 260 l 347 260 l 347 174 l 347 87 l 347 0 l 347 -87 l 260 -87 l 260 -174 l 174 -174 l 174 -260 l 87 -260 z "},"Ķ":{"ha":781,"x_min":0,"x_max":694,"o":"m 87 0 l 87 87 l 87 174 l 87 260 l 87 347 l 87 434 l 87 521 l 87 608 l 87 694 l 0 694 l 0 781 l 0 868 l 0 955 l 87 955 l 174 955 l 174 868 l 260 868 l 260 781 l 260 694 l 260 608 l 347 608 l 347 694 l 434 694 l 434 781 l 434 868 l 521 868 l 608 868 l 608 781 l 608 694 l 521 694 l 521 608 l 521 521 l 434 521 l 347 521 l 347 434 l 347 347 l 434 347 l 434 260 l 521 260 l 608 260 l 694 260 l 694 174 l 694 87 l 608 87 l 608 0 l 521 0 l 434 0 l 434 87 l 347 87 l 347 174 l 347 260 l 260 260 l 260 174 l 260 87 l 174 87 l 174 0 l 87 0 m 260 -347 l 174 -347 l 174 -260 l 260 -260 l 260 -174 l 260 -87 l 347 -87 l 434 -87 l 434 -174 l 434 -260 l 347 -260 l 347 -347 l 260 -347 z "},"ķ":{"ha":694,"x_min":0,"x_max":608,"o":"m 260 -347 l 174 -347 l 174 -260 l 260 -260 l 260 -174 l 260 -87 l 347 -87 l 434 -87 l 434 -174 l 434 -260 l 347 -260 l 347 -347 l 260 -347 m 87 -87 l 0 -87 l 0 0 l 0 87 l 0 174 l 0 260 l 87 260 l 87 347 l 87 434 l 87 521 l 87 608 l 87 694 l 0 694 l 0 781 l 0 868 l 87 868 l 174 868 l 174 781 l 174 694 l 260 694 l 260 608 l 260 521 l 260 434 l 347 434 l 347 521 l 347 608 l 434 608 l 521 608 l 521 521 l 521 434 l 434 434 l 434 347 l 347 347 l 347 260 l 434 260 l 434 174 l 521 174 l 608 174 l 608 87 l 608 0 l 521 0 l 434 0 l 434 87 l 347 87 l 347 174 l 260 174 l 260 260 l 174 260 l 174 174 l 174 87 l 174 0 l 174 -87 l 87 -87 z "},"ĸ":{"ha":694,"x_min":0,"x_max":608,"o":"m 521 0 l 434 0 l 434 87 l 347 87 l 347 174 l 260 174 l 260 260 l 174 260 l 174 174 l 174 87 l 174 0 l 87 0 l 0 0 l 0 87 l 0 174 l 0 260 l 87 260 l 87 347 l 87 434 l 87 521 l 87 608 l 174 608 l 260 608 l 260 521 l 260 434 l 347 434 l 347 521 l 347 608 l 434 608 l 521 608 l 521 521 l 521 434 l 434 434 l 434 347 l 347 347 l 347 260 l 434 260 l 434 174 l 521 174 l 608 174 l 608 87 l 608 0 l 521 0 z "},"Ĺ":{"ha":781,"x_min":0,"x_max":694,"o":"m 521 -87 l 434 -87 l 347 -87 l 347 0 l 260 0 l 174 0 l 87 0 l 0 0 l 0 87 l 0 174 l 87 174 l 87 260 l 87 347 l 174 347 l 174 434 l 174 521 l 87 521 l 87 608 l 0 608 l 0 694 l 0 781 l 87 781 l 174 781 l 260 781 l 260 694 l 347 694 l 347 608 l 347 521 l 347 434 l 347 347 l 260 347 l 260 260 l 260 174 l 347 174 l 347 87 l 434 87 l 521 87 l 521 174 l 608 174 l 694 174 l 694 87 l 694 0 l 608 0 l 608 -87 l 521 -87 m 174 868 l 87 868 l 87 955 l 174 955 l 174 1042 l 260 1042 l 347 1042 l 347 955 l 260 955 l 260 868 l 174 868 z "},"ĺ":{"ha":347,"x_min":0,"x_max":260,"o":"m 174 -87 l 87 -87 l 87 0 l 87 87 l 0 87 l 0 174 l 0 260 l 0 347 l 0 434 l 87 434 l 87 521 l 87 608 l 0 608 l 0 694 l 0 781 l 87 781 l 174 781 l 174 694 l 174 608 l 260 608 l 260 521 l 260 434 l 174 434 l 174 347 l 174 260 l 174 174 l 174 87 l 260 87 l 260 0 l 260 -87 l 174 -87 m 87 868 l 0 868 l 0 955 l 87 955 l 87 1042 l 174 1042 l 260 1042 l 260 955 l 174 955 l 174 868 l 87 868 z "},"Ļ":{"ha":781,"x_min":0,"x_max":694,"o":"m 174 -347 l 87 -347 l 87 -260 l 174 -260 l 174 -174 l 174 -87 l 260 -87 l 347 -87 l 347 -174 l 347 -260 l 260 -260 l 260 -347 l 174 -347 m 521 -87 l 434 -87 l 347 -87 l 347 0 l 260 0 l 174 0 l 87 0 l 0 0 l 0 87 l 0 174 l 87 174 l 87 260 l 87 347 l 174 347 l 174 434 l 174 521 l 174 608 l 87 608 l 87 694 l 0 694 l 0 781 l 0 868 l 87 868 l 174 868 l 260 868 l 260 781 l 347 781 l 347 694 l 347 608 l 347 521 l 347 434 l 347 347 l 260 347 l 260 260 l 260 174 l 347 174 l 347 87 l 434 87 l 521 87 l 521 174 l 608 174 l 694 174 l 694 87 l 694 0 l 608 0 l 608 -87 l 521 -87 z "},"ļ":{"ha":347,"x_min":0,"x_max":260,"o":"m 87 -347 l 0 -347 l 0 -260 l 87 -260 l 87 -174 l 87 -87 l 174 -87 l 260 -87 l 260 -174 l 260 -260 l 174 -260 l 174 -347 l 87 -347 m 174 0 l 87 0 l 87 87 l 0 87 l 0 174 l 0 260 l 0 347 l 0 434 l 87 434 l 87 521 l 87 608 l 87 694 l 0 694 l 0 781 l 0 868 l 87 868 l 174 868 l 174 781 l 260 781 l 260 694 l 260 608 l 260 521 l 260 434 l 174 434 l 174 347 l 174 260 l 174 174 l 174 87 l 260 87 l 260 0 l 174 0 z "},"Ľ":{"ha":781,"x_min":0,"x_max":694,"o":"m 434 521 l 434 608 l 434 694 l 434 781 l 434 868 l 521 868 l 608 868 l 608 781 l 608 694 l 521 694 l 521 608 l 521 521 l 434 521 m 521 -87 l 434 -87 l 347 -87 l 347 0 l 260 0 l 174 0 l 87 0 l 0 0 l 0 87 l 0 174 l 87 174 l 87 260 l 87 347 l 174 347 l 174 434 l 174 521 l 174 608 l 87 608 l 87 694 l 0 694 l 0 781 l 0 868 l 87 868 l 174 868 l 260 868 l 260 781 l 347 781 l 347 694 l 347 608 l 347 521 l 347 434 l 347 347 l 260 347 l 260 260 l 260 174 l 347 174 l 347 87 l 434 87 l 521 87 l 521 174 l 608 174 l 694 174 l 694 87 l 694 0 l 608 0 l 608 -87 l 521 -87 z "},"ľ":{"ha":608,"x_min":0,"x_max":521,"o":"m 347 521 l 347 608 l 347 694 l 347 781 l 347 868 l 434 868 l 521 868 l 521 781 l 521 694 l 434 694 l 434 608 l 434 521 l 347 521 m 174 -87 l 87 -87 l 87 0 l 87 87 l 0 87 l 0 174 l 0 260 l 0 347 l 0 434 l 87 434 l 87 521 l 87 608 l 87 694 l 0 694 l 0 781 l 0 868 l 87 868 l 174 868 l 174 781 l 260 781 l 260 694 l 260 608 l 260 521 l 260 434 l 174 434 l 174 347 l 174 260 l 174 174 l 174 87 l 260 87 l 260 0 l 260 -87 l 174 -87 z "},"Ŀ":{"ha":781,"x_min":0,"x_max":694,"o":"m 521 -87 l 434 -87 l 347 -87 l 347 0 l 260 0 l 174 0 l 87 0 l 0 0 l 0 87 l 0 174 l 87 174 l 87 260 l 87 347 l 174 347 l 174 434 l 174 521 l 174 608 l 87 608 l 87 694 l 0 694 l 0 781 l 0 868 l 87 868 l 174 868 l 260 868 l 260 781 l 347 781 l 347 694 l 347 608 l 347 521 l 347 434 l 347 347 l 260 347 l 260 260 l 260 174 l 347 174 l 347 87 l 434 87 l 521 87 l 521 174 l 608 174 l 694 174 l 694 87 l 694 0 l 608 0 l 608 -87 l 521 -87 m 521 260 l 434 260 l 434 347 l 434 434 l 521 434 l 608 434 l 608 347 l 608 260 l 521 260 z "},"ŀ":{"ha":608,"x_min":0,"x_max":521,"o":"m 174 -87 l 87 -87 l 87 0 l 87 87 l 0 87 l 0 174 l 0 260 l 0 347 l 0 434 l 87 434 l 87 521 l 87 608 l 87 694 l 0 694 l 0 781 l 0 868 l 87 868 l 174 868 l 174 781 l 260 781 l 260 694 l 260 608 l 260 521 l 260 434 l 174 434 l 174 347 l 174 260 l 174 174 l 174 87 l 260 87 l 260 0 l 260 -87 l 174 -87 m 434 260 l 347 260 l 347 347 l 347 434 l 434 434 l 521 434 l 521 347 l 521 260 l 434 260 z "},"Ł":{"ha":781,"x_min":0,"x_max":694,"o":"m 521 -87 l 434 -87 l 347 -87 l 347 0 l 260 0 l 174 0 l 87 0 l 0 0 l 0 87 l 0 174 l 87 174 l 87 260 l 87 347 l 0 347 l 0 434 l 87 434 l 174 434 l 174 521 l 174 608 l 87 608 l 87 694 l 0 694 l 0 781 l 0 868 l 87 868 l 174 868 l 260 868 l 260 781 l 347 781 l 347 694 l 347 608 l 434 608 l 434 694 l 521 694 l 608 694 l 608 608 l 608 521 l 521 521 l 434 521 l 434 434 l 347 434 l 347 347 l 260 347 l 260 260 l 260 174 l 347 174 l 347 87 l 434 87 l 521 87 l 521 174 l 608 174 l 694 174 l 694 87 l 694 0 l 608 0 l 608 -87 l 521 -87 z "},"ł":{"ha":521,"x_min":-87,"x_max":434,"o":"m 174 -87 l 87 -87 l 87 0 l 87 87 l 0 87 l 0 174 l 0 260 l -87 260 l -87 347 l 0 347 l 0 434 l 87 434 l 87 521 l 87 608 l 87 694 l 0 694 l 0 781 l 0 868 l 87 868 l 174 868 l 174 781 l 260 781 l 260 694 l 260 608 l 347 608 l 347 694 l 434 694 l 434 608 l 434 521 l 347 521 l 347 434 l 260 434 l 260 347 l 174 347 l 174 260 l 174 174 l 174 87 l 260 87 l 260 0 l 260 -87 l 174 -87 z "},"Ń":{"ha":694,"x_min":0,"x_max":608,"o":"m 87 -87 l 87 0 l 0 0 l 0 87 l 0 174 l 0 260 l 0 347 l 0 434 l 0 521 l 0 608 l 0 694 l 87 694 l 87 781 l 174 781 l 174 694 l 260 694 l 260 608 l 260 521 l 347 521 l 347 434 l 347 347 l 434 347 l 434 434 l 434 521 l 434 608 l 434 694 l 434 781 l 434 868 l 521 868 l 608 868 l 608 781 l 608 694 l 608 608 l 608 521 l 608 434 l 608 347 l 521 347 l 521 260 l 521 174 l 521 87 l 521 0 l 434 0 l 347 0 l 347 87 l 347 174 l 260 174 l 260 260 l 260 347 l 260 434 l 174 434 l 174 347 l 174 260 l 174 174 l 174 87 l 174 0 l 174 -87 l 87 -87 m 260 868 l 174 868 l 174 955 l 260 955 l 260 1042 l 347 1042 l 434 1042 l 434 955 l 347 955 l 347 868 l 260 868 z "},"ń":{"ha":694,"x_min":0,"x_max":608,"o":"m 434 -87 l 347 -87 l 347 0 l 347 87 l 434 87 l 434 174 l 434 260 l 434 347 l 434 434 l 347 434 l 260 434 l 260 347 l 260 260 l 260 174 l 260 87 l 174 87 l 174 0 l 87 0 l 0 0 l 0 87 l 0 174 l 87 174 l 87 260 l 87 347 l 0 347 l 0 434 l 0 521 l 0 608 l 87 608 l 174 608 l 174 521 l 260 521 l 260 608 l 347 608 l 434 608 l 434 521 l 521 521 l 521 434 l 608 434 l 608 347 l 608 260 l 608 174 l 608 87 l 608 0 l 521 0 l 521 -87 l 434 -87 m 260 694 l 174 694 l 174 781 l 260 781 l 260 868 l 347 868 l 434 868 l 434 781 l 347 781 l 347 694 l 260 694 z "},"Ņ":{"ha":694,"x_min":0,"x_max":608,"o":"m 0 0 l 0 87 l 0 174 l 0 260 l 0 347 l 0 434 l 0 521 l 0 608 l 0 694 l 87 694 l 87 781 l 174 781 l 174 694 l 260 694 l 260 608 l 260 521 l 347 521 l 347 434 l 347 347 l 434 347 l 434 434 l 434 521 l 434 608 l 434 694 l 347 694 l 347 781 l 347 868 l 434 868 l 434 955 l 521 955 l 521 868 l 608 868 l 608 781 l 608 694 l 608 608 l 608 521 l 608 434 l 608 347 l 521 347 l 521 260 l 521 174 l 521 87 l 521 0 l 434 0 l 347 0 l 347 87 l 347 174 l 260 174 l 260 260 l 260 347 l 260 434 l 174 434 l 174 347 l 174 260 l 174 174 l 174 87 l 87 87 l 87 0 l 0 0 m 174 -347 l 87 -347 l 87 -260 l 174 -260 l 174 -174 l 174 -87 l 260 -87 l 347 -87 l 347 -174 l 347 -260 l 260 -260 l 260 -347 l 174 -347 z "},"ņ":{"ha":694,"x_min":0,"x_max":608,"o":"m 521 0 l 521 87 l 434 87 l 434 174 l 434 260 l 434 347 l 434 434 l 347 434 l 260 434 l 260 347 l 260 260 l 260 174 l 260 87 l 174 87 l 174 0 l 87 0 l 0 0 l 0 87 l 0 174 l 87 174 l 87 260 l 87 347 l 0 347 l 0 434 l 0 521 l 0 608 l 87 608 l 174 608 l 174 521 l 260 521 l 260 608 l 347 608 l 434 608 l 434 521 l 521 521 l 521 434 l 608 434 l 608 347 l 608 260 l 608 174 l 608 87 l 608 0 l 521 0 m 260 -347 l 174 -347 l 174 -260 l 260 -260 l 260 -174 l 260 -87 l 347 -87 l 434 -87 l 434 -174 l 434 -260 l 347 -260 l 347 -347 l 260 -347 z "},"Ň":{"ha":694,"x_min":0,"x_max":608,"o":"m 87 -87 l 87 0 l 0 0 l 0 87 l 0 174 l 0 260 l 0 347 l 0 434 l 0 521 l 0 608 l 0 694 l 87 694 l 87 781 l 174 781 l 174 694 l 260 694 l 260 608 l 260 521 l 347 521 l 347 434 l 347 347 l 434 347 l 434 434 l 434 521 l 434 608 l 434 694 l 347 694 l 347 781 l 434 781 l 434 868 l 521 868 l 608 868 l 608 781 l 608 694 l 608 608 l 608 521 l 608 434 l 608 347 l 521 347 l 521 260 l 521 174 l 521 87 l 521 0 l 434 0 l 347 0 l 347 87 l 347 174 l 260 174 l 260 260 l 260 347 l 260 434 l 174 434 l 174 347 l 174 260 l 174 174 l 174 87 l 174 0 l 174 -87 l 87 -87 m 174 781 l 174 868 l 174 955 l 260 955 l 260 1042 l 347 1042 l 347 955 l 347 868 l 260 868 l 260 781 l 174 781 m 174 955 l 87 955 l 87 1042 l 174 1042 l 174 955 z "},"ň":{"ha":694,"x_min":0,"x_max":608,"o":"m 260 694 l 260 781 l 260 868 l 347 868 l 347 955 l 434 955 l 434 868 l 434 781 l 347 781 l 347 694 l 260 694 m 434 -87 l 347 -87 l 347 0 l 347 87 l 434 87 l 434 174 l 434 260 l 434 347 l 434 434 l 347 434 l 260 434 l 260 347 l 260 260 l 260 174 l 260 87 l 174 87 l 174 0 l 87 0 l 0 0 l 0 87 l 0 174 l 87 174 l 87 260 l 87 347 l 0 347 l 0 434 l 0 521 l 0 608 l 87 608 l 174 608 l 174 521 l 260 521 l 260 608 l 347 608 l 434 608 l 434 521 l 521 521 l 521 434 l 608 434 l 608 347 l 608 260 l 608 174 l 608 87 l 608 0 l 521 0 l 521 -87 l 434 -87 m 260 868 l 174 868 l 174 955 l 260 955 l 260 868 z "},"ŉ":{"ha":694,"x_min":-87,"x_max":608,"o":"m 434 -87 l 347 -87 l 347 0 l 347 87 l 434 87 l 434 174 l 434 260 l 434 347 l 434 434 l 347 434 l 260 434 l 260 347 l 260 260 l 260 174 l 260 87 l 174 87 l 174 0 l 87 0 l 0 0 l 0 87 l 0 174 l 87 174 l 87 260 l 87 347 l 0 347 l 0 434 l 0 521 l 0 608 l 87 608 l 174 608 l 174 521 l 260 521 l 260 608 l 347 608 l 434 608 l 434 521 l 521 521 l 521 434 l 608 434 l 608 347 l 608 260 l 608 174 l 608 87 l 608 0 l 521 0 l 521 -87 l 434 -87 m 0 608 l -87 608 l -87 694 l -87 781 l -87 868 l 0 868 l 0 955 l 87 955 l 87 868 l 87 781 l 87 694 l 0 694 l 0 608 z "},"Ŋ":{"ha":694,"x_min":0,"x_max":608,"o":"m 0 -87 l 0 0 l 0 87 l 0 174 l 0 260 l 0 347 l 0 434 l 0 521 l 0 608 l 0 694 l 87 694 l 87 781 l 174 781 l 174 694 l 260 694 l 260 608 l 260 521 l 347 521 l 347 434 l 434 434 l 434 521 l 434 608 l 434 694 l 347 694 l 347 781 l 347 868 l 434 868 l 434 955 l 521 955 l 521 868 l 608 868 l 608 781 l 608 694 l 608 608 l 608 521 l 608 434 l 608 347 l 608 260 l 608 174 l 608 87 l 608 0 l 521 0 l 521 -87 l 521 -174 l 434 -174 l 434 -260 l 347 -260 l 260 -260 l 174 -260 l 174 -174 l 174 -87 l 260 -87 l 347 -87 l 347 0 l 434 0 l 434 87 l 434 174 l 347 174 l 347 260 l 347 347 l 260 347 l 260 434 l 174 434 l 174 347 l 174 260 l 174 174 l 174 87 l 174 0 l 87 0 l 87 -87 l 0 -87 z "},"ŋ":{"ha":694,"x_min":0,"x_max":608,"o":"m 347 -260 l 260 -260 l 174 -260 l 174 -174 l 174 -87 l 260 -87 l 347 -87 l 347 0 l 434 0 l 434 87 l 434 174 l 434 260 l 434 347 l 434 434 l 347 434 l 260 434 l 260 347 l 260 260 l 260 174 l 260 87 l 174 87 l 174 0 l 87 0 l 0 0 l 0 87 l 0 174 l 87 174 l 87 260 l 87 347 l 0 347 l 0 434 l 0 521 l 0 608 l 87 608 l 174 608 l 174 521 l 260 521 l 260 608 l 347 608 l 434 608 l 434 521 l 521 521 l 521 434 l 608 434 l 608 347 l 608 260 l 608 174 l 608 87 l 608 0 l 521 0 l 521 -87 l 521 -174 l 434 -174 l 434 -260 l 347 -260 z "},"Ō":{"ha":781,"x_min":0,"x_max":694,"o":"m 434 -87 l 347 -87 l 260 -87 l 174 -87 l 174 0 l 87 0 l 87 87 l 0 87 l 0 174 l 0 260 l 0 347 l 0 434 l 0 521 l 87 521 l 87 608 l 87 694 l 174 694 l 174 781 l 260 781 l 347 781 l 434 781 l 434 694 l 521 694 l 521 608 l 608 608 l 608 521 l 608 434 l 694 434 l 694 347 l 694 260 l 694 174 l 694 87 l 608 87 l 608 0 l 521 0 l 521 -87 l 434 -87 m 347 87 l 434 87 l 434 174 l 521 174 l 521 260 l 521 347 l 521 434 l 434 434 l 434 521 l 434 608 l 347 608 l 347 694 l 260 694 l 260 608 l 260 521 l 174 521 l 174 434 l 174 347 l 174 260 l 174 174 l 260 174 l 260 87 l 347 87 m 434 955 l 521 955 l 521 868 l 434 868 l 347 868 l 260 868 l 174 868 l 174 955 l 87 955 l 87 1042 l 174 1042 l 260 1042 l 347 1042 l 347 955 l 434 955 z "},"ō":{"ha":608,"x_min":0,"x_max":521,"o":"m 347 0 l 260 0 l 174 0 l 87 0 l 87 87 l 0 87 l 0 174 l 0 260 l 0 347 l 0 434 l 87 434 l 87 521 l 174 521 l 174 608 l 260 608 l 347 608 l 434 608 l 434 521 l 521 521 l 521 434 l 521 347 l 521 260 l 521 174 l 521 87 l 434 87 l 434 0 l 347 0 m 260 174 l 347 174 l 347 260 l 434 260 l 434 347 l 434 434 l 347 434 l 347 521 l 260 521 l 260 434 l 174 434 l 174 347 l 174 260 l 174 174 l 260 174 m 434 781 l 521 781 l 521 694 l 434 694 l 347 694 l 260 694 l 174 694 l 174 781 l 87 781 l 87 868 l 174 868 l 260 868 l 347 868 l 347 781 l 434 781 z "},"Ŏ":{"ha":781,"x_min":0,"x_max":694,"o":"m 434 -87 l 347 -87 l 260 -87 l 174 -87 l 174 0 l 87 0 l 87 87 l 0 87 l 0 174 l 0 260 l 0 347 l 0 434 l 0 521 l 87 521 l 87 608 l 87 694 l 174 694 l 174 781 l 260 781 l 347 781 l 434 781 l 434 694 l 521 694 l 521 608 l 608 608 l 608 521 l 608 434 l 694 434 l 694 347 l 694 260 l 694 174 l 694 87 l 608 87 l 608 0 l 521 0 l 521 -87 l 434 -87 m 347 87 l 434 87 l 434 174 l 521 174 l 521 260 l 521 347 l 521 434 l 434 434 l 434 521 l 434 608 l 347 608 l 347 694 l 260 694 l 260 608 l 260 521 l 174 521 l 174 434 l 174 347 l 174 260 l 174 174 l 260 174 l 260 87 l 347 87 m 347 955 l 434 955 l 434 868 l 347 868 l 260 868 l 174 868 l 174 955 l 87 955 l 87 1042 l 174 1042 l 260 1042 l 260 955 l 347 955 m 434 955 l 434 1042 l 521 1042 l 521 955 l 434 955 z "},"ŏ":{"ha":608,"x_min":0,"x_max":521,"o":"m 347 0 l 260 0 l 174 0 l 87 0 l 87 87 l 0 87 l 0 174 l 0 260 l 0 347 l 0 434 l 87 434 l 87 521 l 174 521 l 174 608 l 260 608 l 347 608 l 434 608 l 434 521 l 521 521 l 521 434 l 521 347 l 521 260 l 521 174 l 521 87 l 434 87 l 434 0 l 347 0 m 260 174 l 347 174 l 347 260 l 434 260 l 434 347 l 434 434 l 347 434 l 347 521 l 260 521 l 260 434 l 174 434 l 174 347 l 174 260 l 174 174 l 260 174 m 347 781 l 434 781 l 434 694 l 347 694 l 260 694 l 174 694 l 174 781 l 87 781 l 87 868 l 174 868 l 260 868 l 260 781 l 347 781 m 434 781 l 434 868 l 521 868 l 521 781 l 434 781 z "},"Ő":{"ha":781,"x_min":0,"x_max":694,"o":"m 434 -87 l 347 -87 l 260 -87 l 174 -87 l 174 0 l 87 0 l 87 87 l 0 87 l 0 174 l 0 260 l 0 347 l 0 434 l 0 521 l 87 521 l 87 608 l 87 694 l 174 694 l 174 781 l 174 868 l 174 955 l 260 955 l 260 1042 l 347 1042 l 347 955 l 347 868 l 260 868 l 260 781 l 347 781 l 434 781 l 434 694 l 521 694 l 521 608 l 608 608 l 608 521 l 608 434 l 694 434 l 694 347 l 694 260 l 694 174 l 694 87 l 608 87 l 608 0 l 521 0 l 521 -87 l 434 -87 m 347 87 l 434 87 l 434 174 l 521 174 l 521 260 l 521 347 l 521 434 l 434 434 l 434 521 l 434 608 l 347 608 l 347 694 l 260 694 l 260 608 l 260 521 l 174 521 l 174 434 l 174 347 l 174 260 l 174 174 l 260 174 l 260 87 l 347 87 m 434 781 l 434 868 l 434 955 l 521 955 l 521 1042 l 608 1042 l 608 955 l 608 868 l 521 868 l 521 781 l 434 781 z "},"ő":{"ha":608,"x_min":0,"x_max":521,"o":"m 347 0 l 260 0 l 174 0 l 87 0 l 87 87 l 0 87 l 0 174 l 0 260 l 0 347 l 0 434 l 87 434 l 87 521 l 174 521 l 174 608 l 260 608 l 347 608 l 347 694 l 347 781 l 434 781 l 434 868 l 521 868 l 521 781 l 521 694 l 434 694 l 434 608 l 434 521 l 521 521 l 521 434 l 521 347 l 521 260 l 521 174 l 521 87 l 434 87 l 434 0 l 347 0 m 260 174 l 347 174 l 347 260 l 434 260 l 434 347 l 434 434 l 347 434 l 347 521 l 260 521 l 260 434 l 174 434 l 174 347 l 174 260 l 174 174 l 260 174 m 174 608 l 87 608 l 87 694 l 87 781 l 174 781 l 174 868 l 260 868 l 260 781 l 260 694 l 174 694 l 174 608 z "},"Œ":{"ha":1128,"x_min":0,"x_max":1042,"o":"m 955 -87 l 868 -87 l 868 0 l 781 0 l 781 87 l 694 87 l 608 87 l 521 87 l 521 0 l 434 0 l 347 0 l 260 0 l 174 0 l 174 87 l 87 87 l 87 174 l 0 174 l 0 260 l 0 347 l 0 434 l 0 521 l 87 521 l 87 608 l 87 694 l 174 694 l 174 781 l 260 781 l 260 868 l 347 868 l 434 868 l 521 868 l 521 781 l 608 781 l 694 781 l 781 781 l 868 781 l 868 868 l 955 868 l 1042 868 l 1042 781 l 1042 694 l 955 694 l 955 608 l 868 608 l 781 608 l 694 608 l 694 521 l 781 521 l 868 521 l 955 521 l 955 434 l 955 347 l 868 347 l 781 347 l 694 347 l 694 260 l 694 174 l 781 174 l 868 174 l 955 174 l 955 87 l 1042 87 l 1042 0 l 1042 -87 l 955 -87 m 347 87 l 347 174 l 434 174 l 434 260 l 521 260 l 521 347 l 521 434 l 434 434 l 434 521 l 521 521 l 521 608 l 521 694 l 434 694 l 347 694 l 260 694 l 260 608 l 260 521 l 174 521 l 174 434 l 174 347 l 174 260 l 174 174 l 260 174 l 260 87 l 347 87 z "},"œ":{"ha":1128,"x_min":0,"x_max":1042,"o":"m 347 -87 l 260 -87 l 174 -87 l 174 0 l 87 0 l 87 87 l 0 87 l 0 174 l 0 260 l 0 347 l 0 434 l 87 434 l 87 521 l 174 521 l 174 608 l 260 608 l 347 608 l 434 608 l 434 521 l 521 521 l 608 521 l 608 608 l 694 608 l 781 608 l 868 608 l 868 521 l 955 521 l 955 434 l 955 347 l 868 347 l 868 260 l 781 260 l 694 260 l 608 260 l 608 174 l 694 174 l 694 87 l 781 87 l 781 174 l 868 174 l 868 260 l 955 260 l 1042 260 l 1042 174 l 1042 87 l 955 87 l 955 0 l 868 0 l 781 0 l 694 0 l 608 0 l 608 87 l 521 87 l 521 0 l 434 0 l 434 -87 l 347 -87 m 260 87 l 347 87 l 347 174 l 434 174 l 434 260 l 434 347 l 434 434 l 347 434 l 260 434 l 174 434 l 174 347 l 174 260 l 174 174 l 174 87 l 260 87 m 694 347 l 781 347 l 781 434 l 781 521 l 694 521 l 694 434 l 608 434 l 608 347 l 694 347 z "},"Ŕ":{"ha":868,"x_min":0,"x_max":781,"o":"m 87 -87 l 0 -87 l 0 0 l 0 87 l 87 87 l 87 174 l 87 260 l 87 347 l 87 434 l 87 521 l 87 608 l 87 694 l 0 694 l 0 781 l 0 868 l 87 868 l 174 868 l 174 781 l 260 781 l 347 781 l 347 868 l 434 868 l 521 868 l 521 781 l 608 781 l 608 694 l 608 608 l 608 521 l 521 521 l 521 434 l 434 434 l 347 434 l 347 347 l 347 260 l 434 260 l 434 174 l 521 174 l 608 174 l 608 260 l 694 260 l 781 260 l 781 174 l 781 87 l 694 87 l 694 0 l 608 0 l 521 0 l 434 0 l 434 87 l 347 87 l 347 174 l 260 174 l 260 87 l 260 0 l 174 0 l 174 -87 l 87 -87 m 347 521 l 434 521 l 434 608 l 434 694 l 347 694 l 260 694 l 260 608 l 260 521 l 347 521 m 347 868 l 260 868 l 174 868 l 174 955 l 260 955 l 260 1042 l 347 1042 l 434 1042 l 434 955 l 347 955 l 347 868 z "},"ŕ":{"ha":521,"x_min":0,"x_max":434,"o":"m 87 0 l 0 0 l 0 87 l 0 174 l 87 174 l 87 260 l 87 347 l 87 434 l 0 434 l 0 521 l 0 608 l 87 608 l 87 521 l 174 521 l 174 434 l 174 347 l 260 347 l 260 260 l 260 174 l 260 87 l 174 87 l 174 0 l 87 0 m 347 434 l 260 434 l 260 521 l 174 521 l 174 608 l 260 608 l 347 608 l 434 608 l 434 521 l 434 434 l 347 434 m 174 694 l 87 694 l 87 781 l 174 781 l 174 868 l 260 868 l 347 868 l 347 781 l 260 781 l 260 694 l 174 694 z "},"Ŗ":{"ha":868,"x_min":0,"x_max":781,"o":"m 260 -347 l 174 -347 l 174 -260 l 260 -260 l 260 -174 l 260 -87 l 347 -87 l 434 -87 l 434 -174 l 434 -260 l 347 -260 l 347 -347 l 260 -347 m 87 -87 l 0 -87 l 0 0 l 0 87 l 87 87 l 87 174 l 87 260 l 87 347 l 87 434 l 87 521 l 87 608 l 87 694 l 0 694 l 0 781 l 0 868 l 87 868 l 174 868 l 174 781 l 260 781 l 347 781 l 347 868 l 434 868 l 521 868 l 521 781 l 608 781 l 608 694 l 608 608 l 608 521 l 521 521 l 521 434 l 434 434 l 347 434 l 347 347 l 347 260 l 434 260 l 434 174 l 521 174 l 608 174 l 608 260 l 694 260 l 781 260 l 781 174 l 781 87 l 694 87 l 694 0 l 608 0 l 521 0 l 434 0 l 434 87 l 347 87 l 347 174 l 260 174 l 260 87 l 260 0 l 174 0 l 174 -87 l 87 -87 m 347 521 l 434 521 l 434 608 l 434 694 l 347 694 l 260 694 l 260 608 l 260 521 l 347 521 z "},"ŗ":{"ha":521,"x_min":0,"x_max":434,"o":"m 87 -347 l 0 -347 l 0 -260 l 87 -260 l 87 -174 l 87 -87 l 174 -87 l 260 -87 l 260 -174 l 260 -260 l 174 -260 l 174 -347 l 87 -347 m 87 0 l 0 0 l 0 87 l 0 174 l 87 174 l 87 260 l 87 347 l 87 434 l 0 434 l 0 521 l 0 608 l 87 608 l 87 521 l 174 521 l 174 434 l 174 347 l 260 347 l 260 260 l 260 174 l 260 87 l 174 87 l 174 0 l 87 0 m 347 434 l 260 434 l 260 521 l 174 521 l 174 608 l 260 608 l 347 608 l 434 608 l 434 521 l 434 434 l 347 434 z "},"Ř":{"ha":868,"x_min":0,"x_max":781,"o":"m 87 -87 l 0 -87 l 0 0 l 0 87 l 87 87 l 87 174 l 87 260 l 87 347 l 87 434 l 87 521 l 87 608 l 0 608 l 0 694 l 0 781 l 87 781 l 174 781 l 174 694 l 260 694 l 347 694 l 347 781 l 434 781 l 521 781 l 521 694 l 608 694 l 608 608 l 608 521 l 608 434 l 521 434 l 521 347 l 434 347 l 347 347 l 347 260 l 434 260 l 434 174 l 521 174 l 608 174 l 608 260 l 694 260 l 781 260 l 781 174 l 781 87 l 694 87 l 694 0 l 608 0 l 521 0 l 434 0 l 434 87 l 347 87 l 347 174 l 260 174 l 260 87 l 260 0 l 174 0 l 174 -87 l 87 -87 m 347 434 l 434 434 l 434 521 l 434 608 l 347 608 l 260 608 l 260 521 l 260 434 l 347 434 m 347 781 l 260 781 l 260 868 l 260 955 l 347 955 l 347 1042 l 434 1042 l 434 955 l 434 868 l 347 868 l 347 781 m 260 955 l 174 955 l 174 1042 l 260 1042 l 260 955 z "},"ř":{"ha":521,"x_min":0,"x_max":434,"o":"m 174 694 l 174 781 l 174 868 l 260 868 l 260 955 l 347 955 l 347 868 l 347 781 l 260 781 l 260 694 l 174 694 m 87 0 l 0 0 l 0 87 l 0 174 l 87 174 l 87 260 l 87 347 l 87 434 l 0 434 l 0 521 l 0 608 l 87 608 l 87 521 l 174 521 l 174 434 l 174 347 l 260 347 l 260 260 l 260 174 l 260 87 l 174 87 l 174 0 l 87 0 m 347 434 l 260 434 l 260 521 l 174 521 l 174 608 l 260 608 l 347 608 l 434 608 l 434 521 l 434 434 l 347 434 m 174 868 l 87 868 l 87 955 l 174 955 l 174 868 z "},"Ś":{"ha":781,"x_min":0,"x_max":694,"o":"m 347 -87 l 260 -87 l 174 -87 l 174 0 l 87 0 l 87 87 l 87 174 l 174 174 l 260 174 l 260 87 l 347 87 l 434 87 l 434 174 l 521 174 l 521 260 l 434 260 l 347 260 l 260 260 l 260 347 l 174 347 l 87 347 l 87 434 l 0 434 l 0 521 l 0 608 l 87 608 l 87 694 l 174 694 l 260 694 l 260 781 l 347 781 l 434 781 l 521 781 l 608 781 l 608 694 l 694 694 l 694 608 l 608 608 l 608 521 l 521 521 l 434 521 l 434 608 l 347 608 l 260 608 l 260 521 l 174 521 l 174 434 l 260 434 l 347 434 l 434 434 l 521 434 l 521 347 l 608 347 l 608 260 l 694 260 l 694 174 l 608 174 l 608 87 l 521 87 l 521 0 l 434 0 l 434 -87 l 347 -87 m 347 868 l 260 868 l 260 955 l 347 955 l 347 1042 l 434 1042 l 521 1042 l 521 955 l 434 955 l 434 868 l 347 868 z "},"ś":{"ha":608,"x_min":0,"x_max":521,"o":"m 347 0 l 260 0 l 174 0 l 87 0 l 87 87 l 0 87 l 0 174 l 0 260 l 87 260 l 174 260 l 174 347 l 87 347 l 87 434 l 0 434 l 0 521 l 87 521 l 87 608 l 174 608 l 174 694 l 260 694 l 347 694 l 434 694 l 434 608 l 521 608 l 521 521 l 521 434 l 434 434 l 347 434 l 347 521 l 260 521 l 174 521 l 174 434 l 260 434 l 260 347 l 347 347 l 434 347 l 434 260 l 521 260 l 521 174 l 521 87 l 434 87 l 434 0 l 347 0 m 260 174 l 347 174 l 347 260 l 260 260 l 174 260 l 174 174 l 260 174 m 260 781 l 174 781 l 174 868 l 260 868 l 260 955 l 347 955 l 434 955 l 434 868 l 347 868 l 347 781 l 260 781 z "},"Ŝ":{"ha":781,"x_min":0,"x_max":694,"o":"m 347 -87 l 260 -87 l 174 -87 l 174 0 l 87 0 l 87 87 l 87 174 l 174 174 l 260 174 l 260 87 l 347 87 l 434 87 l 434 174 l 521 174 l 521 260 l 434 260 l 347 260 l 260 260 l 260 347 l 174 347 l 87 347 l 87 434 l 0 434 l 0 521 l 0 608 l 87 608 l 87 694 l 174 694 l 260 694 l 260 781 l 347 781 l 434 781 l 521 781 l 608 781 l 608 694 l 694 694 l 694 608 l 608 608 l 608 521 l 521 521 l 434 521 l 434 608 l 347 608 l 260 608 l 260 521 l 174 521 l 174 434 l 260 434 l 347 434 l 434 434 l 521 434 l 521 347 l 608 347 l 608 260 l 694 260 l 694 174 l 608 174 l 608 87 l 521 87 l 521 0 l 434 0 l 434 -87 l 347 -87 m 260 781 l 174 781 l 174 868 l 260 868 l 260 781 m 260 868 l 260 955 l 260 1042 l 347 1042 l 347 955 l 434 955 l 434 868 l 347 868 l 260 868 z "},"ŝ":{"ha":608,"x_min":0,"x_max":521,"o":"m 347 781 l 347 868 l 260 868 l 260 781 l 174 781 l 174 868 l 260 868 l 260 955 l 260 1042 l 347 1042 l 347 955 l 434 955 l 434 868 l 434 781 l 347 781 m 347 0 l 260 0 l 174 0 l 87 0 l 87 87 l 0 87 l 0 174 l 0 260 l 87 260 l 174 260 l 174 347 l 87 347 l 87 434 l 0 434 l 0 521 l 87 521 l 87 608 l 174 608 l 174 694 l 260 694 l 347 694 l 434 694 l 434 608 l 521 608 l 521 521 l 521 434 l 434 434 l 347 434 l 347 521 l 260 521 l 174 521 l 174 434 l 260 434 l 260 347 l 347 347 l 434 347 l 434 260 l 521 260 l 521 174 l 521 87 l 434 87 l 434 0 l 347 0 m 260 174 l 347 174 l 347 260 l 260 260 l 174 260 l 174 174 l 260 174 z "},"Ş":{"ha":781,"x_min":0,"x_max":694,"o":"m 347 -347 l 260 -347 l 260 -260 l 174 -260 l 174 -174 l 260 -174 l 347 -174 l 434 -174 l 434 -87 l 521 -87 l 521 -174 l 521 -260 l 434 -260 l 434 -347 l 347 -347 m 434 -87 l 347 -87 l 260 -87 l 174 -87 l 174 0 l 87 0 l 87 87 l 87 174 l 174 174 l 260 174 l 260 87 l 347 87 l 434 87 l 434 174 l 521 174 l 521 260 l 521 347 l 434 347 l 347 347 l 260 347 l 260 434 l 174 434 l 87 434 l 87 521 l 0 521 l 0 608 l 0 694 l 87 694 l 87 781 l 174 781 l 260 781 l 260 868 l 347 868 l 434 868 l 521 868 l 608 868 l 608 781 l 694 781 l 694 694 l 608 694 l 608 608 l 521 608 l 434 608 l 434 694 l 347 694 l 260 694 l 260 608 l 174 608 l 174 521 l 260 521 l 347 521 l 434 521 l 521 521 l 521 434 l 608 434 l 608 347 l 694 347 l 694 260 l 694 174 l 608 174 l 608 87 l 521 87 l 521 0 l 434 0 l 434 -87 z "},"ş":{"ha":608,"x_min":0,"x_max":521,"o":"m 260 -347 l 174 -347 l 174 -260 l 87 -260 l 87 -174 l 174 -174 l 260 -174 l 347 -174 l 347 -87 l 434 -87 l 434 -174 l 434 -260 l 347 -260 l 347 -347 l 260 -347 m 347 -87 l 260 -87 l 260 0 l 174 0 l 87 0 l 87 87 l 0 87 l 0 174 l 0 260 l 87 260 l 174 260 l 174 347 l 87 347 l 87 434 l 0 434 l 0 521 l 87 521 l 87 608 l 174 608 l 174 694 l 260 694 l 347 694 l 434 694 l 434 608 l 521 608 l 521 521 l 521 434 l 434 434 l 347 434 l 347 521 l 260 521 l 174 521 l 174 434 l 260 434 l 260 347 l 347 347 l 434 347 l 434 260 l 521 260 l 521 174 l 521 87 l 434 87 l 434 0 l 347 0 l 347 -87 m 260 174 l 347 174 l 347 260 l 260 260 l 174 260 l 174 174 l 260 174 z "},"Š":{"ha":781,"x_min":0,"x_max":694,"o":"m 347 -87 l 260 -87 l 174 -87 l 174 0 l 87 0 l 87 87 l 87 174 l 174 174 l 260 174 l 260 87 l 347 87 l 434 87 l 434 174 l 521 174 l 521 260 l 434 260 l 347 260 l 260 260 l 260 347 l 174 347 l 87 347 l 87 434 l 0 434 l 0 521 l 0 608 l 87 608 l 87 694 l 174 694 l 260 694 l 347 694 l 347 781 l 434 781 l 521 781 l 608 781 l 608 694 l 694 694 l 694 608 l 608 608 l 608 521 l 521 521 l 434 521 l 434 608 l 347 608 l 260 608 l 260 521 l 174 521 l 174 434 l 260 434 l 347 434 l 434 434 l 521 434 l 521 347 l 608 347 l 608 260 l 694 260 l 694 174 l 608 174 l 608 87 l 521 87 l 521 0 l 434 0 l 434 -87 l 347 -87 m 347 781 l 260 781 l 260 868 l 260 955 l 347 955 l 347 1042 l 434 1042 l 434 955 l 434 868 l 347 868 l 347 781 m 260 955 l 174 955 l 174 1042 l 260 1042 l 260 955 z "},"š":{"ha":608,"x_min":0,"x_max":521,"o":"m 260 781 l 260 868 l 260 955 l 347 955 l 347 1042 l 434 1042 l 434 955 l 434 868 l 347 868 l 347 781 l 260 781 m 347 0 l 260 0 l 174 0 l 87 0 l 87 87 l 0 87 l 0 174 l 0 260 l 87 260 l 174 260 l 174 347 l 87 347 l 87 434 l 0 434 l 0 521 l 87 521 l 87 608 l 174 608 l 174 694 l 260 694 l 347 694 l 434 694 l 434 608 l 521 608 l 521 521 l 521 434 l 434 434 l 347 434 l 347 521 l 260 521 l 174 521 l 174 434 l 260 434 l 260 347 l 347 347 l 434 347 l 434 260 l 521 260 l 521 174 l 521 87 l 434 87 l 434 0 l 347 0 m 260 174 l 347 174 l 347 260 l 260 260 l 174 260 l 174 174 l 260 174 m 260 955 l 174 955 l 174 1042 l 260 1042 l 260 955 z "},"Ţ":{"ha":868,"x_min":0,"x_max":781,"o":"m 260 -347 l 174 -347 l 174 -260 l 87 -260 l 87 -174 l 174 -174 l 260 -174 l 347 -174 l 347 -87 l 434 -87 l 434 -174 l 434 -260 l 347 -260 l 347 -347 l 260 -347 m 347 -87 l 260 -87 l 174 -87 l 174 0 l 174 87 l 260 87 l 260 174 l 260 260 l 260 347 l 260 434 l 260 521 l 260 608 l 260 694 l 174 694 l 174 608 l 87 608 l 0 608 l 0 694 l 0 781 l 87 781 l 174 781 l 174 868 l 260 868 l 347 868 l 434 868 l 434 955 l 521 955 l 608 955 l 694 955 l 694 868 l 781 868 l 781 781 l 781 694 l 694 694 l 608 694 l 608 781 l 521 781 l 434 781 l 434 694 l 347 694 l 347 608 l 347 521 l 434 521 l 434 434 l 434 347 l 434 260 l 434 174 l 434 87 l 434 0 l 347 0 l 347 -87 z "},"ţ":{"ha":521,"x_min":0,"x_max":434,"o":"m 260 -347 l 174 -347 l 174 -260 l 87 -260 l 87 -174 l 174 -174 l 260 -174 l 347 -174 l 347 -87 l 434 -87 l 434 -174 l 434 -260 l 347 -260 l 347 -347 l 260 -347 m 347 -87 l 260 -87 l 174 -87 l 174 0 l 87 0 l 87 87 l 87 174 l 87 260 l 87 347 l 87 434 l 87 521 l 0 521 l 0 608 l 87 608 l 174 608 l 174 694 l 174 781 l 260 781 l 260 868 l 347 868 l 434 868 l 434 781 l 434 694 l 347 694 l 347 608 l 347 521 l 434 521 l 434 434 l 347 434 l 260 434 l 260 347 l 260 260 l 260 174 l 260 87 l 347 87 l 347 0 l 347 -87 z "},"Ť":{"ha":868,"x_min":0,"x_max":781,"o":"m 260 -87 l 174 -87 l 174 0 l 174 87 l 260 87 l 260 174 l 260 260 l 260 347 l 260 434 l 260 521 l 260 608 l 174 608 l 174 521 l 87 521 l 0 521 l 0 608 l 0 694 l 87 694 l 174 694 l 260 694 l 260 781 l 347 781 l 434 781 l 434 868 l 521 868 l 608 868 l 694 868 l 694 781 l 781 781 l 781 694 l 781 608 l 694 608 l 608 608 l 608 694 l 521 694 l 434 694 l 434 608 l 347 608 l 347 521 l 347 434 l 434 434 l 434 347 l 434 260 l 434 174 l 434 87 l 434 0 l 347 0 l 347 -87 l 260 -87 m 260 781 l 174 781 l 174 868 l 174 955 l 260 955 l 260 1042 l 347 1042 l 347 955 l 347 868 l 260 868 l 260 781 m 174 955 l 87 955 l 87 1042 l 174 1042 l 174 955 z "},"ť":{"ha":608,"x_min":0,"x_max":521,"o":"m 347 -87 l 260 -87 l 260 0 l 174 0 l 174 87 l 174 174 l 87 174 l 87 260 l 87 347 l 87 434 l 0 434 l 0 521 l 0 608 l 87 608 l 87 694 l 87 781 l 174 781 l 174 868 l 260 868 l 260 781 l 260 694 l 260 608 l 347 608 l 347 521 l 434 521 l 434 434 l 347 434 l 260 434 l 260 347 l 260 260 l 260 174 l 347 174 l 347 87 l 434 87 l 434 0 l 434 -87 l 347 -87 m 347 608 l 347 694 l 347 781 l 347 868 l 347 955 l 434 955 l 521 955 l 521 868 l 521 781 l 434 781 l 434 694 l 434 608 l 347 608 z "},"Ŧ":{"ha":868,"x_min":0,"x_max":781,"o":"m 260 -87 l 174 -87 l 174 0 l 174 87 l 260 87 l 260 174 l 260 260 l 260 347 l 174 347 l 87 347 l 87 434 l 174 434 l 260 434 l 260 521 l 260 608 l 260 694 l 174 694 l 174 608 l 87 608 l 0 608 l 0 694 l 0 781 l 87 781 l 174 781 l 174 868 l 260 868 l 347 868 l 434 868 l 434 955 l 521 955 l 608 955 l 694 955 l 694 868 l 781 868 l 781 781 l 781 694 l 694 694 l 608 694 l 608 781 l 521 781 l 434 781 l 434 694 l 347 694 l 347 608 l 347 521 l 434 521 l 521 521 l 608 521 l 694 521 l 694 434 l 608 434 l 608 347 l 521 347 l 434 347 l 434 260 l 434 174 l 434 87 l 434 0 l 347 0 l 347 -87 l 260 -87 z "},"ŧ":{"ha":521,"x_min":0,"x_max":434,"o":"m 260 -87 l 174 -87 l 174 0 l 87 0 l 87 87 l 87 174 l 87 260 l 0 260 l 0 347 l 87 347 l 87 434 l 87 521 l 0 521 l 0 608 l 87 608 l 174 608 l 174 694 l 174 781 l 260 781 l 260 868 l 347 868 l 434 868 l 434 781 l 434 694 l 347 694 l 347 608 l 347 521 l 434 521 l 434 434 l 347 434 l 260 434 l 260 347 l 347 347 l 347 260 l 434 260 l 434 174 l 347 174 l 260 174 l 260 87 l 347 87 l 347 0 l 347 -87 l 260 -87 z "},"Ũ":{"ha":694,"x_min":0,"x_max":608,"o":"m 87 868 l 87 955 l 174 955 l 174 868 l 87 868 m 347 0 l 260 0 l 174 0 l 174 87 l 87 87 l 87 174 l 87 260 l 0 260 l 0 347 l 0 434 l 0 521 l 0 608 l 0 694 l 0 781 l 87 781 l 174 781 l 174 694 l 174 608 l 174 521 l 174 434 l 174 347 l 174 260 l 260 260 l 260 174 l 347 174 l 347 260 l 434 260 l 434 347 l 434 434 l 434 521 l 347 521 l 347 608 l 347 694 l 434 694 l 521 694 l 521 608 l 608 608 l 608 521 l 608 434 l 608 347 l 608 260 l 521 260 l 521 174 l 521 87 l 434 87 l 434 0 l 347 0 m 347 868 l 260 868 l 260 955 l 174 955 l 174 1042 l 260 1042 l 347 1042 l 347 955 l 434 955 l 434 868 l 347 868 m 434 955 l 434 1042 l 521 1042 l 521 955 l 434 955 z "},"ũ":{"ha":608,"x_min":0,"x_max":521,"o":"m 0 694 l 0 781 l 87 781 l 87 694 l 0 694 m 347 0 l 260 0 l 174 0 l 87 0 l 87 87 l 0 87 l 0 174 l 0 260 l 0 347 l 0 434 l 0 521 l 87 521 l 174 521 l 174 434 l 174 347 l 174 260 l 174 174 l 260 174 l 260 87 l 347 87 l 347 174 l 347 260 l 347 347 l 347 434 l 260 434 l 260 521 l 260 608 l 347 608 l 434 608 l 434 521 l 521 521 l 521 434 l 521 347 l 521 260 l 521 174 l 521 87 l 434 87 l 434 0 l 347 0 m 260 694 l 174 694 l 174 781 l 87 781 l 87 868 l 174 868 l 260 868 l 260 781 l 347 781 l 347 694 l 260 694 m 347 781 l 347 868 l 434 868 l 434 781 l 347 781 z "},"Ū":{"ha":694,"x_min":0,"x_max":608,"o":"m 347 0 l 260 0 l 174 0 l 174 87 l 87 87 l 87 174 l 87 260 l 0 260 l 0 347 l 0 434 l 0 521 l 0 608 l 0 694 l 0 781 l 87 781 l 174 781 l 174 694 l 174 608 l 174 521 l 174 434 l 174 347 l 174 260 l 260 260 l 260 174 l 347 174 l 347 260 l 434 260 l 434 347 l 434 434 l 434 521 l 347 521 l 347 608 l 347 694 l 434 694 l 521 694 l 521 608 l 608 608 l 608 521 l 608 434 l 608 347 l 608 260 l 521 260 l 521 174 l 521 87 l 434 87 l 434 0 l 347 0 m 434 955 l 521 955 l 521 868 l 434 868 l 347 868 l 260 868 l 174 868 l 174 955 l 87 955 l 87 1042 l 174 1042 l 260 1042 l 347 1042 l 347 955 l 434 955 z "},"ū":{"ha":608,"x_min":0,"x_max":521,"o":"m 347 0 l 260 0 l 174 0 l 87 0 l 87 87 l 0 87 l 0 174 l 0 260 l 0 347 l 0 434 l 0 521 l 87 521 l 174 521 l 174 434 l 174 347 l 174 260 l 174 174 l 260 174 l 260 87 l 347 87 l 347 174 l 347 260 l 347 347 l 347 434 l 260 434 l 260 521 l 260 608 l 347 608 l 434 608 l 434 521 l 521 521 l 521 434 l 521 347 l 521 260 l 521 174 l 521 87 l 434 87 l 434 0 l 347 0 m 347 781 l 434 781 l 434 694 l 347 694 l 260 694 l 174 694 l 87 694 l 87 781 l 0 781 l 0 868 l 87 868 l 174 868 l 260 868 l 260 781 l 347 781 z "},"Ŭ":{"ha":694,"x_min":0,"x_max":608,"o":"m 347 0 l 260 0 l 174 0 l 174 87 l 87 87 l 87 174 l 87 260 l 0 260 l 0 347 l 0 434 l 0 521 l 0 608 l 0 694 l 0 781 l 87 781 l 174 781 l 174 694 l 174 608 l 174 521 l 174 434 l 174 347 l 174 260 l 260 260 l 260 174 l 347 174 l 347 260 l 434 260 l 434 347 l 434 434 l 434 521 l 347 521 l 347 608 l 347 694 l 434 694 l 521 694 l 521 608 l 608 608 l 608 521 l 608 434 l 608 347 l 608 260 l 521 260 l 521 174 l 521 87 l 434 87 l 434 0 l 347 0 m 347 955 l 434 955 l 434 868 l 347 868 l 260 868 l 174 868 l 174 955 l 87 955 l 87 1042 l 174 1042 l 260 1042 l 260 955 l 347 955 m 434 955 l 434 1042 l 521 1042 l 521 955 l 434 955 z "},"ŭ":{"ha":608,"x_min":0,"x_max":521,"o":"m 347 0 l 260 0 l 174 0 l 87 0 l 87 87 l 0 87 l 0 174 l 0 260 l 0 347 l 0 434 l 0 521 l 87 521 l 174 521 l 174 434 l 174 347 l 174 260 l 174 174 l 260 174 l 260 87 l 347 87 l 347 174 l 347 260 l 347 347 l 347 434 l 260 434 l 260 521 l 260 608 l 347 608 l 434 608 l 434 521 l 521 521 l 521 434 l 521 347 l 521 260 l 521 174 l 521 87 l 434 87 l 434 0 l 347 0 m 260 781 l 347 781 l 347 694 l 260 694 l 174 694 l 87 694 l 87 781 l 0 781 l 0 868 l 87 868 l 174 868 l 174 781 l 260 781 m 347 781 l 347 868 l 434 868 l 434 781 l 347 781 z "},"Ů":{"ha":694,"x_min":0,"x_max":608,"o":"m 347 0 l 260 0 l 174 0 l 174 87 l 87 87 l 87 174 l 87 260 l 0 260 l 0 347 l 0 434 l 0 521 l 0 608 l 0 694 l 0 781 l 87 781 l 87 694 l 174 694 l 174 608 l 174 521 l 174 434 l 174 347 l 174 260 l 260 260 l 260 174 l 347 174 l 347 260 l 434 260 l 434 347 l 434 434 l 434 521 l 347 521 l 347 608 l 347 694 l 434 694 l 521 694 l 521 608 l 608 608 l 608 521 l 608 434 l 608 347 l 608 260 l 521 260 l 521 174 l 521 87 l 434 87 l 434 0 l 347 0 m 347 781 l 260 781 l 174 781 l 174 868 l 87 868 l 87 955 l 174 955 l 174 1042 l 260 1042 l 347 1042 l 434 1042 l 434 955 l 521 955 l 521 868 l 434 868 l 434 781 l 347 781 m 260 868 l 347 868 l 347 955 l 260 955 l 174 955 l 174 868 l 260 868 z "},"ů":{"ha":608,"x_min":0,"x_max":521,"o":"m 347 0 l 260 0 l 174 0 l 87 0 l 87 87 l 0 87 l 0 174 l 0 260 l 0 347 l 0 434 l 0 521 l 87 521 l 174 521 l 174 434 l 174 347 l 174 260 l 174 174 l 260 174 l 260 87 l 347 87 l 347 174 l 347 260 l 347 347 l 347 434 l 260 434 l 260 521 l 260 608 l 347 608 l 434 608 l 434 521 l 521 521 l 521 434 l 521 347 l 521 260 l 521 174 l 521 87 l 434 87 l 434 0 l 347 0 m 347 694 l 260 694 l 174 694 l 174 781 l 87 781 l 87 868 l 87 955 l 174 955 l 174 1042 l 260 1042 l 347 1042 l 434 1042 l 434 955 l 521 955 l 521 868 l 521 781 l 434 781 l 434 694 l 347 694 m 260 781 l 347 781 l 347 868 l 347 955 l 260 955 l 174 955 l 174 868 l 174 781 l 260 781 z "},"Ű":{"ha":694,"x_min":0,"x_max":608,"o":"m 347 781 l 347 868 l 347 955 l 434 955 l 434 1042 l 521 1042 l 521 955 l 521 868 l 434 868 l 434 781 l 347 781 m 347 0 l 260 0 l 174 0 l 174 87 l 87 87 l 87 174 l 87 260 l 0 260 l 0 347 l 0 434 l 0 521 l 0 608 l 0 694 l 0 781 l 87 781 l 87 694 l 174 694 l 174 608 l 174 521 l 174 434 l 174 347 l 174 260 l 260 260 l 260 174 l 347 174 l 347 260 l 434 260 l 434 347 l 434 434 l 434 521 l 347 521 l 347 608 l 347 694 l 434 694 l 521 694 l 521 608 l 608 608 l 608 521 l 608 434 l 608 347 l 608 260 l 521 260 l 521 174 l 521 87 l 434 87 l 434 0 l 347 0 m 87 781 l 87 868 l 87 955 l 174 955 l 174 1042 l 260 1042 l 260 955 l 260 868 l 174 868 l 174 781 l 87 781 z "},"ű":{"ha":608,"x_min":0,"x_max":521,"o":"m 0 608 l 0 694 l 0 781 l 87 781 l 87 868 l 174 868 l 174 781 l 174 694 l 87 694 l 87 608 l 0 608 m 260 694 l 260 781 l 260 868 l 347 868 l 347 955 l 434 955 l 434 868 l 434 781 l 347 781 l 347 694 l 260 694 m 347 0 l 260 0 l 174 0 l 87 0 l 87 87 l 0 87 l 0 174 l 0 260 l 0 347 l 0 434 l 0 521 l 87 521 l 174 521 l 174 434 l 174 347 l 174 260 l 174 174 l 260 174 l 260 87 l 347 87 l 347 174 l 347 260 l 347 347 l 347 434 l 260 434 l 260 521 l 260 608 l 347 608 l 434 608 l 434 521 l 521 521 l 521 434 l 521 347 l 521 260 l 521 174 l 521 87 l 434 87 l 434 0 l 347 0 z "},"Ų":{"ha":694,"x_min":0,"x_max":608,"o":"m 347 -260 l 260 -260 l 260 -174 l 174 -174 l 174 -87 l 174 0 l 174 87 l 87 87 l 87 174 l 87 260 l 0 260 l 0 347 l 0 434 l 0 521 l 0 608 l 0 694 l 0 781 l 87 781 l 87 868 l 174 868 l 174 781 l 174 694 l 174 608 l 174 521 l 174 434 l 174 347 l 174 260 l 260 260 l 260 174 l 347 174 l 347 260 l 434 260 l 434 347 l 434 434 l 434 521 l 347 521 l 347 608 l 347 694 l 434 694 l 521 694 l 521 608 l 608 608 l 608 521 l 608 434 l 608 347 l 608 260 l 521 260 l 521 174 l 521 87 l 434 87 l 434 0 l 347 0 l 347 -87 l 347 -174 l 434 -174 l 434 -260 l 347 -260 z "},"ų":{"ha":608,"x_min":0,"x_max":521,"o":"m 434 -260 l 347 -260 l 347 -174 l 260 -174 l 260 -87 l 260 0 l 174 0 l 87 0 l 87 87 l 0 87 l 0 174 l 0 260 l 0 347 l 0 434 l 0 521 l 87 521 l 174 521 l 174 434 l 174 347 l 174 260 l 174 174 l 260 174 l 260 87 l 347 87 l 347 174 l 347 260 l 347 347 l 347 434 l 260 434 l 260 521 l 260 608 l 347 608 l 434 608 l 434 521 l 521 521 l 521 434 l 521 347 l 521 260 l 521 174 l 521 87 l 434 87 l 434 0 l 434 -87 l 434 -174 l 521 -174 l 521 -260 l 434 -260 z "},"Ŵ":{"ha":781,"x_min":0,"x_max":694,"o":"m 434 -87 l 434 0 l 434 87 l 347 87 l 260 87 l 260 0 l 260 -87 l 174 -87 l 87 -87 l 87 0 l 87 87 l 87 174 l 0 174 l 0 260 l 0 347 l 0 434 l 0 521 l 0 608 l 0 694 l 0 781 l 87 781 l 87 868 l 174 868 l 174 781 l 260 781 l 260 694 l 260 608 l 174 608 l 174 521 l 174 434 l 174 347 l 174 260 l 174 174 l 260 174 l 260 260 l 260 347 l 347 347 l 347 434 l 434 434 l 434 347 l 434 260 l 521 260 l 521 347 l 521 434 l 521 521 l 434 521 l 434 608 l 434 694 l 521 694 l 608 694 l 608 608 l 694 608 l 694 521 l 694 434 l 694 347 l 694 260 l 608 260 l 608 174 l 608 87 l 608 0 l 521 0 l 521 -87 l 434 -87 m 434 781 l 434 868 l 347 868 l 347 781 l 260 781 l 260 868 l 347 868 l 347 955 l 347 1042 l 434 1042 l 434 955 l 521 955 l 521 868 l 521 781 l 434 781 z "},"ŵ":{"ha":781,"x_min":0,"x_max":694,"o":"m 434 0 l 434 87 l 347 87 l 260 87 l 260 0 l 174 0 l 87 0 l 87 87 l 0 87 l 0 174 l 0 260 l 0 347 l 0 434 l 0 521 l 87 521 l 174 521 l 174 434 l 174 347 l 87 347 l 87 260 l 174 260 l 174 174 l 260 174 l 260 260 l 260 347 l 347 347 l 347 260 l 434 260 l 434 174 l 521 174 l 521 260 l 521 347 l 521 434 l 434 434 l 434 521 l 434 608 l 521 608 l 608 608 l 608 521 l 694 521 l 694 434 l 694 347 l 694 260 l 608 260 l 608 174 l 608 87 l 521 87 l 521 0 l 434 0 m 260 608 l 260 694 l 174 694 l 174 608 l 87 608 l 87 694 l 174 694 l 174 781 l 174 868 l 260 868 l 260 781 l 347 781 l 347 694 l 347 608 l 260 608 z "},"Ŷ":{"ha":781,"x_min":0,"x_max":694,"o":"m 260 781 l 260 868 l 347 868 l 347 781 l 260 781 m 260 -174 l 174 -174 l 174 -87 l 174 0 l 260 0 l 260 87 l 260 174 l 260 260 l 174 260 l 174 347 l 174 434 l 87 434 l 87 521 l 87 608 l 0 608 l 0 694 l 0 781 l 87 781 l 174 781 l 174 694 l 174 608 l 260 608 l 260 521 l 347 521 l 347 608 l 434 608 l 434 694 l 521 694 l 521 781 l 608 781 l 694 781 l 694 694 l 694 608 l 608 608 l 608 521 l 521 521 l 521 434 l 434 434 l 434 347 l 347 347 l 347 260 l 347 174 l 434 174 l 434 87 l 434 0 l 434 -87 l 347 -87 l 347 -174 l 260 -174 m 521 781 l 434 781 l 434 868 l 347 868 l 347 955 l 347 1042 l 434 1042 l 434 955 l 521 955 l 521 868 l 521 781 z "},"ŷ":{"ha":608,"x_min":0,"x_max":521,"o":"m 260 608 l 260 694 l 174 694 l 174 608 l 87 608 l 87 694 l 174 694 l 174 781 l 174 868 l 260 868 l 260 781 l 347 781 l 347 694 l 347 608 l 260 608 m 87 -347 l 0 -347 l 0 -260 l 0 -174 l 87 -174 l 174 -174 l 174 -87 l 260 -87 l 260 0 l 174 0 l 174 87 l 87 87 l 87 174 l 0 174 l 0 260 l 0 347 l 0 434 l 0 521 l 87 521 l 174 521 l 174 434 l 174 347 l 174 260 l 174 174 l 260 174 l 260 87 l 347 87 l 347 174 l 347 260 l 347 347 l 260 347 l 260 434 l 260 521 l 347 521 l 434 521 l 434 434 l 521 434 l 521 347 l 521 260 l 521 174 l 521 87 l 434 87 l 434 0 l 434 -87 l 347 -87 l 347 -174 l 260 -174 l 260 -260 l 174 -260 l 174 -347 l 87 -347 z "},"Ÿ":{"ha":781,"x_min":0,"x_max":694,"o":"m 260 -174 l 174 -174 l 174 -87 l 174 0 l 260 0 l 260 87 l 260 174 l 260 260 l 174 260 l 174 347 l 174 434 l 87 434 l 87 521 l 87 608 l 0 608 l 0 694 l 0 781 l 87 781 l 174 781 l 174 694 l 174 608 l 260 608 l 260 521 l 347 521 l 347 608 l 434 608 l 434 694 l 521 694 l 521 781 l 608 781 l 694 781 l 694 694 l 694 608 l 608 608 l 608 521 l 521 521 l 521 434 l 434 434 l 434 347 l 347 347 l 347 260 l 347 174 l 434 174 l 434 87 l 434 0 l 434 -87 l 347 -87 l 347 -174 l 260 -174 m 434 868 l 347 868 l 347 955 l 347 1042 l 434 1042 l 434 955 l 521 955 l 521 868 l 434 868 m 174 868 l 87 868 l 87 955 l 87 1042 l 174 1042 l 260 1042 l 260 955 l 260 868 l 174 868 z "},"Ź":{"ha":868,"x_min":0,"x_max":781,"o":"m 694 -87 l 608 -87 l 521 -87 l 521 0 l 434 0 l 347 0 l 260 0 l 174 0 l 174 -87 l 87 -87 l 0 -87 l 0 0 l 0 87 l 87 87 l 87 174 l 174 174 l 174 260 l 260 260 l 260 347 l 347 347 l 347 434 l 434 434 l 434 521 l 521 521 l 521 608 l 521 694 l 434 694 l 434 608 l 347 608 l 347 521 l 260 521 l 174 521 l 87 521 l 87 608 l 0 608 l 0 694 l 0 781 l 87 781 l 174 781 l 174 694 l 260 694 l 260 781 l 347 781 l 434 781 l 434 868 l 521 868 l 608 868 l 694 868 l 694 781 l 694 694 l 694 608 l 694 521 l 608 521 l 608 434 l 521 434 l 521 347 l 434 347 l 434 260 l 347 260 l 347 174 l 434 174 l 521 174 l 608 174 l 694 174 l 694 87 l 781 87 l 781 0 l 781 -87 l 694 -87 m 260 868 l 174 868 l 174 955 l 260 955 l 260 1042 l 347 1042 l 434 1042 l 434 955 l 347 955 l 347 868 l 260 868 z "},"ź":{"ha":781,"x_min":0,"x_max":694,"o":"m 260 -87 l 174 -87 l 87 -87 l 87 0 l 87 87 l 87 174 l 174 174 l 174 260 l 260 260 l 260 347 l 347 347 l 347 434 l 260 434 l 174 434 l 174 347 l 87 347 l 0 347 l 0 434 l 0 521 l 87 521 l 174 521 l 174 608 l 260 608 l 347 608 l 434 608 l 521 608 l 521 521 l 521 434 l 521 347 l 434 347 l 434 260 l 347 260 l 347 174 l 260 174 l 260 87 l 347 87 l 434 87 l 434 174 l 521 174 l 521 260 l 608 260 l 694 260 l 694 174 l 694 87 l 608 87 l 608 0 l 521 0 l 434 0 l 347 0 l 347 -87 l 260 -87 m 174 694 l 87 694 l 87 781 l 174 781 l 174 868 l 260 868 l 347 868 l 347 781 l 260 781 l 260 694 l 174 694 z "},"Ż":{"ha":868,"x_min":0,"x_max":781,"o":"m 694 -87 l 608 -87 l 521 -87 l 521 0 l 434 0 l 347 0 l 260 0 l 174 0 l 174 -87 l 87 -87 l 0 -87 l 0 0 l 0 87 l 87 87 l 87 174 l 174 174 l 174 260 l 260 260 l 260 347 l 347 347 l 347 434 l 434 434 l 434 521 l 521 521 l 521 608 l 521 694 l 434 694 l 434 608 l 347 608 l 347 521 l 260 521 l 174 521 l 87 521 l 87 608 l 0 608 l 0 694 l 0 781 l 87 781 l 174 781 l 174 694 l 260 694 l 260 781 l 347 781 l 434 781 l 434 868 l 521 868 l 608 868 l 694 868 l 694 781 l 694 694 l 694 608 l 694 521 l 608 521 l 608 434 l 521 434 l 521 347 l 434 347 l 434 260 l 347 260 l 347 174 l 434 174 l 521 174 l 608 174 l 694 174 l 694 87 l 781 87 l 781 0 l 781 -87 l 694 -87 m 260 868 l 174 868 l 174 955 l 174 1042 l 260 1042 l 347 1042 l 347 955 l 347 868 l 260 868 z "},"ż":{"ha":781,"x_min":0,"x_max":694,"o":"m 260 -87 l 174 -87 l 87 -87 l 87 0 l 87 87 l 87 174 l 174 174 l 174 260 l 260 260 l 260 347 l 347 347 l 347 434 l 260 434 l 174 434 l 174 347 l 87 347 l 0 347 l 0 434 l 0 521 l 87 521 l 174 521 l 174 608 l 260 608 l 347 608 l 434 608 l 521 608 l 521 521 l 521 434 l 521 347 l 434 347 l 434 260 l 347 260 l 347 174 l 260 174 l 260 87 l 347 87 l 434 87 l 434 174 l 521 174 l 521 260 l 608 260 l 694 260 l 694 174 l 694 87 l 608 87 l 608 0 l 521 0 l 434 0 l 347 0 l 347 -87 l 260 -87 m 260 694 l 174 694 l 174 781 l 174 868 l 260 868 l 347 868 l 347 781 l 347 694 l 260 694 z "},"Ž":{"ha":868,"x_min":0,"x_max":781,"o":"m 694 -87 l 608 -87 l 521 -87 l 521 0 l 434 0 l 347 0 l 260 0 l 174 0 l 174 -87 l 87 -87 l 0 -87 l 0 0 l 0 87 l 87 87 l 87 174 l 174 174 l 174 260 l 260 260 l 260 347 l 347 347 l 347 434 l 434 434 l 434 521 l 521 521 l 521 608 l 521 694 l 434 694 l 434 608 l 347 608 l 347 521 l 260 521 l 174 521 l 87 521 l 87 608 l 0 608 l 0 694 l 0 781 l 87 781 l 174 781 l 174 694 l 260 694 l 260 781 l 347 781 l 434 781 l 434 868 l 521 868 l 608 868 l 694 868 l 694 781 l 694 694 l 694 608 l 694 521 l 608 521 l 608 434 l 521 434 l 521 347 l 434 347 l 434 260 l 347 260 l 347 174 l 434 174 l 521 174 l 608 174 l 694 174 l 694 87 l 781 87 l 781 0 l 781 -87 l 694 -87 m 260 781 l 174 781 l 174 868 l 174 955 l 260 955 l 260 1042 l 347 1042 l 347 955 l 347 868 l 260 868 l 260 781 m 174 955 l 87 955 l 87 1042 l 174 1042 l 174 955 z "},"ž":{"ha":781,"x_min":0,"x_max":694,"o":"m 174 694 l 174 781 l 174 868 l 260 868 l 260 955 l 347 955 l 347 868 l 347 781 l 260 781 l 260 694 l 174 694 m 260 -87 l 174 -87 l 87 -87 l 87 0 l 87 87 l 87 174 l 174 174 l 174 260 l 260 260 l 260 347 l 347 347 l 347 434 l 260 434 l 174 434 l 174 347 l 87 347 l 0 347 l 0 434 l 0 521 l 87 521 l 174 521 l 174 608 l 260 608 l 347 608 l 434 608 l 521 608 l 521 521 l 521 434 l 521 347 l 434 347 l 434 260 l 347 260 l 347 174 l 260 174 l 260 87 l 347 87 l 434 87 l 434 174 l 521 174 l 521 260 l 608 260 l 694 260 l 694 174 l 694 87 l 608 87 l 608 0 l 521 0 l 434 0 l 347 0 l 347 -87 l 260 -87 m 174 868 l 87 868 l 87 955 l 174 955 l 174 868 z "},"ſ":{"ha":521,"x_min":0,"x_max":434,"o":"m 87 -174 l 0 -174 l 0 -87 l 0 0 l 87 0 l 87 87 l 87 174 l 174 174 l 174 260 l 174 347 l 260 347 l 260 260 l 260 174 l 260 87 l 260 0 l 260 -87 l 174 -87 l 174 -174 l 87 -174 m 174 347 l 87 347 l 87 434 l 87 521 l 0 521 l 0 608 l 0 694 l 0 781 l 87 781 l 87 868 l 174 868 l 260 868 l 347 868 l 347 781 l 434 781 l 434 694 l 434 608 l 434 521 l 347 521 l 260 521 l 260 608 l 260 694 l 174 694 l 174 608 l 174 521 l 174 434 l 174 347 z "},"Ș":{"ha":781,"x_min":0,"x_max":694,"o":"m 260 -347 l 174 -347 l 174 -260 l 260 -260 l 260 -174 l 260 -87 l 347 -87 l 434 -87 l 434 -174 l 434 -260 l 347 -260 l 347 -347 l 260 -347 m 347 0 l 260 0 l 174 0 l 174 87 l 87 87 l 87 174 l 87 260 l 174 260 l 260 260 l 260 174 l 347 174 l 434 174 l 434 260 l 521 260 l 521 347 l 434 347 l 347 347 l 260 347 l 260 434 l 174 434 l 87 434 l 87 521 l 0 521 l 0 608 l 0 694 l 87 694 l 87 781 l 174 781 l 260 781 l 260 868 l 347 868 l 434 868 l 521 868 l 608 868 l 608 781 l 694 781 l 694 694 l 608 694 l 608 608 l 521 608 l 434 608 l 434 694 l 347 694 l 260 694 l 260 608 l 174 608 l 174 521 l 260 521 l 347 521 l 434 521 l 521 521 l 521 434 l 608 434 l 608 347 l 694 347 l 694 260 l 608 260 l 608 174 l 521 174 l 521 87 l 434 87 l 434 0 l 347 0 z "},"ș":{"ha":608,"x_min":0,"x_max":521,"o":"m 174 -347 l 87 -347 l 87 -260 l 174 -260 l 174 -174 l 174 -87 l 260 -87 l 347 -87 l 347 -174 l 347 -260 l 260 -260 l 260 -347 l 174 -347 m 347 0 l 260 0 l 174 0 l 87 0 l 87 87 l 0 87 l 0 174 l 0 260 l 87 260 l 174 260 l 174 347 l 87 347 l 87 434 l 0 434 l 0 521 l 87 521 l 87 608 l 174 608 l 174 694 l 260 694 l 347 694 l 434 694 l 434 608 l 521 608 l 521 521 l 521 434 l 434 434 l 347 434 l 347 521 l 260 521 l 174 521 l 174 434 l 260 434 l 260 347 l 347 347 l 434 347 l 434 260 l 521 260 l 521 174 l 521 87 l 434 87 l 434 0 l 347 0 m 260 174 l 347 174 l 347 260 l 260 260 l 174 260 l 174 174 l 260 174 z "},"Ț":{"ha":868,"x_min":0,"x_max":781,"o":"m 260 -347 l 174 -347 l 174 -260 l 260 -260 l 260 -174 l 260 -87 l 347 -87 l 434 -87 l 434 -174 l 434 -260 l 347 -260 l 347 -347 l 260 -347 m 260 0 l 174 0 l 174 87 l 174 174 l 260 174 l 260 260 l 260 347 l 260 434 l 260 521 l 260 608 l 260 694 l 174 694 l 174 608 l 87 608 l 0 608 l 0 694 l 0 781 l 87 781 l 174 781 l 174 868 l 260 868 l 347 868 l 434 868 l 434 955 l 521 955 l 608 955 l 694 955 l 694 868 l 781 868 l 781 781 l 781 694 l 694 694 l 608 694 l 608 781 l 521 781 l 434 781 l 434 694 l 347 694 l 347 608 l 347 521 l 434 521 l 434 434 l 434 347 l 434 260 l 434 174 l 434 87 l 347 87 l 347 0 l 260 0 z "},"ț":{"ha":521,"x_min":0,"x_max":434,"o":"m 174 -347 l 87 -347 l 87 -260 l 174 -260 l 174 -174 l 174 -87 l 260 -87 l 347 -87 l 347 -174 l 347 -260 l 260 -260 l 260 -347 l 174 -347 m 260 0 l 174 0 l 174 87 l 87 87 l 87 174 l 87 260 l 87 347 l 87 434 l 0 434 l 0 521 l 87 521 l 174 521 l 174 608 l 174 694 l 260 694 l 260 781 l 347 781 l 434 781 l 434 694 l 434 608 l 347 608 l 347 521 l 347 434 l 434 434 l 434 347 l 347 347 l 260 347 l 260 260 l 260 174 l 347 174 l 347 87 l 347 0 l 260 0 z "},"Ḃ":{"ha":781,"x_min":0,"x_max":694,"o":"m 434 -87 l 347 -87 l 260 -87 l 174 -87 l 87 -87 l 87 0 l 0 0 l 0 87 l 0 174 l 0 260 l 87 260 l 87 347 l 87 434 l 87 521 l 87 608 l 0 608 l 0 694 l 0 781 l 87 781 l 174 781 l 174 694 l 260 694 l 260 781 l 347 781 l 434 781 l 434 694 l 521 694 l 521 608 l 521 521 l 434 521 l 434 434 l 521 434 l 608 434 l 608 347 l 694 347 l 694 260 l 694 174 l 694 87 l 608 87 l 608 0 l 521 0 l 521 -87 l 434 -87 m 347 0 l 434 0 l 434 87 l 521 87 l 521 174 l 521 260 l 434 260 l 434 347 l 347 347 l 260 347 l 174 347 l 174 260 l 174 174 l 174 87 l 260 87 l 260 0 l 347 0 m 260 434 l 347 434 l 347 521 l 347 608 l 260 608 l 260 521 l 174 521 l 174 434 l 260 434 m 260 868 l 174 868 l 174 955 l 174 1042 l 260 1042 l 347 1042 l 347 955 l 347 868 l 260 868 z "},"ḃ":{"ha":694,"x_min":0,"x_max":608,"o":"m 434 0 l 347 0 l 260 0 l 174 0 l 87 0 l 0 0 l 0 87 l 0 174 l 87 174 l 87 260 l 87 347 l 87 434 l 87 521 l 87 608 l 87 694 l 0 694 l 0 781 l 0 868 l 87 868 l 174 868 l 174 781 l 260 781 l 260 694 l 260 608 l 260 521 l 260 434 l 347 434 l 434 434 l 521 434 l 521 347 l 608 347 l 608 260 l 608 174 l 608 87 l 521 87 l 521 0 l 434 0 m 260 87 l 347 87 l 347 174 l 434 174 l 434 260 l 434 347 l 347 347 l 260 347 l 260 260 l 174 260 l 174 174 l 174 87 l 260 87 m 434 521 l 347 521 l 347 608 l 347 694 l 434 694 l 521 694 l 521 608 l 521 521 l 434 521 z "},"Ḋ":{"ha":694,"x_min":0,"x_max":608,"o":"m 347 -87 l 260 -87 l 174 -87 l 87 -87 l 87 0 l 0 0 l 0 87 l 0 174 l 0 260 l 87 260 l 87 347 l 87 434 l 87 521 l 0 521 l 0 608 l 0 694 l 0 781 l 87 781 l 174 781 l 174 694 l 260 694 l 260 781 l 347 781 l 434 781 l 434 694 l 521 694 l 521 608 l 608 608 l 608 521 l 608 434 l 608 347 l 608 260 l 608 174 l 608 87 l 521 87 l 521 0 l 434 0 l 434 -87 l 347 -87 m 260 87 l 347 87 l 347 174 l 434 174 l 434 260 l 434 347 l 434 434 l 434 521 l 434 608 l 347 608 l 260 608 l 260 521 l 260 434 l 174 434 l 174 347 l 174 260 l 174 174 l 174 87 l 260 87 m 260 868 l 174 868 l 174 955 l 174 1042 l 260 1042 l 347 1042 l 347 955 l 347 868 l 260 868 z "},"ḋ":{"ha":694,"x_min":0,"x_max":608,"o":"m 521 0 l 434 0 l 434 87 l 347 87 l 347 0 l 260 0 l 174 0 l 87 0 l 87 87 l 0 87 l 0 174 l 0 260 l 0 347 l 0 434 l 87 434 l 87 521 l 174 521 l 260 521 l 347 521 l 347 608 l 347 694 l 347 781 l 347 868 l 434 868 l 434 955 l 521 955 l 608 955 l 608 868 l 608 781 l 521 781 l 521 694 l 434 694 l 434 608 l 434 521 l 434 434 l 434 347 l 434 260 l 521 260 l 521 174 l 608 174 l 608 87 l 608 0 l 521 0 m 260 174 l 347 174 l 347 260 l 347 347 l 260 347 l 260 434 l 174 434 l 174 347 l 174 260 l 174 174 l 260 174 m 174 608 l 87 608 l 87 694 l 87 781 l 174 781 l 260 781 l 260 694 l 260 608 l 174 608 z "},"Ḟ":{"ha":781,"x_min":0,"x_max":694,"o":"m 174 -87 l 87 -87 l 87 0 l 87 87 l 174 87 l 174 174 l 174 260 l 87 260 l 0 260 l 0 347 l 87 347 l 87 434 l 87 521 l 0 521 l 0 608 l 0 694 l 0 781 l 87 781 l 174 781 l 174 694 l 260 694 l 260 781 l 347 781 l 434 781 l 521 781 l 521 868 l 608 868 l 694 868 l 694 781 l 694 694 l 608 694 l 608 608 l 521 608 l 434 608 l 347 608 l 260 608 l 260 521 l 260 434 l 347 434 l 434 434 l 521 434 l 608 434 l 608 347 l 608 260 l 521 260 l 434 260 l 434 347 l 347 347 l 260 347 l 260 260 l 260 174 l 347 174 l 347 87 l 347 0 l 260 0 l 260 -87 l 174 -87 m 347 868 l 260 868 l 260 955 l 260 1042 l 347 1042 l 434 1042 l 434 955 l 434 868 l 347 868 z "},"ḟ":{"ha":608,"x_min":-87,"x_max":521,"o":"m 87 -174 l 0 -174 l 0 -87 l 0 0 l 87 0 l 87 87 l 174 87 l 174 174 l 87 174 l 0 174 l -87 174 l -87 260 l 0 260 l 0 347 l 87 347 l 87 434 l 0 434 l 0 521 l 0 608 l 0 694 l 87 694 l 87 781 l 174 781 l 260 781 l 347 781 l 347 694 l 434 694 l 434 608 l 434 521 l 434 434 l 347 434 l 260 434 l 260 521 l 260 608 l 174 608 l 174 521 l 174 434 l 174 347 l 260 347 l 347 347 l 434 347 l 434 260 l 521 260 l 521 174 l 521 87 l 434 87 l 347 87 l 347 174 l 260 174 l 260 87 l 260 0 l 260 -87 l 174 -87 l 174 -174 l 87 -174 m 174 868 l 87 868 l 87 955 l 87 1042 l 174 1042 l 260 1042 l 260 955 l 260 868 l 174 868 z "},"Ṁ":{"ha":781,"x_min":0,"x_max":694,"o":"m 521 -260 l 434 -260 l 434 -174 l 434 -87 l 521 -87 l 521 0 l 521 87 l 521 174 l 521 260 l 521 347 l 521 434 l 521 521 l 434 521 l 434 434 l 434 347 l 434 260 l 434 174 l 347 174 l 260 174 l 260 260 l 260 347 l 260 434 l 174 434 l 174 347 l 174 260 l 174 174 l 174 87 l 260 87 l 260 0 l 260 -87 l 174 -87 l 87 -87 l 87 0 l 0 0 l 0 87 l 0 174 l 0 260 l 0 347 l 0 434 l 87 434 l 87 521 l 87 608 l 87 694 l 0 694 l 0 781 l 0 868 l 87 868 l 174 868 l 174 781 l 260 781 l 260 694 l 260 608 l 260 521 l 347 521 l 347 608 l 347 694 l 347 781 l 434 781 l 434 868 l 434 955 l 521 955 l 608 955 l 608 868 l 608 781 l 608 694 l 608 608 l 608 521 l 608 434 l 608 347 l 694 347 l 694 260 l 694 174 l 694 87 l 694 0 l 694 -87 l 694 -174 l 608 -174 l 608 -260 l 521 -260 m 174 868 l 174 955 l 174 1042 l 260 1042 l 347 1042 l 347 955 l 347 868 l 260 868 l 174 868 z "},"ṁ":{"ha":868,"x_min":0,"x_max":781,"o":"m 260 -87 l 260 0 l 260 87 l 260 174 l 260 260 l 347 260 l 347 347 l 260 347 l 174 347 l 174 260 l 174 174 l 174 87 l 174 0 l 87 0 l 0 0 l 0 87 l 0 174 l 0 260 l 87 260 l 87 347 l 87 434 l 0 434 l 0 521 l 0 608 l 87 608 l 174 608 l 174 521 l 260 521 l 347 521 l 347 434 l 434 434 l 434 347 l 434 260 l 434 174 l 434 87 l 434 0 l 347 0 l 347 -87 l 260 -87 m 608 0 l 521 0 l 521 87 l 521 174 l 608 174 l 608 260 l 608 347 l 608 434 l 521 434 l 434 434 l 434 521 l 434 608 l 521 608 l 608 608 l 608 521 l 694 521 l 694 434 l 781 434 l 781 347 l 781 260 l 781 174 l 694 174 l 694 87 l 694 0 l 608 0 m 347 694 l 260 694 l 260 781 l 260 868 l 347 868 l 434 868 l 434 781 l 434 694 l 347 694 z "},"Ṗ":{"ha":781,"x_min":0,"x_max":694,"o":"m 87 -174 l 0 -174 l 0 -87 l 0 0 l 0 87 l 87 87 l 87 174 l 87 260 l 87 347 l 87 434 l 87 521 l 0 521 l 0 608 l 0 694 l 0 781 l 87 781 l 174 781 l 174 694 l 174 608 l 260 608 l 260 694 l 347 694 l 347 781 l 434 781 l 521 781 l 608 781 l 608 694 l 694 694 l 694 608 l 694 521 l 694 434 l 694 347 l 608 347 l 608 260 l 521 260 l 434 260 l 347 260 l 260 260 l 260 174 l 260 87 l 260 0 l 260 -87 l 174 -87 l 174 -174 l 87 -174 m 347 347 l 434 347 l 434 434 l 521 434 l 521 521 l 521 608 l 434 608 l 347 608 l 347 521 l 260 521 l 260 434 l 260 347 l 347 347 m 347 868 l 260 868 l 260 955 l 260 1042 l 347 1042 l 434 1042 l 434 955 l 434 868 l 347 868 z "},"ṗ":{"ha":608,"x_min":0,"x_max":521,"o":"m 87 -174 l 0 -174 l 0 -87 l 0 0 l 87 0 l 87 87 l 87 174 l 87 260 l 87 347 l 87 434 l 0 434 l 0 521 l 0 608 l 87 608 l 87 521 l 174 521 l 174 608 l 260 608 l 347 608 l 434 608 l 434 521 l 521 521 l 521 434 l 521 347 l 521 260 l 434 260 l 434 174 l 347 174 l 260 174 l 260 87 l 260 0 l 260 -87 l 174 -87 l 174 -174 l 87 -174 m 260 260 l 347 260 l 347 347 l 347 434 l 347 521 l 260 521 l 260 434 l 174 434 l 174 347 l 174 260 l 260 260 m 260 694 l 174 694 l 174 781 l 174 868 l 260 868 l 347 868 l 347 781 l 347 694 l 260 694 z "}}}
